<svg width="667" height="497" viewBox="0 0 667 497" fill="none" xmlns="http://www.w3.org/2000/svg">
<path d="M0 436.929H666.667V436.596H0V436.929Z" fill="#EEEEEE"/>
<path d="M555.705 458.057H599.868V458.39H555.705V458.057Z" fill="#EEEEEE"/>
<path d="M430.036 461.675H441.627V462.008H430.036V461.675Z" fill="#EEEEEE"/>
<path d="M528.781 445.675H554.371V446.008H528.781V445.675" fill="#EEEEEE"/>
<path d="M69.9453 447.916H127.536V448.249H69.9453V447.916Z" fill="#EEEEEE"/>
<path d="M139.408 447.916H147.852V448.249H139.408V447.916Z" fill="#EEEEEE"/>
<path d="M175.294 453.878H300.196V453.545H175.294V453.878Z" fill="#EEEEEE"/>
<path d="M58.5538 0.334648C54.5403 0.334648 51.2762 3.59869 51.2762 7.61069V369.52C51.2762 373.533 54.5403 376.797 58.5538 376.797H316.019C320.029 376.797 323.295 373.533 323.295 369.52V7.61069C323.295 3.59869 320.029 0.334648 316.019 0.334648H58.5538ZM316.019 377.131H58.5538C54.357 377.131 50.9429 373.717 50.9429 369.52V7.61069C50.9429 3.41602 54.357 0.00131439 58.5538 0.00131439H316.019C320.213 0.00131439 323.628 3.41602 323.628 7.61069V369.52C323.628 373.717 320.213 377.131 316.019 377.131Z" fill="#EEEEEE"/>
<path d="M346.949 0.334648C342.937 0.334648 339.673 3.59869 339.673 7.61069V369.52C339.673 373.533 342.937 376.797 346.949 376.797H604.414C608.426 376.797 611.692 373.533 611.692 369.52V7.61069C611.692 3.59869 608.426 0.334648 604.414 0.334648H346.949ZM604.414 377.131H346.949C342.753 377.131 339.34 373.717 339.34 369.52V7.61069C339.34 3.41602 342.753 0.00131439 346.949 0.00131439H604.414C608.61 0.00131439 612.025 3.41602 612.025 7.61069V369.52C612.025 373.717 608.61 377.131 604.414 377.131Z" fill="#EEEEEE"/>
<path d="M349.441 237.737H562.783V96.6787H349.441V237.737Z" fill="#E3E3E2"/>
<path d="M356.752 230.104H555.471V104.314H356.752V230.104Z" fill="#EEEEEE"/>
<path d="M407.407 165.129H369.715V112.837H407.407V165.129Z" fill="#F8F8F9"/>
<path d="M456.111 175.707H414.018V117.759H456.111V175.707Z" fill="#F8F8F9"/>
<path d="M502.105 162.947H467.257V112.837H502.105V162.947Z" fill="#F8F8F9"/>
<path d="M541.561 172.879H510.884V116.559H541.561V172.879Z" fill="#F8F8F9"/>
<path d="M474.512 224.864H541.562V183.733H474.512V224.864Z" fill="#F8F8F9"/>
<path d="M372.245 214.229H397.352V189.123H372.245V214.229Z" fill="#F8F8F9"/>
<path d="M432.027 220.085H406.615V194.672H432.027V220.085Z" fill="#F8F8F9"/>
<path d="M160.567 435.648H328.43V94.6091H160.567V435.648Z" fill="#E3E3E2"/>
<path d="M222.957 158.924H190.25V126.217H222.957V158.924Z" fill="#F4F4F4"/>
<path d="M260.852 158.924H228.144V126.217H260.852V158.924Z" fill="#F4F4F4"/>
<path d="M298.747 158.924H266.039V126.217H298.747V158.924Z" fill="#F4F4F4"/>
<path d="M222.957 196.96H190.25V164.253H222.957V196.96Z" fill="#F4F4F4"/>
<path d="M260.852 196.96H228.144V164.253H260.852V196.96Z" fill="#F4F4F4"/>
<path d="M266.039 196.96H298.747V164.252H266.039V196.96Z" fill="#F4F4F4"/>
<path d="M315.051 250.836C315.051 254.315 312.23 257.136 308.751 257.136C305.27 257.136 302.448 254.315 302.448 250.836C302.448 247.355 305.27 244.535 308.751 244.535C312.23 244.535 315.051 247.355 315.051 250.836Z" fill="#F4F4F4"/>
<path d="M90.126 124.707H153.524V94.824H90.126V124.707Z" fill="#E3E3E2"/>
<path d="M102.278 150.707H153.522V133.095H102.278V150.707Z" fill="#E3E3E2"/>
<path d="M96.0396 124.707H153.524V94.824H96.0396V124.707Z" fill="#EEEEEE"/>
<path d="M107.058 150.707H153.522V133.095H107.058V150.707Z" fill="#EEEEEE"/>
<path d="M265.456 60.028C265.456 71.176 256.418 80.2147 245.268 80.2147C234.119 80.2147 225.082 71.176 225.082 60.028C225.082 48.8787 234.119 39.84 245.268 39.84C256.418 39.84 265.456 48.8787 265.456 60.028Z" fill="#F4F4F4"/>
<path d="M261.016 60.028C261.016 68.7254 253.965 75.776 245.268 75.776C236.571 75.776 229.52 68.7254 229.52 60.028C229.52 51.3294 236.571 44.28 245.268 44.28C253.965 44.28 261.016 51.3294 261.016 60.028Z" fill="#FCFDFD"/>
<path d="M244.601 49.412V59.7067L239.377 63.8747L240.209 64.916L245.935 60.348V49.412H244.601Z" fill="#F4F4F4"/>
<path d="M453.444 393.544C453.459 393.089 454.989 347.919 462.336 340.775C469.483 333.828 477.685 340.516 478.029 340.803L478.767 339.92C478.673 339.841 469.417 332.287 461.535 339.949C453.857 347.416 452.356 391.628 452.296 393.507L453.444 393.544" fill="#E3E3E2"/>
<path d="M452.813 402.42C452.867 401.882 457.835 348.193 438.229 325.692L437.363 326.447C456.643 348.576 451.721 401.775 451.669 402.308L452.813 402.42" fill="#E3E3E2"/>
<path d="M453.538 396.741L454.686 396.665C454.645 396.057 450.849 335.631 465.23 322.403L464.452 321.556C449.668 335.156 453.373 394.232 453.538 396.741" fill="#E3E3E2"/>
<path d="M451.666 396.708L452.816 396.699C452.802 395.035 452.342 355.884 441.221 349.511C438.749 348.093 436.328 347.857 434.025 348.809C427.301 351.591 423.969 363.557 423.829 364.065L424.94 364.369C424.972 364.251 428.262 352.437 434.466 349.872C436.421 349.064 438.501 349.279 440.649 350.508C451.202 356.556 451.664 396.307 451.666 396.708Z" fill="#E3E3E2"/>
<path d="M455.997 396.736L457.145 396.672C457.128 396.363 455.468 365.732 463.733 354.941C465.737 352.327 467.911 351.08 470.208 351.24C475.624 351.619 480.167 359.545 480.211 359.624L481.213 359.059C481.016 358.711 476.323 350.516 470.289 350.093C467.591 349.901 465.075 351.3 462.821 354.241C454.295 365.372 455.924 395.461 455.997 396.736" fill="#E3E3E2"/>
<path d="M454.185 400.902C454.411 397.931 459.589 327.993 450.476 315.669L449.553 316.352C458.413 328.335 453.093 400.092 453.039 400.814L454.185 400.902" fill="#E3E3E2"/>
<path d="M431.548 355.896C431.548 355.896 437.013 357.912 435.389 362.669C433.764 367.428 416.479 375.257 416.479 375.257C416.479 375.257 409.239 368.621 415.888 357.832C422.536 347.04 431.4 352.493 431.548 355.896Z" fill="#EEEEEE"/>
<path d="M455.311 346.84C455.311 346.84 449.491 346.597 449.16 351.615C448.829 356.629 461.769 370.508 461.769 370.508C461.769 370.508 471.004 367.169 469.021 354.652C467.037 342.133 456.757 343.755 455.311 346.84Z" fill="#EEEEEE"/>
<path d="M460.24 322.827C460.24 322.827 456.359 322.409 456.671 320.047C456.983 317.683 471.757 311.599 480.473 321.437C480.473 321.437 474.892 331.024 466.824 331.149C458.756 331.275 460.24 322.827 460.24 322.827Z" fill="#EEEEEE"/>
<path d="M453.008 317.087C453.008 317.087 456.521 318.785 457.507 316.615C458.492 314.443 449.171 301.465 436.571 305.205C436.571 305.205 436.236 316.293 443.017 320.667C449.799 325.04 453.008 317.087 453.008 317.087" fill="#EEEEEE"/>
<path d="M471.383 353.985C471.383 353.985 468.704 351.823 471.593 350.767C474.484 349.712 488.667 350.011 488.815 364.06C488.815 364.06 472.297 366.805 470.252 361.453C468.208 356.103 471.383 353.985 471.383 353.985" fill="#EEEEEE"/>
<path d="M437.697 322.475C437.697 322.475 440.376 320.312 437.485 319.256C434.595 318.201 420.412 318.501 420.264 332.551C420.264 332.551 436.783 335.295 438.828 329.944C440.872 324.592 437.697 322.475 437.697 322.475Z" fill="#EEEEEE"/>
<path d="M446.431 333.791C446.431 333.791 446.667 331.164 444.544 332.193C442.421 333.224 435.028 341.2 442.692 348.769C442.692 348.769 453.008 341.128 451.149 337.149C449.289 333.171 446.431 333.791 446.431 333.791" fill="#EEEEEE"/>
<path d="M473.776 337.539C473.776 337.539 472.175 335.44 474.52 335.179C476.865 334.92 487.373 337.725 484.927 348.216C484.927 348.216 472.124 347.253 471.576 342.895C471.027 338.537 473.776 337.539 473.776 337.539" fill="#EEEEEE"/>
<path d="M430.527 435.648H474.451L479.191 387.556H425.787L430.527 435.648" fill="#F4F4F4"/>
<path d="M423.441 392.861H481.536V382.249H423.441V392.861Z" fill="#E9E9E8"/>
<path d="M591.852 481.716C591.852 490.054 476.111 496.813 333.333 496.813C190.557 496.813 74.8149 490.054 74.8149 481.716C74.8149 473.377 190.557 466.617 333.333 466.617C476.111 466.617 591.852 473.377 591.852 481.716" fill="#F8F8F9"/>
<path d="M549.24 239.851L546.694 239.731C546.694 239.731 542.347 271.184 539.467 273.652C536.6 276.117 494.334 267.945 491.867 266.159C491.8 266.105 491.733 266.011 491.693 265.879C489.84 261.251 497.174 209.064 499.867 206.639C502.64 204.131 510.787 206.639 510.787 206.639C510.787 206.639 528.587 210.811 538.8 213.585C542.32 214.544 544.934 215.344 545.614 215.744C548.267 217.317 549.24 239.851 549.24 239.851Z" fill="#1D2A30"/>
<path d="M534.674 262.663L531.27 261.115C531.347 260.615 531.427 260.109 531.507 259.599C531.774 257.917 532.067 256.184 532.374 254.411C532.68 252.624 533.027 250.797 533.4 248.904C533.734 247.159 534.094 245.357 534.48 243.531C534.894 241.624 535.32 239.691 535.787 237.719C535.974 236.904 536.174 236.077 536.374 235.237C536.747 233.744 537.134 232.237 537.547 230.719C537.8 229.757 538.067 228.784 538.334 227.811C538.916 225.732 539.536 223.636 540.195 221.537C540.404 228.521 539.774 237.477 539.774 237.477C539.774 237.477 538.444 247.068 536.771 256.072L534.843 252.743L532.706 253.904C532.924 256.779 533.851 260.139 534.674 262.663" fill="#45555C"/>
<path d="M465.669 155.02L463.495 146.175L473.385 148.229C473.385 148.229 474.851 156.239 470.693 156.819L465.669 155.02Z" fill="#FAB6B9"/>
<path d="M466.211 137.572L474.116 142.225L473.385 148.229L463.495 146.175L466.211 137.572" fill="#FAB6B9"/>
<path d="M500.495 207.547C498.015 208.759 495.735 209.52 495.735 209.52C494.56 209.08 493.415 208.627 492.28 208.173C491.708 207.933 491.121 207.707 490.56 207.452C488.48 206.6 486.441 205.68 484.415 204.707C483.613 204.32 482.801 203.933 482 203.532C481.333 203.187 480.655 202.853 479.988 202.493C478.468 201.667 476.947 200.853 475.441 199.96C474.401 199.36 473.361 198.72 472.333 198.053C471.268 197.36 470.227 196.627 469.161 195.827C468.947 195.68 468.748 195.52 468.533 195.36C467.268 194.4 466.001 193.333 464.72 191.973C464.068 191.307 463.428 190.559 462.788 189.64C462.468 189.225 462.121 188.612 461.828 188.092C461.748 187.933 461.655 187.759 461.575 187.573C461.375 187.119 461.188 186.653 461.068 186.279C460.335 184.013 460.241 182.253 460.173 180.573C460.121 177.759 460.375 175.213 460.735 172.747C460.788 172.293 460.867 171.827 460.935 171.387C461.495 168.107 462.227 164.92 463.108 161.8C463.775 159.44 464.533 157.08 465.388 154.733L471.947 156.172C471.84 158.333 471.708 160.493 471.628 162.653C471.48 165.907 471.375 169.133 471.375 172.279V173.667C471.415 175.52 471.495 177.333 471.693 178.973C471.72 179.199 471.761 179.44 471.788 179.667C471.961 180.733 472.253 181.733 472.441 182.067C472.479 182.143 472.491 182.136 472.499 182.128C472.505 182.123 472.509 182.117 472.521 182.145C472.613 182.199 472.575 182.213 472.708 182.333C472.893 182.52 473.161 182.8 473.507 183.092C474.908 184.293 477.015 185.68 479.173 186.892L479.295 186.96C481.441 188.16 483.708 189.347 486.055 190.452C486.2 190.532 486.375 190.6 486.548 190.68C489.828 192.253 493.253 193.785 496.667 195.225C497.988 195.785 499.28 196.347 500.575 196.865C500.575 196.865 504.908 198.053 506.441 201.04C507.681 203.452 503.893 205.907 500.495 207.547" fill="#4870C0"/>
<path d="M491.429 207.823C491.136 207.703 490.845 207.581 490.56 207.452C488.48 206.6 486.441 205.68 484.415 204.707C486.58 203.687 488.608 203.276 490.468 203.276C491.417 203.276 492.321 203.383 493.18 203.571C492.679 204.708 492.137 206.001 491.573 207.451C491.525 207.575 491.477 207.699 491.429 207.823" fill="#395EB4"/>
<path d="M453.015 465.575L444.597 462.517L449.232 442.232L457.649 445.289L453.015 465.575" fill="#FAB6B9"/>
<path d="M519.409 476.755H510.473L507.938 456.061H516.873L519.409 476.755" fill="#FAB6B9"/>
<path d="M509.301 475.721H520.195C520.56 475.721 520.88 475.975 520.963 476.331L522.807 484.273C522.999 485.097 522.359 485.877 521.515 485.863C518.01 485.803 515.449 485.597 511.035 485.597C508.319 485.597 500.131 485.878 496.38 485.878C492.712 485.878 492.103 482.171 493.635 481.835C500.504 480.329 505.672 478.251 507.856 476.271C508.251 475.912 508.767 475.721 509.301 475.721" fill="#1D2A30"/>
<path d="M444.289 460.805L453.851 462.856C454.209 462.933 454.468 463.248 454.475 463.613L454.612 471.748C454.627 472.592 453.857 473.224 453.033 473.032C449.596 472.233 444.653 470.963 440.317 470.033C435.248 468.945 432.107 467.92 426.161 466.645C422.567 465.875 422.312 462.035 423.884 462.029C431.04 462.002 435.373 463.404 442.04 461.033C442.764 460.776 443.533 460.644 444.289 460.805Z" fill="#1D2A30"/>
<path d="M455.263 455.753L455.259 455.752L455.723 453.723L455.727 453.724L455.263 455.753Z" fill="#CECDCC"/>
<path d="M455.259 455.752L446.841 452.694L447.304 450.669L455.723 453.723L455.259 455.752" fill="#CA9091"/>
<path d="M518.188 466.733H518.181L517.928 464.669H517.934L518.188 466.733Z" fill="#CECDCC"/>
<path d="M518.181 466.733H509.249L508.995 464.669H517.928L518.181 466.733" fill="#CA9091"/>
<path d="M444.374 449.607L458.628 454.777C458.628 454.777 469.764 405.745 475.683 378.564C477.484 370.296 481.104 358.925 485.392 346.812C490.802 331.552 497.259 315.129 502.471 302.289C507.968 288.769 512.062 279.227 512.062 279.227L481.243 272.985C481.243 272.985 457.727 340.655 452.444 367.399C446.948 395.208 444.374 449.607 444.374 449.607" fill="#1D2A30"/>
<path d="M458.628 454.777L455.723 453.723L447.304 450.669L444.374 449.607C444.374 449.607 446.948 395.208 452.444 367.399C457.727 340.655 481.243 272.985 481.243 272.985L497.871 276.352C497.87 276.376 497.171 286.183 496.256 299.983C489.695 311.436 485.707 333.597 485.392 346.812C485.254 347.203 485.116 347.593 484.979 347.981C484.952 348.059 484.926 348.136 484.898 348.213C484.348 349.776 483.812 351.323 483.29 352.852C481.875 356.995 480.564 360.999 479.412 364.757C478.062 369.159 476.927 373.227 476.084 376.797C476.058 376.909 476.032 377.02 476.007 377.131C475.894 377.619 475.786 378.096 475.683 378.564C475.424 379.752 475.155 380.984 474.879 382.249C474.15 385.576 473.362 389.148 472.539 392.861C469.388 407.082 465.731 423.355 462.956 435.648C462.884 435.966 462.814 436.283 462.742 436.596C462.718 436.707 462.692 436.819 462.667 436.929C460.288 447.468 458.628 454.777 458.628 454.777M512.062 279.227L498.583 276.496L512.062 279.227Z" fill="#5D6C72"/>
<path d="M485.392 346.812C485.707 333.597 489.695 311.436 496.256 299.983C495.828 306.44 495.352 313.772 494.88 321.385C491.655 329.687 488.365 338.424 485.392 346.812Z" fill="#475459"/>
<path d="M497.871 276.352C497.871 276.352 492.368 353.509 492.036 379.727C491.672 408.437 505.097 464.669 505.097 464.669H521.464C521.464 464.669 514.927 413.932 517.101 385.488C519.535 353.68 528.12 282.48 528.12 282.48L497.871 276.352Z" fill="#1D2A30"/>
<path d="M521.464 464.669H505.097C505.097 464.669 492.024 409.909 492.028 380.877C492.028 380.489 492.031 380.105 492.036 379.727C492.368 353.509 497.871 276.352 497.871 276.352L525.188 281.885L524.907 285.567L527.616 286.699C525.924 300.919 520.413 347.825 517.828 376.797C517.817 376.909 517.808 377.019 517.799 377.131C517.532 380.132 517.296 382.937 517.101 385.488C516.792 389.543 516.658 394.052 516.658 398.803C516.657 427.368 521.464 464.669 521.464 464.669" fill="#5D6C72"/>
<path d="M503.141 465.021H522.413L522.356 459.265L502.236 458.102L503.141 465.021Z" fill="#1D2A30"/>
<path d="M442.469 449.423L459.54 455.348L461.397 449.84L442.728 443.041L442.469 449.423Z" fill="#1D2A30"/>
<path d="M505.016 475.432L504.741 475.485C504.685 475.513 504.618 475.568 504.61 475.733C504.592 476.069 504.689 476.321 504.905 476.502C505.398 476.912 506.566 476.968 508.08 476.664C507.065 476.08 505.701 475.432 505.016 475.432V475.432ZM506.361 477.281C505.681 477.281 505.045 477.166 504.637 476.827C504.313 476.557 504.162 476.18 504.188 475.708C504.205 475.355 504.392 475.187 504.544 475.109C505.525 474.6 508.428 476.372 508.754 476.575L508.854 476.789L508.696 476.961C508.077 477.111 507.188 477.281 506.361 477.281Z" fill="#4870C0"/>
<path d="M506.807 473.344L506.712 473.349C506.437 473.384 506.415 473.509 506.404 473.564C506.299 474.152 507.452 475.632 508.379 476.329C508.267 475.576 507.967 474.073 507.295 473.529C507.141 473.405 506.981 473.344 506.807 473.344ZM508.647 476.966L508.545 476.941C507.616 476.44 505.808 474.481 505.988 473.485C506.02 473.304 506.149 472.992 506.656 472.931C506.984 472.892 507.288 472.981 507.56 473.202C508.607 474.051 508.845 476.629 508.856 476.739L508.761 476.933L508.647 476.966" fill="#4870C0"/>
<path d="M438.8 459.38L438.717 459.396L438.541 459.589C438.463 459.864 438.5 460.1 438.655 460.308C439.096 460.899 440.52 461.292 442.519 461.387C441.265 460.428 439.507 459.294 438.8 459.38ZM443.179 461.828L443.151 461.829C441.683 461.807 439.103 461.613 438.316 460.559C438.08 460.241 438.019 459.875 438.135 459.468C438.204 459.227 438.361 459.061 438.589 458.992C439.78 458.619 442.929 461.164 443.284 461.453L443.351 461.69L443.179 461.828" fill="#4870C0"/>
<path d="M441.353 457.803C441.168 457.825 441.135 457.916 441.12 457.951C440.903 458.523 442.021 460.312 442.968 461.19C442.996 460.478 442.972 459.004 442.364 458.249C442.152 457.985 441.893 457.84 441.573 457.805L441.353 457.803ZM443.179 461.828L443.028 461.788C442.068 461.088 440.361 458.751 440.724 457.797C440.811 457.572 441.033 457.321 441.616 457.385C442.048 457.433 442.411 457.635 442.693 457.987C443.62 459.137 443.373 461.54 443.361 461.643L443.239 461.812L443.179 461.828Z" fill="#4870C0"/>
<path d="M545.52 206.797C544.147 210.117 542.893 213.451 541.747 216.811C541.44 217.704 541.147 218.584 540.853 219.477C539.947 222.264 539.107 225.052 538.333 227.811C538.067 228.784 537.8 229.757 537.547 230.719C537.133 232.237 536.747 233.744 536.373 235.237C536.173 236.077 535.973 236.904 535.787 237.719C535.32 239.691 534.893 241.624 534.48 243.531C534.093 245.357 533.733 247.159 533.4 248.904C533.027 250.797 532.68 252.624 532.373 254.411C532.067 256.184 531.773 257.917 531.507 259.599C531.213 261.464 530.933 263.251 530.693 264.945C530.387 267.091 530.107 269.105 529.867 270.944C529.093 276.477 528.587 280.545 528.12 282.477C521.267 281.077 495.373 275.851 481.253 272.985C481.227 269.304 481.293 265.772 481.413 262.372C481.507 260.091 481.613 257.864 481.773 255.719C481.853 254.291 481.96 252.891 482.08 251.517C482.267 249.424 482.467 247.397 482.693 245.424C482.947 243.212 483.227 241.077 483.547 239.024C484.107 235.225 484.76 231.704 485.453 228.437C486.307 224.477 487.213 220.904 488.133 217.704C489.293 213.691 490.48 210.264 491.573 207.451C494.227 200.639 496.347 197.291 496.347 197.291C496.347 197.291 501.707 196.931 507.827 197.371C508.627 197.424 509.453 197.517 510.28 197.597C515.653 198.184 524.28 200.131 530.213 201.624C531.453 201.945 532.72 202.305 533.947 202.665C540.147 204.517 545.52 206.797 545.52 206.797" fill="#4870C0"/>
<path d="M532.553 178.781C530.063 184.943 526.55 196.441 530.212 201.631C526.271 204.353 520.846 206.249 513.672 204.635C508.179 203.396 508.643 199.483 510.284 197.595C517.761 197.335 518.599 191.989 518.311 186.753L532.553 178.781Z" fill="#FAB6B9"/>
<path d="M518.253 190.412H518.252C518.261 190.329 518.271 190.247 518.279 190.164C518.272 190.248 518.263 190.329 518.253 190.412M518.317 186.749L519.983 185.817L518.317 186.749Z" fill="#C5C4C2"/>
<path d="M518.537 190.42C518.441 190.42 518.347 190.417 518.253 190.412C518.263 190.329 518.272 190.248 518.279 190.164C518.392 189.059 518.385 187.903 518.317 186.749L519.983 185.817L526.747 182.035C526.852 182.747 526.648 184.131 526.228 185.528C525.416 188.237 521.344 190.42 518.537 190.42Z" fill="#CA9091"/>
<path d="M516.292 156.476C513.857 159.135 511.408 165.791 516.733 165.74C522.06 165.689 520.476 151.904 516.292 156.476Z" fill="#1D2A30"/>
<path d="M536.789 171.164C533.532 179.4 532.043 184.391 526.396 187.277C517.901 191.62 508.795 184.276 509.529 175.207C510.191 167.043 515.407 154.947 524.715 154.369C533.887 153.801 540.048 162.928 536.789 171.164" fill="#FAB6B9"/>
<path d="M538.063 155.301H532.021L534.928 160.787C535.915 160.931 533.956 164.277 534.808 164.293C534.808 164.293 530.872 171.575 533.306 176.496C542.272 175.776 548.595 168.728 544.539 163.651C547.106 159.199 542.555 155.892 538.063 155.301Z" fill="#1D2A30"/>
<path d="M537.748 179.228C536.37 181.172 534.222 182.288 532.284 182.573C529.37 183 528.261 180.287 529.362 177.717C530.354 175.404 533.065 172.393 535.849 173.143C538.593 173.883 539.324 177.004 537.748 179.228Z" fill="#FAB6B9"/>
<path d="M517.909 167.787C517.909 167.787 515.076 171.053 512.748 172.317C513.592 173.788 515.816 173.963 515.816 173.963L517.909 167.787Z" fill="#ED6A75"/>
<path d="M526.486 167.527C526.342 167.499 526.216 167.395 526.164 167.244C525.55 165.449 524.045 165.039 524.03 165.033C523.805 164.976 523.666 164.744 523.722 164.517C523.78 164.291 524.01 164.155 524.236 164.213C524.316 164.233 526.201 164.749 526.962 166.975C527.038 167.197 526.921 167.437 526.701 167.512L526.486 167.527" fill="#1D2A30"/>
<path d="M513.104 162.835L512.887 162.72C512.72 162.556 512.715 162.287 512.876 162.12C514.501 160.443 516.411 160.823 516.499 160.828C516.728 160.875 516.877 161.099 516.833 161.328C516.789 161.557 516.571 161.705 516.343 161.661C516.264 161.643 514.788 161.368 513.484 162.715C513.383 162.82 513.237 162.86 513.104 162.835" fill="#1D2A30"/>
<path d="M514.841 175.589C515.6 177.091 516.397 179.927 516.397 179.927C516.667 179.901 516.937 179.876 517.205 179.836C520.859 179.391 522.405 177.977 523.013 176.547C523.343 175.761 523.383 174.963 523.331 174.323C523.277 173.581 523.071 173.064 523.071 173.064C521.275 174.456 517.901 175.133 516.084 175.419C515.325 175.547 514.841 175.589 514.841 175.589" fill="#1D2A30"/>
<path d="M516.084 175.419L516.576 176.685C520.016 176.259 522.38 175.496 523.331 174.323C523.277 173.581 523.071 173.064 523.071 173.064C521.275 174.456 517.901 175.133 516.084 175.419Z" fill="white"/>
<path d="M517.205 179.836C520.858 179.391 522.405 177.977 523.013 176.547C521.774 176.745 520.304 177.124 519.056 177.844C518.1 178.391 517.545 179.121 517.205 179.836Z" fill="#F03E4C"/>
<path d="M542.868 157.107C542.868 157.107 537.636 149.025 525.348 148.512C513.062 148 512.679 156.199 516.842 159.017L517.206 157.811C517.206 157.811 518.686 159.708 520.87 160.643V159.017C520.87 159.017 523.322 161.415 526.775 162.841V160.787C526.775 160.787 529.971 163.489 536.632 164.2C543.294 164.909 545.902 162.243 542.868 157.107" fill="#1D2A30"/>
<path d="M521.649 168.66C521.676 168.644 521.869 168.552 522.081 168.553C522.225 168.555 522.375 168.587 522.536 168.708C522.697 168.831 522.88 169.056 523.036 169.477C523.1 169.649 523.292 169.737 523.465 169.673C523.637 169.609 523.725 169.419 523.661 169.245C523.473 168.739 523.224 168.393 522.939 168.177C522.653 167.96 522.34 167.885 522.081 167.887C521.639 167.889 521.339 168.071 521.311 168.085C521.152 168.179 521.099 168.383 521.192 168.541C521.285 168.7 521.491 168.753 521.649 168.66" fill="#1D2A30"/>
<path d="M514.076 166.675C514.103 166.659 514.296 166.567 514.508 166.568C514.652 166.569 514.801 166.603 514.963 166.723C515.124 166.845 515.307 167.071 515.464 167.492C515.528 167.665 515.72 167.753 515.892 167.689C516.064 167.625 516.152 167.433 516.088 167.26C515.901 166.753 515.652 166.408 515.365 166.192C515.08 165.975 514.767 165.9 514.508 165.901C514.067 165.905 513.765 166.085 513.737 166.1C513.579 166.193 513.527 166.397 513.62 166.556C513.713 166.715 513.917 166.768 514.076 166.675" fill="#1D2A30"/>
<path d="M537.67 203.276C537.67 203.276 528.864 230.328 535.457 255.273L533.756 256.856C533.756 256.856 522.838 230.317 532.021 202.112L537.67 203.276" fill="#1D2A30"/>
<path d="M506.681 197.151C506.681 197.151 486.277 223.205 482.468 247.453L482.842 241.823C482.842 241.823 482.71 220.197 500.574 196.865L506.681 197.151" fill="#1D2A30"/>
<path d="M534.842 252.743L538.293 258.701L536.052 266.483C536.052 266.483 533.118 259.328 532.705 253.904L534.842 252.743" fill="#1D2A30"/>
<path d="M548.501 276.152L526.337 266.855L524.907 285.567C524.907 285.567 549.887 286.032 550.3 286.184C550.711 286.337 548.501 276.152 548.501 276.152Z" fill="#1D2A30"/>
<path d="M524.907 285.567L526.337 266.855L528.232 267.649L527.775 268.383L526.309 284.348L524.907 285.567" fill="#758288"/>
<path d="M526.305 284.395L527.775 268.383L531.536 262.368L546.363 275.255L543.781 284.093L526.305 284.395" fill="#1D2A30"/>
<path d="M526.31 284.348L527.775 268.383L530.143 264.596L529.927 281.207L526.31 284.348" fill="#BDC1C2"/>
<path d="M530.193 260.625L529.927 281.207L524.907 285.567L554.363 297.863L559.457 292.603L559.671 274.029L530.193 260.625Z" fill="#1D2A30"/>
<path d="M554.363 297.863L527.616 286.699L524.907 285.567L529.927 281.207L530.193 260.625L559.671 274.029L559.457 292.603L554.363 297.863" fill="#8E989B"/>
<path d="M548.711 281.036L547.903 290.109L539.211 284.96C539.211 284.96 540.42 276.909 544.542 277.707L548.711 281.036Z" fill="#FAB6B9"/>
<path d="M542.545 297.368L536.575 290.403L539.211 284.96L547.903 290.109L542.545 297.368" fill="#FAB6B9"/>
<path d="M537.546 230.719C535.68 226.851 536.573 220.332 536.573 220.332L540.853 219.477C539.946 222.264 539.106 225.052 538.333 227.811C538.066 228.784 537.8 229.757 537.546 230.719" fill="#395EB4"/>
<path d="M551.068 210.852C553.499 213.225 555.98 216.232 558.348 219.536C561.617 224.071 564.672 229.176 567.064 233.945C569.008 237.809 570.527 241.473 571.381 244.448C571.864 246.085 572.136 247.527 572.167 248.671C572.252 251.688 569.459 256.824 565.823 262.184C563.753 265.243 561.409 268.369 559.168 271.24C554.231 277.517 549.793 282.5 549.793 282.5L543.048 277.832C543.048 277.832 546.351 271.837 549.719 265.363C551.52 261.932 553.337 258.356 554.669 255.484C555.928 252.797 556.764 250.716 556.804 249.94C556.828 249.4 556.769 248.823 556.66 248.18C556.16 245.375 547.903 227.844 536.575 220.328L540.568 205.669C543.471 204.877 547.199 207.055 551.068 210.852Z" fill="#4870C0"/>
<path d="M222.408 268.064C222.408 268.064 200.958 276.812 190.232 275.229C179.507 273.647 176.518 300.548 190.232 306.525C203.947 312.505 219.852 311.011 225.574 307.281C231.295 303.553 222.408 268.064 222.408 268.064Z" fill="#4870C0"/>
<path d="M212.109 310.512C208.32 304.601 205.704 300.613 205.317 299.901C203.441 296.452 198.825 285.497 198.825 285.497L181.626 287.885C187.905 287.013 194.052 286.159 198.825 285.496C199.041 281.815 199.164 278.276 199.208 274.873C209.897 273.167 222.408 268.064 222.408 268.064L219.33 269.669C219.33 269.669 218.949 276.001 218.949 283.468C218.949 293.928 219.696 306.613 223.286 307.229C223.493 307.265 223.706 307.283 223.928 307.283C224.585 307.283 225.302 307.129 226.058 306.851C225.91 307.024 225.748 307.168 225.573 307.281C222.894 309.028 217.982 310.284 212.109 310.512" fill="#395EB4"/>
<path d="M222.408 268.064C222.408 268.064 240.167 283.669 241.221 288.416C242.276 293.164 229.441 308.284 223.287 307.229C217.133 306.173 219.331 269.669 219.331 269.669L222.408 268.064" fill="#4870C0"/>
<path d="M223.928 307.283C223.707 307.283 223.493 307.265 223.287 307.229C219.696 306.613 218.949 293.928 218.949 283.468C218.949 276.001 219.331 269.669 219.331 269.669L222.408 268.064C222.408 268.064 240.167 283.669 241.221 288.416C241.263 288.6 241.283 288.799 241.283 289.012C241.292 294.124 230.031 307.283 223.928 307.283" fill="#658ACF"/>
<path d="M179.207 212.277C183.969 208.759 188.812 205.279 193.648 201.852C198.457 198.416 203.376 194.999 207.948 191.575L208.163 191.415L208.241 191.349L208.359 191.271L208.683 190.967L209.068 190.485L209.479 189.881C210.037 189.005 210.564 187.879 211.035 186.691C211.973 184.295 212.777 181.603 213.432 178.852C214.757 173.347 215.781 167.496 216.641 161.764L222.885 161.864C223.405 168.071 223.435 174.153 222.809 180.436C222.456 183.568 222.016 186.739 221.083 190.017C220.612 191.661 220.06 193.333 219.207 195.091L218.495 196.424C218.213 196.877 217.913 197.333 217.607 197.785C217.233 198.255 216.901 198.708 216.463 199.172L215.767 199.864L215.435 200.177L215.215 200.371C212.867 202.457 210.545 204.399 208.181 206.296C205.833 208.207 203.464 210.069 201.076 211.899C196.305 215.572 191.479 219.109 186.527 222.543L179.207 212.277" fill="#F57473"/>
<path d="M185.345 229.808C193.593 230.151 211.007 209.557 211.007 209.557L199.432 198.208C199.432 198.208 189.085 203.457 181.405 210.876C173.315 218.688 176.176 229.425 185.345 229.808" fill="#1D2A30"/>
<path d="M190.136 216.253C188.892 213.175 188.033 211.641 188.033 211.641C188.033 211.641 185.128 211.264 181.176 211.1C181.252 211.025 181.328 210.951 181.405 210.876C189.085 203.457 199.432 198.208 199.432 198.208L206.08 204.727C203.458 205.795 195.25 211.14 190.136 216.253" fill="#45555C"/>
<path d="M211.005 209.559L208.597 207.195L211.007 209.557C211.007 209.557 211.007 209.557 211.005 209.559Z" fill="#45555C"/>
<path d="M193.543 226.371C193.538 226.351 193.532 226.331 193.527 226.311C201.703 220.541 210.92 209.66 211.006 209.559L211.007 209.56C211.007 209.56 201.751 220.591 193.543 226.371M208.598 207.195L207.908 206.519L208.598 207.195Z" fill="#CBC9C8"/>
<path d="M207.908 206.519L206.08 204.727C206.081 204.727 206.081 204.727 206.081 204.727L207.908 206.519Z" fill="#DD6665"/>
<path d="M193.527 226.311C192.314 222.012 191.107 218.66 190.136 216.253C195.251 211.14 203.459 205.795 206.08 204.727L208.598 207.195L211.006 209.559C210.92 209.66 201.703 220.541 193.527 226.311" fill="#3D4B52"/>
<path d="M216.428 168.104L214.288 155.975L225.055 155.821C225.055 155.821 227.743 164.091 222.191 168.631L216.428 168.104" fill="#F47272"/>
<path d="M216.996 147.637L225.049 149.444L225.055 155.821L214.288 155.975L216.996 147.637Z" fill="#F47272"/>
<path d="M164.145 468.537L152.938 468.715C152.56 468.723 152.238 468.99 152.162 469.361L150.472 477.605C150.329 478.341 150.81 479.059 151.548 479.201L151.848 479.225C155.474 479.111 158.109 478.845 162.664 478.773C164.01 478.752 166.662 478.777 169.485 478.803C172.54 478.831 175.793 478.859 177.806 478.828C181.68 478.766 182.124 474.933 180.533 474.605C173.397 473.169 168.013 471.107 165.704 469.1C165.274 468.72 164.717 468.517 164.145 468.537" fill="#1D2A30"/>
<path d="M258.641 468.537L247.435 468.715C247.056 468.723 246.735 468.99 246.659 469.361L244.969 477.605C244.825 478.341 245.307 479.059 246.045 479.201L246.345 479.225C249.971 479.111 252.607 478.845 257.16 478.773C258.507 478.752 261.159 478.777 263.981 478.803C267.036 478.831 270.291 478.859 272.303 478.828C276.176 478.766 276.62 474.933 275.031 474.605C267.895 473.169 262.509 471.107 260.2 469.1C259.772 468.72 259.215 468.517 258.641 468.537" fill="#1D2A30"/>
<path d="M150.435 469.107H165.703C165.703 469.107 185.143 405.028 186.816 388.682C188.491 372.336 189.099 331.377 189.099 331.377L189.111 331.401L189.163 331.479C189.821 332.352 195.592 340.468 202.224 349.892C210.911 362.229 221.093 376.813 223.236 380.389C229.539 390.913 244.945 469.107 244.945 469.107H260.201C260.201 469.107 256.36 399.119 248.523 376.052C240.697 352.985 206.789 302.615 205.317 299.901C203.441 296.452 198.825 285.497 198.825 285.497L153.084 291.849C153.084 291.849 152.336 299.597 152.388 306.369C152.603 331.781 157.396 366.135 158.169 375.366C159.615 392.931 150.435 469.107 150.435 469.107" fill="#4870C0"/>
<path d="M188.032 211.645C188.032 211.645 201.718 236.065 198.82 285.491C185.038 287.408 159.786 290.92 153.08 291.853C151.788 284.876 151.436 250.011 140.062 217.869C140.062 217.869 147.683 215.205 155.104 213.805C160.91 212.711 169.344 211.348 174.548 211.103C181.408 210.779 188.032 211.645 188.032 211.645" fill="#1D2A30"/>
<path d="M166.247 290.021C170.804 289.388 175.968 288.669 181.071 287.96C181.071 287.96 181.071 287.961 181.071 287.963L166.247 290.021ZM199.204 274.873C199.489 253.024 196.499 236.877 193.541 226.372C193.543 226.371 193.543 226.371 193.543 226.371C196.5 236.876 199.491 253.025 199.208 274.873C199.207 274.873 199.205 274.873 199.204 274.873ZM180.82 211.088C180.517 211.077 180.209 211.067 179.895 211.059V211.056C180.211 211.064 180.52 211.075 180.824 211.085C180.823 211.087 180.821 211.088 180.82 211.088Z" fill="#E9E9E8"/>
<path d="M181.071 287.963C181.071 287.961 181.071 287.96 181.071 287.96C187.539 287.06 193.907 286.175 198.82 285.491C199.035 281.813 199.159 278.275 199.204 274.873C199.205 274.873 199.207 274.873 199.208 274.873C199.164 278.276 199.041 281.815 198.825 285.496C194.052 286.159 187.905 287.013 181.627 287.885L181.071 287.963" fill="#557BC6"/>
<path d="M181.173 211.103C181.057 211.097 180.938 211.093 180.82 211.088C180.821 211.088 180.822 211.087 180.824 211.085C180.942 211.091 181.06 211.095 181.176 211.1C181.176 211.101 181.174 211.101 181.173 211.103Z" fill="#F7908F"/>
<path d="M190.133 216.256C188.891 213.179 188.032 211.645 188.032 211.645C188.032 211.645 185.128 211.265 181.173 211.103C181.175 211.101 181.176 211.101 181.176 211.1C185.128 211.264 188.033 211.641 188.033 211.641C188.033 211.641 188.892 213.175 190.136 216.253C190.135 216.255 190.135 216.255 190.133 216.256Z" fill="#6A797F"/>
<path d="M193.541 226.372C193.536 226.352 193.531 226.332 193.525 226.312C193.525 226.311 193.525 226.311 193.527 226.311C193.532 226.331 193.537 226.351 193.543 226.371C193.543 226.371 193.543 226.371 193.541 226.372Z" fill="#D7D6D4"/>
<path d="M193.525 226.312C192.312 222.012 191.105 218.663 190.133 216.256C190.135 216.255 190.135 216.255 190.136 216.253C191.107 218.66 192.313 222.012 193.527 226.311C193.525 226.311 193.525 226.311 193.525 226.312" fill="#627277"/>
<path d="M143.217 216.841C144.551 216.428 146.224 215.932 148.076 215.435C146.228 215.932 144.556 216.427 143.224 216.84C143.221 216.84 143.219 216.841 143.217 216.841Z" fill="white"/>
<path d="M153.084 291.848C152.939 291.063 152.804 289.92 152.665 288.468L162.835 254.667L151.865 241.969L151.736 242.403C152.061 238.017 151.689 234.429 151.689 234.429C151.153 234.488 150.629 234.612 150.117 234.792C153.256 231.768 154.66 228.58 154.663 225.735C154.665 221.493 151.555 218.013 146.428 216.975C145.765 216.84 145.092 216.776 144.416 216.776C144.02 216.776 143.623 216.797 143.224 216.84C144.556 216.427 146.228 215.932 148.076 215.435C148.505 215.32 148.944 215.205 149.391 215.091H149.389L161.167 220.993L163.355 218.209L173.184 222.251L176.3 215.032L179.895 216.203V211.059C180.209 211.067 180.517 211.077 180.82 211.088C180.939 211.093 181.057 211.097 181.173 211.103C185.128 211.265 188.032 211.645 188.032 211.645C188.032 211.645 188.891 213.179 190.133 216.256C191.105 218.663 192.312 222.012 193.525 226.312C193.531 226.332 193.536 226.352 193.541 226.372C196.499 236.877 199.489 253.024 199.204 274.873C199.159 278.275 199.035 281.813 198.82 285.491C193.907 286.175 187.539 287.06 181.071 287.96C175.968 288.669 170.804 289.388 166.247 290.021L156.848 291.327C155.291 291.543 154.011 291.72 153.084 291.848M171.748 219.881L169.775 217.621C170.456 217.943 171.149 218.295 171.861 218.685L171.748 219.881" fill="#45555C"/>
<path d="M152.398 191.613C154.97 197.513 158.673 208.548 155.266 213.616C161.73 214.823 166.369 215.575 172.377 218.972C173.322 214.789 174.436 209.384 174.436 209.384C167.194 209.26 166.246 204.119 166.385 199.061L152.398 191.613" fill="#F47272"/>
<path d="M166.537 202.591C166.524 202.495 166.512 202.399 166.5 202.301C166.512 202.399 166.525 202.495 166.54 202.591C166.539 202.591 166.539 202.591 166.537 202.591ZM166.379 199.059L163.519 197.535L166.379 199.057V199.059" fill="#B3B2B1"/>
<path d="M166.17 202.604C163.456 202.604 159.543 200.584 158.695 198.015C158.254 196.673 158.02 195.341 158.103 194.653L163.519 197.535L166.379 199.059C166.346 200.155 166.368 201.252 166.5 202.301C166.512 202.399 166.524 202.495 166.538 202.591C166.418 202.6 166.295 202.604 166.17 202.604Z" fill="#CD5A58"/>
<path d="M260.201 469.107H244.945C244.945 469.107 229.539 390.913 223.236 380.389C221.093 376.813 210.911 362.229 202.224 349.892C204.367 331.731 189.365 323.957 189.365 323.957L189.099 331.377C189.099 331.377 188.491 372.336 186.816 388.682C185.969 396.948 180.579 417.427 175.456 435.648C175.368 435.964 175.279 436.28 175.189 436.596C175.159 436.708 175.127 436.817 175.096 436.929C170.225 454.199 165.703 469.107 165.703 469.107H150.435C150.435 469.107 158.328 403.612 158.324 380.078C158.324 378.232 158.275 376.644 158.169 375.366C157.396 366.135 152.603 331.781 152.388 306.369C152.385 306.151 152.385 305.932 152.385 305.712C152.384 299.185 153.068 292.024 153.084 291.853C155.073 291.576 158.691 291.072 163.155 290.452C168.536 289.704 175.151 288.785 181.627 287.885L198.825 285.497C198.825 285.497 203.441 296.452 205.317 299.901C206.789 302.615 240.697 352.985 248.523 376.052C256.36 399.119 260.201 469.107 260.201 469.107" fill="#A1BCE6"/>
<path d="M153.084 291.853C153.084 291.851 153.084 291.849 153.084 291.849L156.848 291.327C158.629 291.08 160.771 290.783 163.155 290.452C158.691 291.072 155.073 291.576 153.084 291.853Z" fill="#8E989B"/>
<path d="M163.155 290.452C164.147 290.313 165.18 290.171 166.247 290.021L181.627 287.885C175.151 288.785 168.536 289.704 163.155 290.452Z" fill="#B4CAEC"/>
<path d="M156.848 291.327L166.247 290.021C165.18 290.171 164.147 290.313 163.155 290.452C160.771 290.783 158.629 291.08 156.848 291.327Z" fill="#A5ADAF"/>
<path d="M149.389 215.091L153.186 210.349L165.497 212.72L171.748 219.881L172.533 211.616L174.844 208.844L179.894 211.029V216.203L176.3 215.032L173.184 222.251L163.354 218.209L161.166 220.993L149.389 215.091" fill="#1D2A30"/>
<path d="M173.184 222.251L164.074 215.548L161.166 220.993L149.389 215.091L153.186 210.349L165.497 212.72L171.748 219.881L172.533 211.616L174.844 208.844L179.894 211.029V216.203L174.377 213.611L173.184 222.251" fill="#5D6C72"/>
<path d="M173.184 222.251L174.377 213.611L179.895 216.203L176.3 215.032L173.184 222.251" fill="#516065"/>
<path d="M173.184 222.251L163.355 218.209L161.167 220.993L164.075 215.548L173.184 222.251" fill="#516065"/>
<path d="M151.204 244.177L148.557 243.56L146.482 240.904C146.306 240.087 146.125 239.268 145.938 238.445C147.276 237.347 148.584 236.217 149.809 235.083C149.913 234.987 150.016 234.889 150.117 234.792C150.629 234.612 151.153 234.488 151.689 234.429C151.689 234.429 152.061 238.017 151.736 242.403L151.204 244.177" fill="#3D4B52"/>
<path d="M202.224 349.892C195.592 340.468 189.821 332.352 189.163 331.479L189.111 331.401L189.099 331.377L189.365 323.957C189.365 323.957 204.367 331.731 202.224 349.892Z" fill="#7A95D4"/>
<path d="M165.949 166.804C170.528 167.971 175.004 179.497 170.058 183.02C165.114 186.544 157.274 164.593 165.949 166.804Z" fill="#1D2A30"/>
<path d="M148.887 183.147C152.185 191.191 153.704 196.051 159.32 198.993C167.767 203.42 176.715 196.577 175.905 187.799C175.177 179.896 169.904 168.071 160.685 167.259C151.603 166.459 145.587 175.104 148.887 183.147" fill="#F47272"/>
<path d="M154.988 171.495L153.149 164.273C151.339 165.475 149.331 166.211 147.372 166.12C138.365 165.701 132.789 172.473 137.705 176.564C133.964 179.089 137.256 184.251 140.647 187.301C145.357 191.54 149.825 193.119 152.195 190.361C154.457 188.676 153.255 179.979 151.833 176.937C149.689 172.355 154.988 171.495 154.988 171.495Z" fill="#1D2A30"/>
<path d="M148.503 192.217C150.316 193.751 152.563 194.447 154.37 194.436C157.087 194.42 157.25 191.869 155.491 189.747C153.908 187.836 150.587 185.54 148.342 186.581C146.13 187.605 146.43 190.465 148.503 192.217" fill="#F47272"/>
<path d="M162.231 181.641C162.457 182.309 163 182.743 163.44 182.609C163.881 182.476 164.055 181.827 163.827 181.16C163.6 180.492 163.057 180.059 162.617 180.192C162.176 180.325 162.003 180.975 162.231 181.641Z" fill="#1D2A30"/>
<path d="M169.855 179.339C170.082 180.005 170.623 180.439 171.064 180.305C171.504 180.172 171.679 179.524 171.451 178.856C171.223 178.188 170.683 177.755 170.242 177.889C169.8 178.021 169.627 178.671 169.855 179.339Z" fill="#1D2A30"/>
<path d="M167.544 180.403C167.544 180.403 170.388 183.789 172.709 185.137C171.891 186.6 169.691 186.709 169.691 186.709L167.544 180.403Z" fill="#F03E4C"/>
<path d="M159.042 179.919L158.836 179.903C158.621 179.828 158.505 179.592 158.58 179.377C159.316 177.239 161.184 176.792 161.262 176.775C161.468 176.705 161.706 176.863 161.757 177.085C161.808 177.308 161.669 177.529 161.446 177.581C161.369 177.6 159.941 177.967 159.362 179.645C159.312 179.793 159.186 179.893 159.042 179.919" fill="#1D2A30"/>
<path d="M172.249 175.753C172.119 175.777 171.979 175.737 171.88 175.636C170.565 174.288 169.044 174.531 169.029 174.532C168.804 174.571 168.591 174.42 168.552 174.195C168.513 173.971 168.664 173.756 168.888 173.717H168.889C168.971 173.703 170.859 173.403 172.472 175.057C172.632 175.221 172.628 175.483 172.465 175.643L172.249 175.753" fill="#1D2A30"/>
<path d="M147.028 167.145C147.028 167.145 151.66 154.62 163.305 155.601C163.305 155.601 161.193 156.355 160.375 157.299C160.375 157.299 170.173 155.203 174.126 161.773L172.092 160.9C172.092 160.9 175.335 166.348 172.855 170.516L172.061 168.675C172.061 168.675 168.636 174.215 162.405 173.54L164.361 172.216C164.361 172.216 153.9 173.196 150.984 170.861C148.068 168.528 147.028 167.145 147.028 167.145Z" fill="#1D2A30"/>
<path d="M171.695 188.828C171.695 188.828 168.852 188.407 161.011 189.029C162.116 191.312 163.983 193.1 167.996 192.744C172.009 192.389 171.695 188.828 171.695 188.828" fill="#1D2A30"/>
<path d="M165.987 191.039C167.923 190.867 169.359 191.197 170.452 191.832C169.915 192.291 169.12 192.641 168 192.74C166.063 192.912 164.637 192.592 163.544 191.948C164.081 191.488 164.865 191.139 165.987 191.039" fill="#BB2024"/>
<path d="M171.333 188.789C171.15 189.309 170.97 189.831 170.197 190.056C168.573 190.296 164.354 190.164 163.212 190.019C162.484 189.957 161.85 189.761 161.349 189.003C167.389 188.537 170.369 188.703 171.333 188.789Z" fill="white"/>
<path d="M162.835 254.667L151.865 241.969L144.132 267.788C144.132 267.788 148.38 277.248 148.535 276.784C148.689 276.32 162.835 254.667 162.835 254.667Z" fill="#4870C0"/>
<path d="M161.393 254.988L151.865 244.332L146.436 243.065L144.877 265.296L151.157 269.669L161.393 254.988" fill="#4870C0"/>
<path d="M160.68 254.191L156.066 253.171L148.557 243.56L151.865 244.332L160.68 254.191Z" fill="#C7D9F2"/>
<path d="M146.265 240.625L156.066 253.171L162.834 254.667L152.524 288.936L142.732 289.967L136.542 275.737L146.265 240.625Z" fill="#4870C0"/>
<path d="M148.295 289.381L155.699 255.229L145.117 244.773L146.265 240.625L156.067 253.171L162.835 254.667L152.665 288.468L152.661 288.479L152.524 288.936L148.295 289.381" fill="#658ACF"/>
<path d="M155.699 255.229L143.764 243.436L138.085 269.783C138.085 269.783 143.064 278.879 143.183 278.404C143.3 277.929 155.699 255.229 155.699 255.229" fill="#4870C0"/>
<path d="M155.699 255.229L153.513 254.925L143.949 245.789L143.279 245.688L143.764 243.436L155.699 255.229Z" fill="#26489D"/>
<path d="M154.286 255.664L143.949 245.789L138.438 244.956L138.633 267.24L145.237 271.105L154.286 255.664" fill="#4870C0"/>
<path d="M153.513 254.925L148.833 254.272L140.592 245.283L143.949 245.789L153.513 254.925" fill="#C7D9F2"/>
<path d="M138.076 242.537L148.833 254.272L155.699 255.229L148.116 290.205L138.435 292.004L131.146 278.304L138.076 242.537" fill="#4870C0"/>
<path d="M138.435 292.004L131.146 278.304L132.791 269.813C135.153 270.36 137.532 270.765 139.963 271.091L141.499 265.037C139.119 263.988 136.693 262.887 134.359 261.723L137.653 244.716C138.128 244.38 138.617 244.032 139.116 243.672L148.833 254.272L155.699 255.229L148.116 290.205L138.435 292.004" fill="#395EB4"/>
<path d="M146.553 229.329C142.84 233.099 139.036 237.015 135.409 240.911C133.579 242.852 131.805 244.833 130.089 246.801C128.377 248.764 126.755 250.787 125.392 252.707C125.052 253.187 124.752 253.649 124.465 254.101C124.211 254.513 123.948 255.011 123.836 255.216C123.872 255.072 123.883 254.7 123.813 254.455C123.742 254.199 123.631 254.153 123.664 254.283C123.698 254.548 124.255 255.272 124.993 255.921C125.732 256.599 126.658 257.301 127.66 257.957C131.713 260.597 136.697 262.92 141.499 265.037L139.963 271.091C134.175 270.317 128.679 269.081 123.003 266.587C121.59 265.937 120.157 265.215 118.703 264.232C117.268 263.22 115.743 262.068 114.334 259.983C113.65 258.944 112.997 257.604 112.746 255.98C112.467 254.373 112.688 252.6 113.205 251.173C113.599 250.101 113.949 249.368 114.344 248.568C114.731 247.823 115.127 247.101 115.529 246.425C118.774 241.097 122.373 236.805 126.076 232.491C129.821 228.236 133.641 224.228 137.761 220.291L146.553 229.329Z" fill="#F57473"/>
<path d="M146.428 216.975C133.376 214.329 117.544 238.999 117.544 238.999L130.714 249.368C130.714 249.368 141.984 242.336 149.81 235.083C158.008 227.484 155.106 218.733 146.428 216.975Z" fill="#1D2A30"/>
<path d="M130.714 249.368L129.028 248.04L119.512 240.548L117.544 238.999C117.544 238.999 131.805 216.776 144.416 216.776C145.092 216.776 145.766 216.84 146.428 216.975C151.555 218.013 154.666 221.493 154.663 225.735C154.66 228.58 153.256 231.768 150.118 234.792C150.016 234.889 149.914 234.987 149.81 235.083C148.584 236.217 147.276 237.347 145.939 238.445L145.938 238.447C143.651 240.324 141.284 242.109 139.116 243.672C138.618 244.032 138.128 244.38 137.654 244.716C133.695 247.508 130.714 249.368 130.714 249.368" fill="#45555C"/>
<path d="M138.179 263.825L150.428 262.536L149.831 273.287C149.831 273.287 141.395 275.392 137.252 269.537L138.179 263.825" fill="#F47272"/>
<path d="M158.557 265.819L156.193 273.725L149.831 273.287L150.428 262.536L158.557 265.819Z" fill="#F47272"/>
<path d="M178.276 210.175C178.276 210.175 205.317 235.669 219.671 270.483L222.408 268.064C222.408 268.064 205.317 231.801 182.955 209.611L178.276 210.175Z" fill="#4870C0"/>
<path d="M332.433 58.4307H294.129C287.615 58.4307 282.333 63.712 282.333 70.2254V103.561C282.333 110.075 287.615 115.356 294.129 115.356H309.279L315.95 125.881L317.284 115.356H332.433C338.947 115.356 344.228 110.075 344.228 103.561V70.2254C344.228 63.712 338.947 58.4307 332.433 58.4307" fill="#4870C0"/>
<path d="M315.95 125.881L309.279 115.356H294.129C287.615 115.356 282.333 110.075 282.333 103.561V70.2254C282.333 63.712 287.615 58.4307 294.129 58.4307H332.433C338.947 58.4307 344.228 63.712 344.228 70.2254V103.561C344.228 107.347 342.445 110.716 339.673 112.873C339.564 112.959 339.452 113.041 339.34 113.124C337.399 114.528 335.013 115.356 332.433 115.356H328.429H317.284L315.95 125.881" fill="#C7D9F2"/>
<path d="M332.292 86.7507C332.292 97.2493 323.78 105.761 313.281 105.761C302.781 105.761 294.271 97.2493 294.271 86.7507C294.271 76.2507 302.781 67.7387 313.281 67.7387C323.78 67.7387 332.292 76.2507 332.292 86.7507Z" fill="#4870C0"/>
<path d="M311.285 95.2413C310.773 95.2413 310.285 95.016 309.953 94.6253L302.495 85.8373C301.871 85.1013 301.961 83.9987 302.696 83.3747C303.431 82.752 304.533 82.84 305.159 83.576L311.285 90.7947L321.404 78.8747C322.028 78.1373 323.132 78.0493 323.865 78.6733C324.601 79.296 324.692 80.4 324.068 81.1347L312.617 94.6253C312.285 95.016 311.799 95.2413 311.285 95.2413Z" fill="white"/>
<path d="M415.693 244.691C421.121 248.237 410.498 263.411 398.19 261.232C385.882 259.055 387.344 249.305 389.576 245.683C391.806 242.059 403.13 236.483 415.693 244.691Z" fill="#4870C0"/>
<path d="M413.259 255.476C409.399 249.127 402.167 243.255 400.036 241.6C400.927 241.059 402.108 240.707 403.673 240.707C406.376 240.707 410.221 241.757 415.693 244.691C416.693 245.344 417.148 246.392 417.149 247.652C417.151 249.921 415.68 252.88 413.259 255.476M415.007 244.255C414.532 243.965 413.828 243.555 412.948 243.099C413.628 243.444 414.316 243.829 415.007 244.255Z" fill="#2E53AC"/>
<path d="M399.429 241.139C399.429 241.139 414.015 251.895 415.597 261.232C417.18 270.569 398.981 277.913 385.795 276.352C372.608 274.789 361.004 251.524 361.004 251.524C361.004 251.524 386.691 252.06 399.429 241.139" fill="#4870C0"/>
<path d="M389.495 276.563C388.232 276.563 386.993 276.495 385.795 276.352C382.639 275.979 379.572 274.36 376.733 272.116C376.359 266.871 375.988 261.98 375.655 257.716C382.371 256.333 391.972 253.389 397.312 247.357C397.312 247.357 397.247 246.381 397.551 245.176C398.8 247.547 399.245 248.908 399.245 248.908L401.004 243.741C400.619 243.068 400.224 242.403 399.815 241.743C399.887 241.695 399.96 241.647 400.036 241.6C402.808 243.753 414.209 253.039 415.597 261.232C415.661 261.613 415.693 261.992 415.693 262.367C415.701 270.323 401.557 276.563 389.495 276.563" fill="#395EB4"/>
<path d="M397.312 247.357C397.312 247.357 396.45 234.372 415.694 244.691C415.694 244.691 406.863 238.688 398.571 239.816C390.279 240.944 381.634 249.771 372.52 248.908C363.408 248.047 368.179 258.851 368.179 258.851C368.179 258.851 388.52 257.287 397.312 247.357Z" fill="#4870C0"/>
<path d="M358.304 185.692C359.22 183.561 360.27 181.195 361.187 178.901C362.123 176.587 363.055 174.267 363.946 171.936C365.712 167.276 367.358 162.577 368.702 157.871L369.187 156.155C369.28 155.835 369.371 155.444 369.436 154.999C369.566 154.109 369.654 153.059 369.654 151.956C369.64 149.74 369.478 147.336 369.179 144.911C368.607 140.06 367.723 134.981 366.815 130.04L373.02 127.783C375.54 132.628 377.571 137.529 379.152 142.825C379.918 145.473 380.592 148.2 380.968 151.156C381.151 152.64 381.287 154.189 381.228 155.887C381.199 156.733 381.119 157.631 380.963 158.583L380.582 160.659C379.579 166.056 378.11 171.271 376.426 176.388C375.562 178.937 374.651 181.468 373.639 183.957C372.602 186.468 371.614 188.872 370.335 191.44L358.304 185.692" fill="#F8A461"/>
<path d="M353.383 186.492C359.319 182.349 364.348 171.312 364.348 171.312L376.541 178.8C376.541 178.8 370.913 191.501 369.685 199.739C368.939 204.741 353.383 186.492 353.383 186.492" fill="#1D2A30"/>
<path d="M369.327 200.457C369.509 200.321 369.633 200.085 369.685 199.739C369.899 198.305 370.245 196.737 370.673 195.124C370.673 195.124 370.675 195.125 370.675 195.127C370.243 196.735 369.904 198.307 369.689 199.733C369.637 200.084 369.513 200.321 369.327 200.457" fill="#BDBCBA"/>
<path d="M369.256 200.503C368.201 197.244 367.06 194.18 365.848 191.557L365.781 191.504C365.7 191.327 365.618 191.151 365.537 190.976C366.793 191.717 368.864 193.108 370.673 195.124C370.245 196.737 369.898 198.305 369.685 199.739C369.633 200.085 369.509 200.321 369.326 200.457C369.304 200.475 369.28 200.489 369.256 200.503Z" fill="#182124"/>
<path d="M347.468 438.616L356.236 439.102L360.95 418.996L352.182 418.509L347.468 438.616" fill="#F8A461"/>
<path d="M356.352 437.111L349.096 430.424C348.834 430.18 348.45 430.166 348.175 430.39L342.058 435.368C341.423 435.885 341.416 436.92 342.035 437.471C344.604 439.759 345.96 440.732 349.151 443.673C351.114 445.483 356.564 450.883 359.275 453.38C361.926 455.824 364.599 453.332 363.695 452.048C359.638 446.295 357.451 441.504 357.066 438.502C356.996 437.96 356.738 437.465 356.352 437.111Z" fill="#1D2A30"/>
<path d="M358.52 429.365L358.561 429.189L358.52 429.365ZM349.751 428.878H349.747L350.187 427.004H350.191L349.751 428.878" fill="#CECDCC"/>
<path d="M358.52 429.365L349.75 428.878L350.19 427.004L359.044 427.125L358.561 429.189L358.52 429.365" fill="#DE8546"/>
<path d="M361.381 187.331C361.381 187.331 373.693 202.681 374.301 240.587C360.573 244.029 346.267 244.909 339.585 246.585C336.636 232.36 334.58 223.635 320.604 196.425C320.604 196.425 327.352 193.069 334.704 190.844C340.455 189.104 345.179 187.721 350.413 186.905C357.315 185.829 361.381 187.331 361.381 187.331" fill="#F8A461"/>
<path d="M331.824 172.765C334.083 177.572 337.395 186.585 334.704 190.844C334.704 190.844 337.371 195.625 346.764 193.269C357.091 190.68 350.414 186.905 350.414 186.905C344.44 186.973 343.536 182.755 343.532 178.581L331.824 172.765" fill="#F8A461"/>
<path d="M334.709 190.848C340.46 189.101 345.179 187.72 350.416 186.909C350.765 186.857 351.115 186.804 351.464 186.751C353.316 188.815 354.552 192.389 352.891 198.503C352.891 198.503 337.719 196.411 332.673 191.499C333.341 191.273 334.024 191.055 334.709 190.848" fill="#F8A461"/>
<path d="M343.74 181.487C343.725 181.403 343.712 181.317 343.7 181.231C343.713 181.317 343.726 181.403 343.742 181.487C343.741 181.487 343.741 181.487 343.74 181.487ZM343.526 178.579L341.918 177.78L343.526 178.577C343.526 178.577 343.526 178.577 343.526 178.579" fill="#CECDCC"/>
<path d="M343.304 181.508C341.072 181.508 337.909 179.956 337.165 177.897C336.771 176.801 336.547 175.708 336.599 175.139L341.919 177.78L343.527 178.579C343.525 179.476 343.569 180.375 343.7 181.231C343.712 181.317 343.725 181.403 343.74 181.487C343.6 181.501 343.453 181.508 343.304 181.508" fill="#DE8546"/>
<path d="M374.319 241.501C374.319 241.501 380.307 309.24 379.36 336.011C378.375 363.856 360.167 427.141 360.167 427.141L348.293 426.977C348.293 426.977 358.151 365.204 357.48 337.835C356.751 307.996 348.203 241.139 348.203 241.139L374.319 241.501" fill="#4870C0"/>
<path d="M360.167 427.141L359.044 427.125L350.191 427.004L348.293 426.977C348.293 426.977 357.516 369.18 357.513 340.627C357.513 339.661 357.503 338.729 357.48 337.835C357.299 330.381 356.628 320.62 355.725 310.168C356.012 313.473 356.275 316.709 356.507 319.825C359.436 309.127 365.737 282.204 360.835 263.972C362.345 254.801 363.504 247.463 364.069 243.836L368.489 243.511L368.493 243.555C368.501 243.661 368.643 243.74 368.816 243.74C368.831 243.74 368.844 243.74 368.859 243.739L369.824 243.668C370.009 243.655 370.156 243.555 370.156 243.443C370.156 243.439 370.156 243.435 370.156 243.432L370.153 243.388L374.456 243.071C375.271 252.545 379.461 302.581 379.461 329.512C379.461 331.869 379.429 334.051 379.36 336.011C378.992 346.388 376.233 361.685 372.916 376.797C372.892 376.909 372.868 377.02 372.843 377.131C367.271 402.452 360.167 427.141 360.167 427.141Z" fill="#658ACF"/>
<path d="M347.259 427.388L361.191 427.582L362.275 423.152L346.68 422.392L347.259 427.388" fill="#4870C0"/>
<path d="M355.725 310.168C355.416 306.596 355.08 302.943 354.728 299.275C354.728 299.272 354.728 299.273 354.728 299.271C355.081 302.941 355.417 306.595 355.725 310.168Z" fill="#CECDCC"/>
<path d="M356.507 319.825C356.275 316.709 356.012 313.473 355.725 310.168C355.417 306.595 355.081 302.941 354.728 299.271C356.981 286.979 359.132 274.309 360.835 263.972C365.737 282.204 359.436 309.127 356.507 319.825" fill="#4B70C0"/>
<path d="M272.137 359.245L274.984 367.555L295.269 364.015L292.424 355.708L272.137 359.245" fill="#F8A461"/>
<path d="M277.368 367.852L276.815 358.003C276.795 357.643 276.528 357.335 276.172 357.257L268.259 355.56C267.439 355.385 266.707 356.024 266.767 356.852C267.02 360.291 267.315 361.96 267.559 366.292C267.708 368.957 267.859 376.592 268.065 380.273C268.267 383.872 271.948 384.417 272.195 382.908C273.297 376.147 275.079 371.449 276.907 369.278C277.236 368.887 277.397 368.377 277.368 367.852" fill="#1D2A30"/>
<path d="M284.807 365.84L286.869 365.48L284.807 365.84ZM281.961 357.532L281.96 357.528L284.088 357.157L284.091 357.161L281.961 357.532Z" fill="#B3B2B1"/>
<path d="M284.807 365.84L281.961 357.532L284.091 357.161L287.927 365.296L286.869 365.48L284.807 365.84" fill="#DE8546"/>
<path d="M364.453 241.364C364.453 241.364 353.752 311.032 346.78 337.205C339.527 364.429 288.281 366.049 288.281 366.049L283.217 355.308C283.217 355.308 313.225 347.767 326.387 329.965C332.377 300.621 338.337 241.003 338.337 241.003L364.453 241.364" fill="#4870C0"/>
<path d="M288.281 366.049L287.927 365.296L284.091 357.161L283.217 355.308C283.217 355.308 313.225 347.767 326.387 329.965C331.368 305.563 336.329 260.224 337.859 245.645C337.965 245.7 338.103 245.733 338.253 245.733C338.277 245.733 338.303 245.732 338.328 245.729L339.759 245.624L339.763 245.668C339.771 245.775 339.915 245.855 340.089 245.855C340.101 245.855 340.115 245.855 340.128 245.853L341.093 245.783C341.279 245.768 341.425 245.668 341.427 245.556C341.427 245.552 341.427 245.548 341.425 245.545L341.423 245.503L354.124 244.568L354.128 244.611C354.136 244.719 354.277 244.797 354.451 244.797C354.465 244.797 354.479 244.797 354.493 244.796L355.459 244.725C355.644 244.712 355.791 244.612 355.792 244.499C355.792 244.495 355.792 244.492 355.791 244.488L355.788 244.445L364.069 243.836C363.504 247.463 362.345 254.801 360.835 263.972C359.132 274.309 356.981 286.979 354.728 299.271C354.728 299.273 354.728 299.272 354.728 299.275C352.029 313.996 349.183 328.184 346.78 337.205C345.539 341.861 343.011 345.769 339.673 349.048C339.563 349.156 339.452 349.263 339.34 349.371C323.017 364.951 288.281 366.049 288.281 366.049Z" fill="#658ACF"/>
<path d="M282.625 354.307L287.02 367.528L291.742 367.644L287.36 352.732L282.625 354.307" fill="#4870C0"/>
<path d="M277.924 372.727C277.934 372.889 277.918 373.019 277.87 373.109L277.651 373.229C277.37 373.235 277.147 373.14 276.968 372.943C276.456 372.376 276.291 370.927 276.507 369.007C277.156 370.252 277.878 371.896 277.924 372.727V372.727ZM276.008 371.031C276.058 371.902 276.239 372.717 276.672 373.197C276.947 373.502 277.298 373.653 277.712 373.647C277.96 373.643 278.146 373.535 278.248 373.336C278.78 372.305 276.787 368.677 276.558 368.268L276.336 368.143L276.17 368.295C276.063 369.028 275.955 370.065 276.008 371.031" fill="#4870C0"/>
<path d="M279.865 370.685V370.811C279.848 371.187 279.697 371.2 279.648 371.205C279.052 371.257 277.475 369.744 276.765 368.632C277.464 368.784 278.905 369.182 279.553 369.948C279.748 370.18 279.851 370.423 279.865 370.685ZM276.168 368.335L276.192 368.421C276.725 369.501 278.747 371.708 279.737 371.619C279.972 371.599 280.257 371.453 280.284 370.883C280.304 370.46 280.161 370.064 279.859 369.707C278.872 368.536 276.484 368.16 276.383 368.144L276.199 368.219L276.168 368.335" fill="#4870C0"/>
<path d="M360.117 440.197L360.352 440.515L360.301 440.775C360.129 440.999 359.924 441.105 359.673 441.102C358.957 441.094 357.837 440.176 356.625 438.619C357.904 439.011 359.506 439.633 360.117 440.197V440.197ZM357.736 440.472C358.378 441.064 359.061 441.511 359.668 441.519C360.054 441.523 360.377 441.359 360.632 441.028C360.782 440.832 360.822 440.608 360.746 440.383C360.356 439.221 356.568 438.163 356.138 438.045L355.913 438.128L355.916 438.369C356.364 438.984 357.025 439.817 357.736 440.472" fill="#4870C0"/>
<path d="M359.895 437.199L359.983 437.288C360.235 437.575 360.151 437.702 360.123 437.745C359.789 438.251 357.747 438.392 356.524 438.145C357.065 437.709 358.241 436.864 359.183 436.912C359.467 436.927 359.7 437.02 359.895 437.199V437.199ZM355.944 438.399L356.019 438.444C357.109 438.805 359.916 438.816 360.471 437.975C360.601 437.776 360.677 437.447 360.293 437.012C360.009 436.694 359.643 436.517 359.203 436.497C357.768 436.424 356.017 438.025 355.944 438.094L355.881 438.289L355.944 438.399" fill="#4870C0"/>
<path d="M337.976 242.196L337.656 245.296C337.577 245.541 337.916 245.76 338.328 245.729L374.939 243.036C375.259 243.012 375.495 242.843 375.477 242.651L375.209 239.593C375.191 239.381 374.879 239.224 374.527 239.249L338.505 241.899C338.241 241.919 338.027 242.039 337.976 242.196" fill="#4870C0"/>
<path d="M338.254 245.733C337.915 245.732 337.643 245.565 337.646 245.365C337.646 245.343 337.65 245.32 337.656 245.296L337.728 244.601L339.636 244.068L339.759 245.624L338.328 245.729C338.303 245.732 338.278 245.733 338.254 245.733Z" fill="#C7D9F2"/>
<path d="M341.423 245.503L341.273 243.612L350.591 241.011L353.824 240.772L354.124 244.568L341.423 245.503ZM355.788 244.445L355.488 240.649L368.189 239.716L368.489 243.511L355.788 244.445ZM370.153 243.388L369.853 239.593L374.527 239.249C374.553 239.248 374.579 239.247 374.603 239.247C374.923 239.247 375.192 239.396 375.209 239.593L375.477 242.651C375.479 242.656 375.479 242.663 375.479 242.668C375.48 242.853 375.248 243.013 374.939 243.036L370.153 243.388" fill="#C7D9F2"/>
<path d="M341.093 245.783L340.128 245.853C339.936 245.867 339.772 245.783 339.763 245.668L339.448 241.692C339.44 241.576 339.589 241.469 339.781 241.455L340.747 241.385C340.939 241.371 341.103 241.453 341.112 241.569L341.425 245.545C341.435 245.661 341.285 245.768 341.093 245.783Z" fill="#4870C0"/>
<path d="M369.824 243.668L368.859 243.739C368.667 243.753 368.501 243.669 368.493 243.555L368.179 239.579C368.169 239.463 368.32 239.356 368.512 239.341L369.476 239.272C369.668 239.257 369.833 239.34 369.843 239.456L370.156 243.432C370.165 243.548 370.016 243.655 369.824 243.668" fill="#4870C0"/>
<path d="M355.459 244.725L354.493 244.796C354.301 244.811 354.136 244.727 354.128 244.611L353.813 240.636C353.805 240.52 353.955 240.413 354.147 240.399L355.111 240.328C355.304 240.313 355.468 240.397 355.477 240.513L355.791 244.488C355.8 244.605 355.651 244.712 355.459 244.725" fill="#4870C0"/>
<path d="M340.089 245.855C339.914 245.855 339.77 245.775 339.762 245.668L339.636 244.068L341.273 243.612L341.425 245.545C341.426 245.548 341.426 245.552 341.426 245.556C341.425 245.668 341.278 245.768 341.093 245.783L340.128 245.853C340.114 245.855 340.101 245.855 340.089 245.855" fill="#658ACF"/>
<path d="M368.816 243.74C368.643 243.74 368.501 243.661 368.493 243.555L368.489 243.511L368.189 239.716L368.179 239.579C368.179 239.575 368.179 239.572 368.179 239.568C368.179 239.456 368.325 239.356 368.512 239.341L369.476 239.272C369.491 239.271 369.505 239.269 369.52 239.269C369.692 239.269 369.833 239.349 369.843 239.456L370.156 243.432C370.156 243.435 370.156 243.439 370.156 243.443C370.156 243.555 370.009 243.655 369.824 243.668L368.859 243.739C368.844 243.74 368.831 243.74 368.816 243.74Z" fill="#658ACF"/>
<path d="M354.451 244.797C354.277 244.797 354.136 244.719 354.128 244.611L354.124 244.568L353.824 240.772L353.813 240.636C353.813 240.632 353.813 240.629 353.813 240.625C353.815 240.513 353.96 240.413 354.147 240.399L355.111 240.328C355.125 240.327 355.14 240.327 355.153 240.327C355.327 240.327 355.469 240.407 355.477 240.513L355.791 244.488C355.792 244.492 355.792 244.495 355.792 244.499C355.791 244.612 355.644 244.712 355.459 244.725L354.493 244.796C354.479 244.797 354.465 244.797 354.451 244.797Z" fill="#658ACF"/>
<path d="M327.673 147.916C322.132 151.135 313.189 160.281 322.811 170.723C332.432 181.164 351.968 170.157 348.617 157.287C345.268 144.416 335.573 143.328 327.673 147.916" fill="#1D2A30"/>
<path d="M324.176 165.373C328.167 173.121 329.692 176.487 335.511 178.805C344.265 182.292 352.909 175.696 351.313 166.911C349.876 159.004 343.591 147.661 334.401 147.92C325.349 148.176 320.185 157.625 324.176 165.373Z" fill="#F8A461"/>
<path d="M325.719 157.093C329.273 158.631 330.047 167.251 326.985 170.723C320.857 170.784 315.107 152.505 325.719 157.093Z" fill="#1D2A30"/>
<path d="M343.389 160.84C343.389 160.84 345.717 163.148 347.521 163.963C347.016 165.139 345.4 165.413 345.4 165.413L343.389 160.84Z" fill="#F5782F"/>
<path d="M325.229 173.624C326.478 174.929 328.216 175.536 329.7 175.544C331.933 175.556 332.464 173.416 331.352 171.616C330.35 169.995 327.981 168.036 325.976 168.888C324 169.728 323.801 172.132 325.229 173.624Z" fill="#F8A461"/>
<path d="M334.208 161.704C334.378 161.659 334.506 161.508 334.515 161.324C334.619 159.403 336.708 158.069 336.728 158.056C336.923 157.933 336.982 157.676 336.86 157.483C336.739 157.288 336.482 157.228 336.286 157.351C336.186 157.415 333.811 158.932 333.684 161.28C333.672 161.508 333.848 161.704 334.078 161.717L334.208 161.704" fill="#1D2A30"/>
<path d="M345.848 154.325C345.985 154.288 346.1 154.183 346.141 154.036C346.204 153.815 346.074 153.585 345.854 153.523C343.64 152.897 342.177 154.144 342.117 154.197C341.944 154.349 341.926 154.612 342.077 154.785C342.228 154.957 342.489 154.976 342.664 154.825C342.712 154.784 343.86 153.824 345.628 154.323L345.848 154.325" fill="#1D2A30"/>
<path d="M346.509 167.508C346.129 168.848 345.927 171.28 345.927 171.28C345.703 171.301 345.479 171.323 345.255 171.332C342.216 171.544 340.735 170.639 340.015 169.571C339.624 168.984 339.467 168.341 339.409 167.812C339.335 167.2 339.421 166.748 339.421 166.748C341.101 167.597 343.949 167.617 345.472 167.564C346.109 167.549 346.509 167.508 346.509 167.508" fill="#1D2A30"/>
<path d="M345.472 167.564L345.272 168.672C342.408 168.865 340.365 168.617 339.409 167.812C339.335 167.2 339.421 166.748 339.421 166.748C341.101 167.597 343.949 167.617 345.472 167.564" fill="white"/>
<path d="M345.255 171.332C342.216 171.544 340.735 170.639 340.015 169.571C341.055 169.537 342.309 169.615 343.437 170.003C344.301 170.297 344.865 170.805 345.255 171.332" fill="#F03E4C"/>
<path d="M339.24 160.837L340.116 160.108C340.116 160.108 339.904 161.337 339.088 161.309L339.079 161.32C337.444 160.987 336.983 162.531 336.983 162.531C336.96 160.357 338.647 160.664 339.24 160.837" fill="#1D2A30"/>
<path d="M346.151 157.852L347.027 157.123C347.027 157.123 346.815 158.353 346 158.324L345.989 158.335C344.356 158.003 343.893 159.547 343.893 159.547C343.871 157.372 345.557 157.677 346.151 157.852" fill="#1D2A30"/>
<path d="M328.455 163.376C328.455 163.376 331.252 157.853 328.769 153.008C328.769 153.008 330.693 154.692 331.251 158.56C331.251 158.56 332.979 156.289 335.092 154.779C335.092 154.779 334.531 151.476 333.163 149.627C333.163 149.627 335.384 150.881 336.056 154.469C336.056 154.469 336.316 151.751 334.859 149.551C334.859 149.551 337.321 151.103 337.931 153.643L340.901 152.537C340.901 152.537 340.241 149.789 338.853 149.032C338.853 149.032 341.052 150.229 342.417 151.832C342.417 151.832 345.193 151.637 345.837 152.459C345.837 152.459 344.473 148.625 339.544 147.288C339.544 147.288 343.749 147.596 346.32 149.676C346.32 149.676 342.573 143.472 332.356 146.123C322.139 148.773 320.059 156.075 319.876 159.133C319.693 162.192 328.455 163.376 328.455 163.376" fill="#1D2A30"/>
<path d="M322.811 153.348C322.811 153.348 316.256 147.932 306.763 151.801C297.268 155.669 302.191 175.991 313.092 184.291C323.993 192.592 329.916 187.491 329.916 187.491C329.916 187.491 324.023 189.92 318.556 183.344C318.556 183.344 323.217 187.045 329.916 185.388L326.784 184.592L329.916 183.435C329.916 183.435 325.4 184.316 322.059 181.509C322.059 181.509 325.717 182.557 328.108 181.509C328.108 181.509 315.905 180.968 312.564 169.725C309.224 158.481 321.269 160.161 321.269 160.161L322.811 153.348" fill="#1D2A30"/>
<path d="M366.203 128.663L362.311 122.524L371.204 123.337C371.204 123.337 373.461 128.505 371.203 131.373L370.343 131.271C368.64 131.068 367.12 130.109 366.203 128.663" fill="#F8A461"/>
<path d="M361.88 116.007L369.355 115.556L371.204 123.337L362.311 122.524L361.88 116.007Z" fill="#F8A461"/>
<path d="M376.995 233.639L337.408 244.691C335.008 235.571 331.928 227.252 329.035 220.171C327.181 215.597 325.395 211.544 323.928 208.131C323.875 207.999 323.821 207.864 323.755 207.731C321.048 201.424 319.488 197.397 320.608 196.424C323.261 194.117 332.688 190.665 332.688 190.665C332.688 190.665 344.288 197.437 351.088 194.571C355.635 192.651 352.408 186.571 352.408 186.571C357.555 182.424 359.795 182.691 362.315 185.612C363.502 186.999 364.662 189.037 365.782 191.504C371.195 203.491 375.515 225.571 376.688 231.904C376.768 232.317 376.835 232.677 376.875 232.945V232.957C376.901 233.104 376.928 233.224 376.941 233.317C376.981 233.531 376.995 233.639 376.995 233.639" fill="#1D2A30"/>
<path d="M376.769 232.336C376.744 232.201 376.717 232.056 376.688 231.904C376.595 231.4 376.48 230.795 376.348 230.104H376.372C376.536 231.005 376.669 231.759 376.769 232.336" fill="#F9F9F9"/>
<path d="M376.372 230.104H376.348C375.83 227.397 375.022 223.36 373.986 218.775C374.028 218.808 374.067 218.837 374.11 218.871C375.114 223.42 375.882 227.419 376.372 230.104M373.14 214.639C373.092 214.604 373.047 214.572 372.998 214.537C372.972 214.435 372.948 214.332 372.923 214.229H373.043C373.076 214.367 373.108 214.504 373.14 214.639ZM372.246 211.491C371.315 207.82 370.278 204.065 369.156 200.551C369.191 200.537 369.224 200.521 369.256 200.504C370.351 203.883 371.352 207.469 372.246 210.989V211.491Z" fill="#FBFCFC"/>
<path d="M373.042 214.229H372.922C372.704 213.325 372.477 212.411 372.245 211.491V210.989C372.521 212.079 372.788 213.161 373.042 214.229Z" fill="#FEFEFF"/>
<path d="M369.156 200.551C369.156 200.551 369.156 200.551 369.156 200.549C369.191 200.536 369.224 200.521 369.256 200.503V200.504C369.224 200.521 369.191 200.537 369.156 200.551Z" fill="#BDC1C2"/>
<path d="M369.156 200.549C368.097 197.232 366.965 194.127 365.781 191.504L365.848 191.557C367.06 194.18 368.201 197.244 369.256 200.503C369.224 200.521 369.191 200.536 369.156 200.549Z" fill="#BBBEBF"/>
<path d="M337.408 244.691C335.008 235.571 331.928 227.252 329.035 220.171C329.981 216.881 330.024 213.623 329.809 211.112C330.328 210.083 330.689 209.063 330.789 208.117H330.795C330.795 208.117 330.796 208.073 330.801 207.991C330.807 207.923 330.811 207.856 330.813 207.788C330.913 206.212 331.407 199.348 332.699 195.375C350.867 202.909 364.221 211.108 373.985 218.775C375.021 223.36 375.829 227.397 376.348 230.104C376.48 230.795 376.595 231.4 376.688 231.904C376.717 232.056 376.744 232.201 376.769 232.336C376.809 232.568 376.845 232.772 376.875 232.945V232.957C376.901 233.104 376.928 233.224 376.941 233.317C376.981 233.531 376.995 233.639 376.995 233.639L341.273 243.612L339.636 244.068L337.728 244.601L337.408 244.691M372.997 214.537C357.593 203.543 341.3 196.496 333.535 193.463C333.585 193.384 333.636 193.308 333.688 193.237C333.688 193.237 340.728 196.665 346.872 196.665C348.469 196.665 350.005 196.433 351.341 195.851C357.835 193.037 354.808 187.491 354.808 187.491C354.808 187.491 360.995 188.037 365.781 191.504C366.965 194.127 368.097 197.232 369.156 200.549C369.156 200.551 369.156 200.551 369.156 200.551C370.277 204.065 371.315 207.82 372.245 211.491C372.477 212.411 372.704 213.325 372.923 214.229C372.948 214.332 372.972 214.435 372.997 214.537" fill="#BDC1C2"/>
<path d="M329.035 220.171C328.832 219.672 328.631 219.179 328.429 218.691C327.951 217.527 327.477 216.399 327.015 215.308C328.057 214.009 329.085 212.551 329.809 211.112C330.024 213.623 329.981 216.881 329.035 220.171" fill="#93989A"/>
<path d="M330.648 206.089C329.84 207.444 329.152 208.493 328.347 209.632C327.565 210.745 326.763 211.835 325.937 212.912C324.273 215.055 322.497 217.124 320.569 219.097C318.647 221.073 316.595 222.975 314.323 224.717C312.069 226.476 309.605 228.093 306.825 229.408L306.304 229.655L305.829 229.872C305.397 230.047 305.041 230.189 304.52 230.3C303.564 230.525 302.412 230.533 301.465 230.312C301.224 230.259 300.983 230.196 300.749 230.121C300.547 230.052 300.348 229.975 300.151 229.889C299.957 229.805 299.752 229.709 299.58 229.617L299.125 229.347C297.959 228.585 297.384 227.873 296.931 227.296C296.511 226.728 296.189 226.201 295.96 225.745C295.032 223.904 294.659 222.495 294.267 221.065C293.531 218.261 293.18 215.629 292.84 213.008C292.24 207.765 292.051 202.649 292.184 197.425L298.747 196.693C300.069 201.487 301.36 206.36 302.735 211.012C303.4 213.333 304.168 215.629 304.959 217.636C305.347 218.601 305.827 219.583 306.136 219.944L306.204 219.972C306.143 219.888 306.015 219.635 305.381 219.209L305.128 219.063C305.025 219.005 304.895 218.937 304.775 218.885C304.649 218.831 304.523 218.784 304.393 218.744C304.236 218.687 304.073 218.64 303.908 218.604C303.268 218.46 302.439 218.449 301.789 218.607C301.425 218.701 301.208 218.757 300.927 218.884L300.755 218.965L300.795 218.941L300.875 218.892L301.192 218.699C304.583 216.612 307.867 213.5 310.893 210.087C312.405 208.368 313.872 206.565 315.288 204.713C316 203.791 316.696 202.852 317.367 201.901L319.264 199.149L330.648 206.089" fill="#F8A461"/>
<path d="M321.393 196.035C317.877 197.293 311.72 206.899 311.72 206.899L322.894 219.767C322.894 219.767 331.189 212.112 330.805 207.271C330.404 202.228 325.406 194.599 321.393 196.035" fill="#1D2A30"/>
<path d="M328.892 191.747C328.892 191.747 381.312 209.264 401.004 243.741L399.245 248.908C399.245 248.908 388.753 216.856 326.834 193.031L328.892 191.747Z" fill="#4870C0"/>
<path d="M399.245 248.908C399.245 248.908 398.8 247.547 397.55 245.176C396.905 243.952 396.044 242.459 394.921 240.745C391.278 235.188 384.862 227.315 373.985 218.775C364.221 211.108 350.866 202.909 332.698 195.375C330.798 194.585 328.842 193.804 326.834 193.031L328.892 191.747C328.892 191.747 381.312 209.264 401.004 243.741L399.245 248.908Z" fill="#2E53AC"/>
<path d="M290.207 180.017L314.457 189.477L313.295 211.815L285.421 200.908L287.516 180.588L290.207 180.017" fill="#4870C0"/>
<path d="M313.295 211.815L309.575 210.359L311.676 209.743L313.353 190.395L305.276 189.975L305.844 208.899L301.653 207.259L292.181 203.553L285.421 200.908L287.516 180.588L290.207 180.017L314.457 189.477L313.701 204.007L313.447 208.887L313.295 211.815" fill="#395EB4"/>
<path d="M313.353 190.395L311.676 209.743L305.92 211.431L305.276 189.975L313.353 190.395Z" fill="#4870C0"/>
<path d="M305.92 211.431L305.276 189.975L313.353 190.395L311.676 209.743L309.575 210.359L305.92 211.431Z" fill="#C7D9F2"/>
<path d="M314.457 189.477L310.619 191.329L308.74 212.209L283.471 202.032L287.516 180.588L290.207 180.017L314.457 189.477" fill="#4870C0"/>
<path d="M304.471 216.344C303.855 214.668 303.263 212.851 302.735 211.012C301.36 206.36 300.069 201.487 298.747 196.693L292.184 197.425C292.051 202.649 292.24 207.765 292.84 213.008C293.18 215.629 293.531 218.261 294.267 221.065C294.659 222.495 295.032 223.904 295.96 225.745C296.189 226.201 296.511 226.727 296.931 227.296C297.384 227.873 297.959 228.585 299.125 229.347L299.58 229.617C299.752 229.709 299.957 229.805 300.151 229.889C300.348 229.975 300.547 230.052 300.749 230.121C300.983 230.196 301.223 230.259 301.465 230.312C302.412 230.533 303.564 230.525 304.52 230.3C305.041 230.189 305.397 230.047 305.829 229.872L306.305 229.655L306.825 229.408C307.316 229.176 307.785 228.924 308.256 228.673C308.256 228.673 305.761 215.299 304.471 216.344" fill="#F8A461"/>
<path d="M292.143 198.503L291.264 187.977L299.616 193.119C299.616 193.119 299.316 199.305 295.695 201.024L292.143 198.503Z" fill="#F8A461"/>
<path d="M295.26 180.921L302.021 185.604L299.616 193.119L291.264 187.977L295.26 180.921Z" fill="#F8A461"/>
<rect x="279" y="45" width="73" height="74" rx="10" fill="#0056CC"/>
<path d="M297.605 68.6132V94.3333H293.231V68.6132H297.605Z" fill="white"/>
<path d="M317.279 68.6132H321.636V85.8012C321.636 87.7561 321.217 89.393 320.381 90.712C319.545 92.031 318.406 93.0261 316.965 93.6974C315.537 94.3569 313.939 94.6866 312.173 94.6866C310.349 94.6866 308.723 94.3569 307.294 93.6974C305.865 93.0261 304.738 92.031 303.913 90.712C303.1 89.393 302.693 87.7561 302.693 85.8012V68.6132H307.05V85.8012C307.05 87.0377 307.259 88.0564 307.677 88.8572C308.096 89.6462 308.688 90.2292 309.455 90.606C310.222 90.9829 311.128 91.1713 312.173 91.1713C313.219 91.1713 314.119 90.9829 314.874 90.606C315.641 90.2292 316.234 89.6462 316.652 88.8572C317.07 88.0564 317.279 87.0377 317.279 85.8012V68.6132Z" fill="white"/>
<path d="M342.582 68.6132V70.945L332.44 94.3333H328.014L338.138 72.0049H324.999V68.6132H342.582Z" fill="white"/>
</svg>
