<svg width="45" height="45" viewBox="0 0 45 45" fill="none" xmlns="http://www.w3.org/2000/svg">
<rect width="45" height="45" rx="10" fill="#0056CC"/>
<path d="M11.4688 14.3594V30H8.77246V14.3594H11.4688Z" fill="white"/>
<path d="M23.5967 14.3594H26.2822V24.8115C26.2822 26.0003 26.0244 26.9958 25.5088 27.7979C24.9932 28.5999 24.2913 29.2051 23.4033 29.6133C22.5225 30.0143 21.5378 30.2148 20.4492 30.2148C19.3249 30.2148 18.3223 30.0143 17.4414 29.6133C16.5605 29.2051 15.8659 28.5999 15.3574 27.7979C14.8561 26.9958 14.6055 26.0003 14.6055 24.8115V14.3594H17.291V24.8115C17.291 25.5635 17.4199 26.1829 17.6777 26.6699C17.9355 27.1497 18.3008 27.5042 18.7734 27.7334C19.2461 27.9626 19.8047 28.0771 20.4492 28.0771C21.0938 28.0771 21.6488 27.9626 22.1143 27.7334C22.5869 27.5042 22.9521 27.1497 23.21 26.6699C23.4678 26.1829 23.5967 25.5635 23.5967 24.8115V14.3594Z" fill="white"/>
<path d="M39.1943 14.3594V15.7773L32.9424 30H30.2139L36.4551 16.4219H28.3555V14.3594H39.1943Z" fill="white"/>
</svg>
