<?xml version="1.0" encoding="UTF-8" standalone="no"?>
<!-- Created with Inkscape (http://www.inkscape.org/) -->

<svg
   version="1.1"
   id="svg2"
   xml:space="preserve"
   width="666.66669"
   height="496.81332"
   viewBox="0 0 666.66669 496.81332"
   sodipodi:docname="not-found.svg"
   inkscape:version="1.1.2 (0a00cf5339, 2022-02-04)"
   xmlns:inkscape="http://www.inkscape.org/namespaces/inkscape"
   xmlns:sodipodi="http://sodipodi.sourceforge.net/DTD/sodipodi-0.dtd"
   xmlns="http://www.w3.org/2000/svg"
   xmlns:svg="http://www.w3.org/2000/svg"><defs
     id="defs6" /><sodipodi:namedview
     id="namedview4"
     pagecolor="#ffffff"
     bordercolor="#666666"
     borderopacity="1.0"
     inkscape:pageshadow="2"
     inkscape:pageopacity="0.0"
     inkscape:pagecheckerboard="0"
     showgrid="false"
     inkscape:zoom="1.5740319"
     inkscape:cx="333.2207"
     inkscape:cy="248.08901"
     inkscape:window-width="1846"
     inkscape:window-height="1016"
     inkscape:window-x="0"
     inkscape:window-y="0"
     inkscape:window-maximized="1"
     inkscape:current-layer="g8" /><g
     id="g8"
     inkscape:groupmode="layer"
     inkscape:label="ink_ext_XXXXXX"
     transform="matrix(1.3333333,0,0,-1.3333333,0,496.81333)"><g
       id="g10"
       transform="scale(0.1)"><path
         d="m 0,449.129 h 5000 v 2.5 H 0 Z"
         style="fill:#e7e8e5;fill-opacity:1;fill-rule:nonzero;stroke:none"
         id="path12" /><path
         d="m 4167.79,290.672 h 331.22 v -2.5 h -331.22 v 2.5"
         style="fill:#e7e8e5;fill-opacity:1;fill-rule:nonzero;stroke:none"
         id="path14" /><path
         d="m 3225.27,263.539 h 86.93 v -2.5 h -86.93 v 2.5"
         style="fill:#e7e8e5;fill-opacity:1;fill-rule:nonzero;stroke:none"
         id="path16" /><path
         d="m 3965.86,383.531 h 191.92 v -2.5 h -191.92 v 2.5"
         style="fill:#e7e8e5;fill-opacity:1;fill-rule:nonzero;stroke:none"
         id="path18" /><path
         d="m 524.59,366.73 h 431.933 v -2.5 H 524.59 v 2.5"
         style="fill:#e7e8e5;fill-opacity:1;fill-rule:nonzero;stroke:none"
         id="path20" /><path
         d="m 1045.56,366.73 h 63.33 v -2.5 h -63.33 v 2.5"
         style="fill:#e7e8e5;fill-opacity:1;fill-rule:nonzero;stroke:none"
         id="path22" /><path
         d="m 1314.71,322.012 h 936.758 v 2.5 H 1314.71 Z"
         style="fill:#e7e8e5;fill-opacity:1;fill-rule:nonzero;stroke:none"
         id="path24" /><path
         d="m 439.152,3723.59 c -30.097,0 -54.582,-24.48 -54.582,-54.57 V 954.699 c 0,-30.097 24.485,-54.578 54.582,-54.578 H 2370.14 c 30.09,0 54.57,24.481 54.57,54.578 V 3669.02 c 0,30.09 -24.48,54.57 -54.57,54.57 H 439.152 M 2370.14,897.621 H 439.152 c -31.476,0 -57.082,25.598 -57.082,57.078 V 3669.02 c 0,31.46 25.606,57.07 57.082,57.07 H 2370.14 c 31.46,0 57.07,-25.61 57.07,-57.07 V 954.699 c 0,-31.48 -25.61,-57.078 -57.07,-57.078"
         style="fill:#e7e8e5;fill-opacity:1;fill-rule:nonzero;stroke:none"
         id="path26" /><path
         d="m 2602.12,3723.59 c -30.09,0 -54.57,-24.48 -54.57,-54.57 V 954.699 c 0,-30.097 24.48,-54.578 54.57,-54.578 H 4533.1 c 30.1,0 54.59,24.481 54.59,54.578 V 3669.02 c 0,30.09 -24.49,54.57 -54.59,54.57 H 2602.12 M 4533.1,897.621 H 2602.12 c -31.47,0 -57.07,25.598 -57.07,57.078 V 3669.02 c 0,31.46 25.6,57.07 57.07,57.07 H 4533.1 c 31.48,0 57.09,-25.61 57.09,-57.07 V 954.699 c 0,-31.48 -25.61,-57.078 -57.09,-57.078"
         style="fill:#e7e8e5;fill-opacity:1;fill-rule:nonzero;stroke:none"
         id="path28" /><path
         d="m 1378.91,409.57 h 0.01 -0.01 m 582.75,-283.269 c -38.67,0 -73.75,15.019 -99.04,42.469 -70.22,76.242 -24.42,190.91 29.65,293.031 47.54,89.801 123.23,207.648 231.37,360.281 197,278.038 471.85,628.988 737.64,968.368 209.31,267.25 407.6,520.44 564.26,732.69 -4.32,-4.73 -8.68,-9.5 -13.1,-14.34 -206.95,-226.79 -456.21,-515.61 -720.1,-821.38 -292.6,-339.05 -595.18,-689.639 -837.16,-950.721 -405.96,-437.98 -494.82,-465.308 -568.8,-455.59 -41.4,5.461 -75.57,30.192 -93.77,67.86 -68.76,142.371 100.73,397.191 1066.75,1603.901 249.03,311.08 506.53,632.74 697.87,889.25 71.33,95.63 126.56,173.13 169.33,235.88 -48.57,-48.16 -107.07,-108.59 -177.42,-184.41 C 2744.45,2673 2490.98,2378.7 2245.84,2094.09 1971.2,1775.21 1687.2,1445.47 1458.28,1203 1106.43,830.32 988.852,770.641 894.973,790.98 c -49.332,10.668 -86.203,46.09 -101.164,97.18 -28.688,97.969 12.921,241.82 309.201,625.46 196.02,253.81 463.11,560.18 721.4,856.46 224.24,257.22 436.05,500.19 597.25,702.96 113.08,142.24 176.52,234.4 212.03,293.59 -61.9,-41.4 -161.32,-121.85 -317.25,-277.88 -204.16,-204.28 -437.71,-468.9 -663.56,-724.81 -580.67,-657.91 -742.31,-822.17 -873.232,-796.72 -44.168,8.55 -79.812,39.88 -95.351,83.78 -61.09,172.62 154.961,481.92 695.363,1155.15 76.8,95.67 162.26,202.15 233.77,295.17 -22.4,-17.54 -46.56,-36.98 -72.53,-58.48 -130.32,-107.94 -264.12,-234.5 -311.22,-294.4 -34.14,-43.41 -97,-50.93 -140.42,-16.8 -43.42,34.15 -50.93,97.01 -16.79,140.43 61.83,78.63 219.41,226.87 374.69,352.49 301.11,243.59 384.19,241.57 443.48,218.64 41.27,-15.95 83.51,-59.08 78.27,-132.25 -6.52,-90.95 -117.57,-236.69 -433.27,-629.99 -155.49,-193.7 -331.72,-413.25 -463.1,-600.22 -54.01,-76.87 -93.395,-138.45 -122.087,-187.55 27.516,26.83 59.537,59.15 96.767,98.09 130.53,136.57 288.48,315.53 455.7,505 237.43,269.02 482.94,547.19 697.31,758.97 287.72,284.22 448,382.01 571.72,348.87 49,-13.15 85.31,-47.6 99.61,-94.52 25.97,-85.19 -9.04,-198.39 -264.83,-524.89 -166.92,-213.07 -392.62,-471.96 -631.57,-746.06 -248.21,-284.71 -504.87,-579.12 -695.51,-823.63 -126.25,-161.92 -198.36,-270.54 -239.44,-342.62 65.9,57.01 164.57,151.73 311.16,308.97 218.61,234.47 485.16,543.95 742.94,843.24 958.98,1113.44 1154,1297.1 1304.08,1228.53 35.24,-16.1 60.7,-47.39 69.85,-85.84 19.88,-83.58 -25.59,-204.98 -322.28,-606.49 -196.55,-265.97 -467.97,-605.03 -730.47,-932.93 -254.45,-317.84 -517.55,-646.5 -713.94,-910.29 -62.8,-84.34 -113.42,-155.012 -154.22,-214.168 54.83,55.719 120.84,125.137 200.27,211.629 232.58,253.289 517.65,583.599 793.33,903.049 280.22,324.68 544.9,631.37 760.02,865.07 359.22,390.22 434.68,417.94 502.25,414.52 36.54,-1.86 69.32,-19.84 89.95,-49.33 85,-121.56 -29.4,-302.28 -874.4,-1381.22 C 2775.99,1357.18 2524.98,1036.66 2335.29,774.16 2231.25,630.18 2162.15,526.02 2116.3,450.852 c 50.37,47.328 115.34,112.418 198.83,201.898 181.78,194.781 401.95,451.36 614.86,699.51 224.06,261.13 455.76,531.15 638.82,724.18 266.2,280.69 383.48,355.58 482.65,308.07 36.19,-17.32 61.28,-48.76 70.63,-88.53 32.71,-138.94 -149.63,-389.95 -640.34,-1019.58 -149.16,-191.39 -303.39,-389.291 -418.06,-550.63 -55.72,-78.399 -94.59,-137.86 -121.71,-182.731 37.67,29.051 86.28,70.402 148.34,129.242 129.04,122.321 269.54,274.84 393.5,409.399 79.75,86.57 148.63,161.35 202.52,215.12 31.23,31.15 54.81,52.66 74.2,67.69 75.33,58.38 129.37,34.44 154.88,14.99 106.53,-81.28 41.09,-249.21 -99.03,-493.808 -92.61,-161.68 -194.96,-311.703 -199.27,-318 -31.16,-45.602 -93.37,-57.293 -138.98,-26.133 -45.59,31.172 -57.29,93.391 -26.13,138.992 0.77,1.129 73.1,107.16 148.78,232.989 -384.82,-416.559 -614.4,-640.141 -774.5,-640.161 -31.96,-0.007 -61.12,8.903 -88.23,26.961 -30.34,20.219 -50.39,51.989 -56.45,89.461 -11.37,70.211 18.35,166.098 201.36,426.809 119.29,169.922 282.85,379.79 441.03,582.76 149.15,191.36 303.38,389.24 418.03,550.57 16.29,22.91 31.15,44.23 44.68,64.02 -34.7,-35.01 -74.65,-76.62 -120.6,-126.1 -171.01,-184.12 -381.13,-429 -584.33,-665.82 C 2858.7,962.039 2628.04,693.211 2438.81,492.238 2153.75,189.469 2045.9,127.75 1964.3,126.32 l -2.64,-0.019"
         style="fill:#f3f2f1;fill-opacity:1;fill-rule:nonzero;stroke:none"
         id="path30" /><path
         d="m 2074.09,211.449 c -8.53,-0.008 -16.51,0.973 -23.99,2.973 -20.65,5.547 -34.6,18.41 -40.33,37.207 -38.3,125.66 306.59,533.519 879.16,1190.291 494.48,567.21 1054.93,1210.09 1006.92,1374.05 -3.83,13.09 -10.09,16.01 -15.11,17.1 -37.14,8.06 -146.25,-51.15 -455.38,-378.58 C 3198.24,2213.93 2915.11,1885.2 2641.3,1567.29 2374.85,1257.93 2099.34,938.039 1883.97,709.879 1562.3,369.121 1477.51,342.109 1436.96,360.621 c -11.57,5.289 -19.35,15.039 -22.48,28.199 -29.42,123.66 371.93,636.58 1036.42,1466.64 272,339.76 553.25,691.09 754.5,965 273.36,372.06 313.19,486.51 298.46,517 -1.23,2.56 -2.51,3.5 -5.24,3.86 -32.72,4.14 -140.63,-65.02 -469.43,-419.75 C 2788.59,2661.99 2486.7,2312.18 2194.75,1973.89 1524.1,1196.8 1108.12,723.648 1002.85,723.602 l -1.7,0.046 c -10.455,0.532 -18.962,5.082 -24.611,13.161 -22.379,32 -9.176,108.761 236.851,450.771 165.53,230.12 393.48,521.19 634.83,829.34 264.96,338.31 538.94,688.15 734.34,963.94 279.56,394.57 289.33,488.2 270.26,508.9 -2.21,2.39 -6.16,5.67 -15.07,5.38 -128.4,-2.26 -608.57,-561.86 -1032.21,-1055.59 -223.39,-260.35 -454.38,-529.56 -635.99,-721.04 -272.366,-287.19 -347.109,-307.7 -384.284,-289.91 -12.692,6.08 -21.2,16.92 -24.59,31.34 -24.621,104.59 231.336,443.21 624.634,947.85 298.31,382.76 636.41,816.58 619.59,920.5 -1.24,7.71 -4.42,10.62 -6.7,12.14 -102.88,68.43 -504.49,-367.54 -744.5,-628.07 -236.12,-256.32 -289.454,-309.26 -317.54,-287.81 -29.488,22.5 -49.008,86.78 121.24,383.98 90.94,158.76 194.65,310.76 195.68,312.28 4.67,6.84 13.99,8.59 20.85,3.91 6.84,-4.67 8.59,-14.01 3.92,-20.84 -1.03,-1.52 -104.14,-152.65 -194.5,-310.39 -151.67,-264.81 -142.725,-327.64 -131.655,-342.37 32.348,12.8 158.155,149.36 279.945,281.57 360.58,391.42 668.38,709.22 783.19,632.7 10.6,-7.06 17.41,-18.23 19.69,-32.3 18.91,-116.84 -294.12,-518.5 -625.55,-943.74 -301.04,-386.28 -642.267,-824.09 -619.099,-922.53 1.336,-5.66 3.828,-9 8.348,-11.16 20.734,-9.88 93.726,13.73 349.561,283.49 181.1,190.95 411.84,459.87 634.99,719.93 469.3,546.95 912.58,1063.56 1054.46,1066.06 15.29,0.45 28.34,-4.93 37.66,-15.05 91.16,-98.98 -318.14,-637.13 -1003.05,-1511.67 -241.15,-307.9 -468.92,-598.73 -634.1,-828.35 C 996.301,834.422 991.836,767.281 1001.12,754 c 0.89,-0.539 20.37,-9.488 122.96,82.012 66.73,59.5 155.66,149.476 271.87,275.078 216.71,234.24 488.42,549.08 776.08,882.4 726.9,842.26 1212.46,1392.81 1330.51,1377.57 12.68,-1.67 22.74,-8.97 28.33,-20.55 54.51,-112.86 -362.79,-647.19 -1056.55,-1513.8 C 1978.03,1216.76 1415.52,514.09 1443.67,395.762 c 1.22,-5.153 3.49,-6.821 5.76,-7.864 23.36,-10.597 107.95,19.723 412.72,342.582 214.9,227.661 490.19,547.28 756.41,856.39 679.73,789.19 1135.22,1304.5 1268.52,1275.52 12.88,-2.78 29.85,-11.64 37.56,-37.99 C 3977.27,2644.68 3459.6,2050.88 2911.54,1422.21 2464.51,909.422 2002.25,379.18 2038.47,260.371 c 1.82,-5.961 5.67,-13.281 19.4,-16.961 166.64,-44.629 713.58,574.949 1153.03,1072.86 431.4,488.8 700.49,787.39 793.3,769.52 10.4,-2.02 24.3,-8.64 31.4,-28.69 55.15,-155.85 -336.22,-643.42 -681.52,-1073.588 -207.62,-258.653 -403.72,-502.953 -408.25,-566.231 -1.03,-14.429 3.54,-16.191 5.04,-16.781 75.17,-28.988 559.67,373.93 686.29,534.961 5.12,6.519 14.55,7.66 21.07,2.519 6.51,-5.121 7.64,-14.55 2.52,-21.058 -102.03,-129.75 -613.19,-585.863 -720.7,-544.402 -10,3.871 -26.42,15.101 -24.14,46.91 4.95,69.101 160.84,266.5 414.77,582.86 306.48,381.8 726.21,904.7 676.63,1044.8 -2.51,7.11 -5.72,8.64 -8.82,9.24 -23.51,4.63 -90.04,-29.32 -272.83,-216.89 C 3587.77,1697.95 3415.64,1502.91 3233.39,1296.42 2762.32,762.68 2275.83,211.5 2074.09,211.449"
         style="fill:#e7e8e5;fill-opacity:1;fill-rule:nonzero;stroke:none"
         id="path32" /><path
         d="M 4438.89,113.238 C 4438.89,50.6992 3570.82,0 2500,0 1429.18,0 561.109,50.6992 561.109,113.238 c 0,62.532 868.071,113.231 1938.891,113.231 1070.82,0 1938.89,-50.699 1938.89,-113.231"
         style="fill:#f3f2f1;fill-opacity:1;fill-rule:nonzero;stroke:none"
         id="path34" /><path
         d="m 4141.01,1990.23 c 0,46.11 -37.38,83.5 -83.5,83.5 -8.33,0 -16.37,-1.26 -23.97,-3.54 1.22,8.37 1.87,16.93 1.87,25.64 0,97.65 -79.16,176.81 -176.81,176.81 -11.13,0 -22,-1.08 -32.56,-3.05 -27.18,44.48 -76.03,74.26 -131.97,74.26 -84.65,0 -153.33,-68.02 -154.59,-152.38 l -2.57,0.13 c -78.66,0 -142.43,-63.77 -142.43,-142.43 0,-78.66 63.77,-142.43 142.43,-142.43 h 523.06 l -0.11,0.12 c 45.02,1.25 81.15,38.05 81.15,83.37"
         style="fill:#17282f;fill-opacity:1;fill-rule:nonzero;stroke:none"
         id="path36" /><path
         d="m 4059.97,1906.74 h -523.06 c -35.57,0 -68.1,13.04 -93.06,34.6 -16.96,14.65 -30.42,33.23 -38.98,54.32 -4.64,11.44 -7.83,23.6 -9.36,36.28 -0.68,5.65 -1.03,11.4 -1.03,17.23 0,78.66 63.77,142.43 142.43,142.43 l 2.57,-0.13 c 1.26,84.36 69.94,152.38 154.59,152.38 55.94,0 104.79,-29.78 131.97,-74.26 10.56,1.97 21.43,3.05 32.56,3.05 97.65,0 176.81,-79.16 176.81,-176.81 0,-8.71 -0.65,-17.27 -1.87,-25.64 v 0 0 c 7.6,2.28 15.64,3.54 23.97,3.54 46.12,0 83.5,-37.39 83.5,-83.5 0,-45.32 -36.13,-82.12 -81.15,-83.37 v 0 0 l 0.11,-0.12"
         style="fill:#b1baba;fill-opacity:1;fill-rule:nonzero;stroke:none"
         id="path38" /><path
         d="m 3615.16,1746.71 -52.37,-12.02 57.21,128.49 -126,-153.54 52.37,12.02 -57.21,-128.49 126,153.54"
         style="fill:#406fbf;fill-opacity:1;fill-rule:nonzero;stroke:none"
         id="path40" /><path
         d="m 3775.26,1746.71 -52.37,-12.02 57.21,128.49 -126,-153.54 52.37,12.02 -57.21,-128.49 126,153.54"
         style="fill:#406fbf;fill-opacity:1;fill-rule:nonzero;stroke:none"
         id="path42" /><path
         d="m 3935.36,1746.71 -52.37,-12.02 57.22,128.49 -126.01,-153.54 52.37,12.02 -57.21,-128.49 126,153.54"
         style="fill:#406fbf;fill-opacity:1;fill-rule:nonzero;stroke:none"
         id="path44" /><path
         d="m 3489.16,1593.17 57.21,128.49 -52.37,-12.02 126,153.54 -57.21,-128.49 52.37,12.02 -126,-153.54"
         style="fill:#b8d2ef;fill-opacity:1;fill-rule:nonzero;stroke:none"
         id="path46" /><path
         d="m 3649.26,1593.17 57.21,128.49 -52.37,-12.02 126,153.54 -57.21,-128.49 52.37,12.02 -126,-153.54"
         style="fill:#b8d2ef;fill-opacity:1;fill-rule:nonzero;stroke:none"
         id="path48" /><path
         d="m 3809.36,1593.17 57.21,128.49 -52.37,-12.02 126.01,153.54 -57.22,-128.49 52.37,12.02 -126,-153.54"
         style="fill:#b8d2ef;fill-opacity:1;fill-rule:nonzero;stroke:none"
         id="path50" /><path
         d="m 1652.29,2403.61 c 0,38.13 -30.91,69.04 -69.04,69.04 -6.89,0 -13.54,-1.04 -19.82,-2.92 1.01,6.92 1.55,14 1.55,21.2 0,80.74 -65.46,146.2 -146.2,146.2 -9.21,0 -18.2,-0.89 -26.93,-2.52 -22.48,36.78 -62.87,61.41 -109.12,61.41 -70.01,0 -126.79,-56.25 -127.83,-126.01 l -2.13,0.11 c -65.05,0 -117.77,-52.73 -117.77,-117.77 0,-65.05 52.72,-117.78 117.77,-117.78 h 432.52 l -0.09,0.1 c 37.22,1.04 67.09,31.47 67.09,68.94"
         style="fill:#17282f;fill-opacity:1;fill-rule:nonzero;stroke:none"
         id="path52" /><path
         d="m 1585.29,2334.57 h -432.52 c -42.2,0 -79.22,22.2 -100.01,55.56 -11.26,18.05 -17.76,39.37 -17.76,62.22 0,65.04 52.72,117.77 117.77,117.77 l 2.13,-0.11 c 1.04,69.76 57.82,126.01 127.83,126.01 46.25,0 86.64,-24.63 109.12,-61.41 8.73,1.63 17.72,2.52 26.93,2.52 80.74,0 146.2,-65.46 146.2,-146.2 0,-7.2 -0.54,-14.28 -1.55,-21.2 v 0 0 c 6.28,1.88 12.93,2.92 19.82,2.92 38.13,0 69.04,-30.91 69.04,-69.04 0,-37.47 -29.87,-67.9 -67.09,-68.94 v 0 0 l 0.09,-0.1"
         style="fill:#b1baba;fill-opacity:1;fill-rule:nonzero;stroke:none"
         id="path54" /><path
         d="m 1524.69,2233.34 c 28.24,9.76 -30.94,70.5 -30.94,70.5 0,0 2.71,-80.27 30.94,-70.5"
         style="fill:#406fbf;fill-opacity:1;fill-rule:nonzero;stroke:none"
         id="path56" /><path
         d="m 1544.47,2188.29 c 0,0 2.71,-80.28 30.94,-70.51 28.24,9.77 -30.94,70.51 -30.94,70.51"
         style="fill:#406fbf;fill-opacity:1;fill-rule:nonzero;stroke:none"
         id="path58" /><path
         d="m 1595.19,2072.74 c 0,0 2.71,-80.28 30.95,-70.51 28.23,9.76 -30.95,70.51 -30.95,70.51"
         style="fill:#406fbf;fill-opacity:1;fill-rule:nonzero;stroke:none"
         id="path60" /><path
         d="m 1431,2232.62 c 28.23,9.76 -30.95,70.51 -30.95,70.51 0,0 2.71,-80.28 30.95,-70.51"
         style="fill:#406fbf;fill-opacity:1;fill-rule:nonzero;stroke:none"
         id="path62" /><path
         d="m 1450.77,2187.57 c 0,0 2.72,-80.28 30.95,-70.51 28.23,9.77 -30.95,70.51 -30.95,70.51"
         style="fill:#406fbf;fill-opacity:1;fill-rule:nonzero;stroke:none"
         id="path64" /><path
         d="m 1501.49,2072.02 c 0,0 2.72,-80.28 30.95,-70.51 28.23,9.76 -30.95,70.51 -30.95,70.51"
         style="fill:#406fbf;fill-opacity:1;fill-rule:nonzero;stroke:none"
         id="path66" /><path
         d="m 1337.3,2231.9 c 28.23,9.77 -30.95,70.51 -30.95,70.51 0,0 2.72,-80.28 30.95,-70.51"
         style="fill:#406fbf;fill-opacity:1;fill-rule:nonzero;stroke:none"
         id="path68" /><path
         d="m 1357.07,2186.85 c 0,0 2.72,-80.28 30.95,-70.51 28.23,9.77 -30.95,70.51 -30.95,70.51"
         style="fill:#406fbf;fill-opacity:1;fill-rule:nonzero;stroke:none"
         id="path70" /><path
         d="m 1407.79,2071.3 c 0,0 2.72,-80.28 30.95,-70.51 28.23,9.77 -30.95,70.51 -30.95,70.51"
         style="fill:#406fbf;fill-opacity:1;fill-rule:nonzero;stroke:none"
         id="path72" /><path
         d="m 1212.65,2301.69 c 0,0 2.72,-80.28 30.95,-70.51 28.23,9.77 -30.95,70.51 -30.95,70.51"
         style="fill:#406fbf;fill-opacity:1;fill-rule:nonzero;stroke:none"
         id="path74" /><path
         d="m 1263.37,2186.13 c 0,0 2.72,-80.27 30.95,-70.51 28.23,9.77 -30.95,70.51 -30.95,70.51"
         style="fill:#406fbf;fill-opacity:1;fill-rule:nonzero;stroke:none"
         id="path76" /><path
         d="m 1314.09,2070.58 c 0,0 2.72,-80.28 30.95,-70.51 28.23,9.77 -30.95,70.51 -30.95,70.51"
         style="fill:#406fbf;fill-opacity:1;fill-rule:nonzero;stroke:none"
         id="path78" /><path
         d="m 1520.08,2232.51 c -23.9,0 -26.33,71.2 -26.33,71.33 v 0 c 0,0 38.6,-39.61 38.58,-60 -0.01,-4.86 -2.2,-8.63 -7.64,-10.5 -1.62,-0.56 -3.15,-0.83 -4.61,-0.83"
         style="fill:#b8d2ef;fill-opacity:1;fill-rule:nonzero;stroke:none"
         id="path80" /><path
         d="m 1570.8,2116.96 c -9.94,0 -16.17,12.33 -20.06,26.74 -3.83,14.25 -5.38,30.53 -5.96,38.92 -0.24,3.51 -0.31,5.65 -0.31,5.67 v 0 c 0,0 38.6,-39.62 38.58,-60.01 -0.01,-4.85 -2.2,-8.62 -7.64,-10.5 -1.62,-0.56 -3.15,-0.82 -4.61,-0.82"
         style="fill:#b8d2ef;fill-opacity:1;fill-rule:nonzero;stroke:none"
         id="path82" /><path
         d="m 1621.53,2001.4 c -23.9,0 -26.34,71.2 -26.34,71.33 0,0.01 0,0.01 0,0.01 0,0 38.6,-39.62 38.58,-60.01 -0.01,-4.86 -2.2,-8.63 -7.63,-10.5 -1.62,-0.56 -3.16,-0.83 -4.61,-0.83"
         style="fill:#b8d2ef;fill-opacity:1;fill-rule:nonzero;stroke:none"
         id="path84" /><path
         d="m 1426.39,2231.79 c -23.9,0 -26.34,71.2 -26.34,71.34 v 0 c 0,0 38.6,-39.62 38.58,-60.01 -0.01,-4.86 -2.2,-8.63 -7.63,-10.5 -1.62,-0.56 -3.16,-0.83 -4.61,-0.83"
         style="fill:#b8d2ef;fill-opacity:1;fill-rule:nonzero;stroke:none"
         id="path86" /><path
         d="m 1477.11,2116.24 c -9.98,0 -16.22,12.41 -20.1,26.89 -5.41,20.18 -6.24,44.36 -6.24,44.44 v 0 c 0,0 38.6,-39.62 38.58,-60.01 0,-4.85 -2.2,-8.62 -7.63,-10.5 -1.62,-0.56 -3.16,-0.82 -4.61,-0.82"
         style="fill:#b8d2ef;fill-opacity:1;fill-rule:nonzero;stroke:none"
         id="path88" /><path
         d="m 1527.83,2000.68 c -23.9,0.01 -26.34,71.2 -26.34,71.34 v 0 c 0,0 38.6,-39.62 38.58,-60.01 0,-4.86 -2.2,-8.62 -7.63,-10.5 -1.62,-0.56 -3.16,-0.83 -4.61,-0.83"
         style="fill:#b8d2ef;fill-opacity:1;fill-rule:nonzero;stroke:none"
         id="path90" /><path
         d="m 1332.69,2231.07 c -11.29,0 -17.79,15.88 -21.5,32.65 -4.16,18.74 -4.84,38.61 -4.84,38.69 v 0 c 0,0 38.6,-39.62 38.58,-60.01 0,-4.86 -2.2,-8.62 -7.63,-10.5 -1.62,-0.56 -3.16,-0.83 -4.61,-0.83"
         style="fill:#b8d2ef;fill-opacity:1;fill-rule:nonzero;stroke:none"
         id="path92" /><path
         d="m 1383.41,2115.52 c -23.9,0 -26.33,71.19 -26.34,71.33 v 0 c 0,0 38.6,-39.62 38.58,-60 0,-4.86 -2.2,-8.63 -7.63,-10.51 -1.62,-0.56 -3.16,-0.82 -4.61,-0.82"
         style="fill:#b8d2ef;fill-opacity:1;fill-rule:nonzero;stroke:none"
         id="path94" /><path
         d="m 1434.13,1999.96 c -2.57,0 -4.9,0.83 -6.99,2.3 -6.91,4.84 -11.38,16.68 -14.26,29.21 -4.38,19.07 -5.09,39.75 -5.09,39.83 v 0 c 0,0 38.6,-39.62 38.58,-60.01 0,-4.86 -2.2,-8.62 -7.63,-10.5 -1.62,-0.56 -3.15,-0.83 -4.61,-0.83"
         style="fill:#b8d2ef;fill-opacity:1;fill-rule:nonzero;stroke:none"
         id="path96" /><path
         d="m 1238.99,2230.35 c -13.96,0.01 -20.6,24.3 -23.7,44.54 -2.21,14.4 -2.64,26.74 -2.64,26.8 v 0 c 0,0 38.6,-39.62 38.58,-60.01 0,-4.86 -2.2,-8.62 -7.63,-10.5 -1.62,-0.56 -3.15,-0.83 -4.61,-0.83"
         style="fill:#b8d2ef;fill-opacity:1;fill-rule:nonzero;stroke:none"
         id="path98" /><path
         d="m 1289.71,2114.8 c -23.9,0 -26.33,71.19 -26.34,71.33 v 0 c 0,0 38.6,-39.61 38.58,-60 0,-4.86 -2.2,-8.63 -7.63,-10.51 -1.62,-0.56 -3.15,-0.82 -4.61,-0.82"
         style="fill:#b8d2ef;fill-opacity:1;fill-rule:nonzero;stroke:none"
         id="path100" /><path
         d="m 1340.43,1999.24 c -3.53,0.01 -6.6,1.56 -9.26,4.22 -15.31,15.29 -17.07,67 -17.08,67.12 v 0 c 0,0 38.6,-39.62 38.58,-60.01 0,-4.86 -2.2,-8.62 -7.63,-10.5 -1.62,-0.56 -3.15,-0.83 -4.61,-0.83"
         style="fill:#b8d2ef;fill-opacity:1;fill-rule:nonzero;stroke:none"
         id="path102" /><path
         d="m 3473.26,2538.32 c 6.3,19.42 26.18,29.93 47.41,23.04 20.76,-6.74 30.68,-26.91 24.39,-46.33 -6.3,-19.42 -26.33,-30.39 -47.1,-23.65 -21.22,6.88 -31,27.52 -24.7,46.94 z m 146.65,170.51 c 8.2,25.28 -7.9,49.47 -42.67,60.75 -33.41,10.85 -61.9,6.12 -84.88,-10.88 l -34.57,42.65 c 36.42,26.11 83.8,33.7 140.24,15.38 66.37,-21.53 100.81,-66.14 83.96,-118.06 -23.88,-73.6 -103.29,-55.32 -120.58,-108.6 l -57.34,18.6 c 21.68,66.82 101.19,55 115.84,100.16"
         style="fill:#406fbf;fill-opacity:1;fill-rule:nonzero;stroke:none"
         id="path104" /><path
         d="m 963.035,1762.11 c 3.957,12.99 17.055,20.22 31.25,15.9 13.885,-4.24 20.735,-17.54 16.775,-30.53 -3.96,-12.99 -17.142,-20.52 -31.04,-16.29 -14.192,4.33 -20.938,17.93 -16.985,30.92 z m 95.475,115.14 c 5.15,16.91 -5.84,32.8 -29.1,39.88 -22.35,6.82 -41.23,3.33 -56.308,-8.25 l -23.497,27.95 c 23.903,17.8 55.315,23.41 93.065,11.91 44.4,-13.52 67.82,-42.78 57.24,-77.51 -14.99,-49.22 -68.01,-38.02 -78.87,-73.65 l -38.352,11.68 c 13.613,44.69 66.622,37.79 75.822,67.99"
         style="fill:#406fbf;fill-opacity:1;fill-rule:nonzero;stroke:none"
         id="path106" /><path
         d="m 1700.82,2777.32 c -4.83,12.68 1.38,26.54 15.24,31.82 13.57,5.17 27.13,-1.15 31.97,-13.84 4.83,-12.68 -0.97,-26.71 -14.54,-31.89 -13.87,-5.28 -27.84,1.22 -32.67,13.91 z m -68.64,186.34 43.66,16.64 45.23,-140.87 -29.19,-11.13 -59.7,135.36"
         style="fill:#406fbf;fill-opacity:1;fill-rule:nonzero;stroke:none"
         id="path108" /><path
         d="m 1127.21,927.449 72.47,-5.957 -31.1,-228.16 -48.47,3.977 z M 1098.44,619.73 c 1.74,21.051 19.75,36.329 42.77,34.442 22.53,-1.863 37.32,-19.832 35.58,-40.891 -1.73,-21.051 -19.3,-36.859 -41.82,-35.011 -23.02,1.902 -38.26,20.402 -36.53,41.46"
         style="fill:#406fbf;fill-opacity:1;fill-rule:nonzero;stroke:none"
         id="path110" /><path
         d="m 3062.22,1448.25 c -3.08,13.23 4.94,26.12 19.39,29.48 14.14,3.3 26.72,-4.79 29.81,-18.01 3.08,-13.23 -4.57,-26.35 -18.71,-29.65 -14.45,-3.36 -27.41,4.96 -30.49,18.18 z m -42.91,193.91 45.51,10.6 25.84,-145.69 -30.44,-7.09 -40.91,142.18"
         style="fill:#406fbf;fill-opacity:1;fill-rule:nonzero;stroke:none"
         id="path112" /><path
         d="m 3165.6,2967.32 c 2.51,-23.69 14.47,-50.72 29.8,-66.03 8.93,-8.93 22.61,-17.46 37.01,-7.41 9.07,6.33 11.34,14.07 6.93,23.66 -8.69,18.9 -41.77,40.39 -73.74,49.78 z m -39.47,-135.99 c 12.27,-25.04 28.17,-39.64 45.04,-38.84 5.77,0.17 6.35,2.74 6.56,3.7 1.49,6.71 -7.54,22.56 -24.57,31.15 -6.25,3.16 -15.95,6.36 -27.03,3.99 z m -2.17,-153.47 c -1.08,0 -2.15,0.43 -2.95,1.28 -0.78,0.82 -77.09,83.24 -27.05,140.72 6.47,7.43 13.6,12.87 21.11,16.26 -11.1,25.97 -18.86,60.56 -21.92,101.16 -1.63,21.62 7.81,36.2 26.6,41.06 10.39,2.7 23.52,2.12 37.39,-0.83 0.17,11.24 2.63,21.42 7.99,29.12 8.71,12.53 28.16,23.32 71.29,3.5 2.03,-0.94 2.92,-3.34 1.98,-5.37 -0.92,-2.03 -3.33,-2.94 -5.36,-1.99 -21.01,9.65 -48.67,17.36 -61.27,-0.76 -4.72,-6.79 -6.75,-16.08 -6.66,-26.43 34.41,-9.33 71.1,-31.85 81.58,-54.65 6.06,-13.17 2.63,-25.13 -9.65,-33.69 -14.83,-10.33 -31.65,-7.38 -47.36,8.32 -17.17,17.15 -30.29,47.39 -32.28,73.9 -13.03,2.97 -25.5,3.65 -35.63,1.04 -14.97,-3.87 -21.89,-14.84 -20.54,-32.62 2.99,-39.77 10.68,-73.89 21.47,-99.06 11.05,2.87 22.69,1.52 34.11,-4.25 18.08,-9.12 31.55,-27.89 28.82,-40.14 -0.64,-2.91 -3.33,-9.71 -14.22,-10.04 -20.85,-0.7 -39.09,15.66 -53,44.4 -5.97,-2.68 -12.18,-7.17 -18.35,-14.25 -45.24,-51.97 26.12,-129.08 26.85,-129.86 1.53,-1.63 1.45,-4.19 -0.18,-5.72 -0.78,-0.73 -1.77,-1.1 -2.77,-1.1"
         style="fill:#17282f;fill-opacity:1;fill-rule:nonzero;stroke:none"
         id="path114" /><path
         d="m 3102.41,2046.25 c 10.11,-0.68 19.28,-3.95 27.44,-9.78 15,-10.74 25.08,-29.32 27.49,-50.32 8.33,1.05 16.69,1.56 25.08,1.44 5.32,-0.06 10.14,-0.5 14.47,-1.3 2.49,15.99 0.6,33.72 -10.12,47.85 -12.32,16.22 -34.9,24.51 -57.49,21.04 -9.65,-1.47 -18.59,-4.57 -26.87,-8.93 z m 47.38,-69.42 c -30.6,-5.36 -60.04,-18.62 -83.91,-38.2 -7.81,-6.4 -20.37,-19.08 -16.75,-32.02 1.29,-4.62 4.31,-8.25 9,-10.8 8.03,-4.37 20.67,-5.07 31.45,-1.72 34.6,10.76 60.35,46.56 60.21,82.74 z m -61.12,60.63 c -46.56,-35.31 -68.49,-110.65 -75,-137.33 -3.82,-15.65 -7.16,-35.69 0.89,-51.95 13.63,-27.53 52.15,-31.8 82.16,-24.15 53.48,13.66 99.73,56.18 117.82,108.32 5.63,16.23 5.34,28.46 -0.86,36.38 -2.52,3.23 -6.04,5.71 -10.6,7.48 -1.15,-4.57 -2.6,-8.91 -4.24,-12.92 -17.62,-42.92 -70.59,-105.99 -124.22,-112.79 -2.17,-0.27 -4.23,1.28 -4.52,3.51 -0.28,2.21 1.29,4.23 3.51,4.52 49.91,6.32 101.29,67.77 117.74,107.83 1.53,3.72 2.87,7.76 3.93,12 -3.82,0.7 -8.13,1.08 -12.96,1.14 -8.13,0.08 -16.32,-0.39 -24.44,-1.44 0.8,-40.59 -27.01,-79.6 -65.9,-91.7 -12.94,-4.01 -27.74,-3.11 -37.73,2.34 -6.58,3.59 -11.05,9.02 -12.93,15.74 -3.59,12.87 3.31,27.24 19.42,40.45 25.18,20.66 56.28,34.57 88.59,40.07 -2.1,18.86 -10.98,35.46 -24.2,44.92 -10.22,7.32 -22.49,9.85 -36.46,7.58 z m -18.48,-224.87 c -25.87,0 -51.53,9.06 -62.89,32 -9.21,18.6 -5.64,40.48 -1.49,57.45 6.05,24.85 25.09,90.39 64.71,130.14 -38.89,-15.84 -79.82,-59.1 -95.74,-87.12 -1.11,-1.94 -3.57,-2.63 -5.52,-1.51 -1.95,1.1 -2.62,3.57 -1.52,5.51 15.9,27.98 66.07,84.73 115.41,95.58 l 2.35,0.48 c 12.45,9.13 26.58,15.63 42.56,18.06 25.48,3.87 51.07,-5.59 65.15,-24.15 12.42,-16.36 14.49,-36.71 11.54,-54.81 6.55,-2.3 11.62,-5.79 15.31,-10.5 8,-10.22 8.72,-25.04 2.13,-44.03 -18.96,-54.64 -67.42,-99.19 -123.46,-113.51 -9.05,-2.3 -18.81,-3.59 -28.54,-3.59"
         style="fill:#17282f;fill-opacity:1;fill-rule:nonzero;stroke:none"
         id="path116" /><path
         d="m 1947.29,2559.53 c -22.43,-8.53 -41.07,-24.05 -46.04,-40.09 -3.46,-11.13 0.02,-21.34 10.34,-30.36 9.11,-7.95 17.01,-10.2 23.49,-6.64 14.03,7.68 20.24,39.33 17.57,56.92 -1.08,7.12 -2.89,13.88 -5.36,20.17 z m -127.91,-73.39 c -19.63,0 -24.28,-4.72 -25.27,-6.29 -1.08,-1.71 -0.84,-4.04 0.7,-6.94 8.32,-15.58 49.45,-38.95 94.97,-40.13 5.72,-0.13 12.54,0.2 20.06,1.03 l -0.74,1.33 c -17.31,30.61 -47.51,49.13 -82.88,50.83 -2.46,0.11 -4.74,0.17 -6.84,0.17 z m -14.41,-144.44 c -11.45,0 -24.69,-3.8 -37.01,-16.5 -5.91,-6.1 -12.4,-14.8 -9.74,-21.67 2.82,-7.28 15.66,-12.33 34.34,-13.49 21.46,-1.31 50.6,2.76 75.27,12.63 -11.31,17.89 -29.6,32.28 -48.87,37.21 -4.15,1.06 -8.89,1.82 -13.99,1.82 z m 64.19,-113.24 c -1.03,0 -2.06,0.39 -2.85,1.18 -1.59,1.57 -1.6,4.13 -0.02,5.72 15.33,15.45 14.35,33.9 10.83,46.65 -1.27,4.6 -3.04,9.12 -5.23,13.5 -26.63,-10.86 -57.77,-14.93 -79.83,-13.55 -22.58,1.41 -37.28,8.03 -41.39,18.64 -3.38,8.73 0.49,18.9 11.48,30.24 16.01,16.5 36.89,22.48 58.81,16.88 21.55,-5.51 41.97,-21.74 54.35,-41.82 15.99,7.5 29.36,17.65 36.32,30.59 14.5,26.96 15.07,60.51 2,89.69 -9.07,-1.17 -17.3,-1.69 -24.06,-1.49 -45.38,1.17 -91.22,24.41 -101.9,44.41 -3.76,7.04 -2.3,12.08 -0.4,15.07 4.79,7.58 18.05,10.9 39.34,9.88 38.2,-1.83 70.84,-21.85 89.54,-54.92 0.78,-1.39 1.53,-2.78 2.25,-4.19 40.27,6.08 94.56,24.82 113.25,56.58 9.04,15.36 8.25,32.27 -2.36,50.26 -14.74,24.91 -42.22,25.66 -57.29,23.89 -5.74,-0.67 -11.46,-1.88 -17.02,-3.54 2.6,-6.74 4.53,-13.96 5.68,-21.56 3.04,-20.08 -3.89,-55.48 -21.68,-65.23 -6.73,-3.69 -17.86,-5.34 -32.72,7.65 -16.13,14.09 -15.83,28.91 -12.75,38.85 5.72,18.43 25.87,35.7 50.46,45.13 -11.13,22.05 -30.87,37.24 -54.91,40.89 -2.2,0.34 -3.73,2.4 -3.39,4.62 0.34,2.2 2.35,3.66 4.61,3.39 27.09,-4.12 49.25,-21.33 61.43,-46.24 6.29,1.92 12.79,3.31 19.34,4.08 29.37,3.46 52.55,-6.42 65.21,-27.82 12.22,-20.71 13.02,-40.39 2.37,-58.48 -19.56,-33.23 -74.79,-53.13 -116.7,-60.02 13.14,-30.95 12.17,-66.22 -3.17,-94.74 -7.88,-14.63 -22.38,-25.79 -39.48,-33.89 2.37,-4.73 4.27,-9.63 5.65,-14.59 5.78,-20.95 1.2,-40.31 -12.9,-54.51 -0.79,-0.8 -1.83,-1.2 -2.87,-1.2"
         style="fill:#17282f;fill-opacity:1;fill-rule:nonzero;stroke:none"
         id="path118" /><path
         d="m 1350.51,1080.79 c -8.27,0 -16.98,-2.05 -25.89,-6.17 -5.23,-2.43 -17.64,-9.39 -19.71,-21.53 -2.35,-13.75 8.4,-18.61 17.83,-20.25 24.97,-4.29 61.98,9.49 65.63,29.6 -1.21,1.42 -2.48,2.78 -3.8,4.05 -9.75,9.5 -21.39,14.3 -34.06,14.3 z m 12.79,-88.251 -0.16,-0.008 c -16.24,-0.121 -42.82,-5.359 -48.36,-16.23 -2.08,-4.082 -1.03,-8.949 3.2,-14.871 5.39,-7.532 15.77,-12.16 28.48,-12.7 18.41,-0.742 33.69,4.391 44.29,14.801 -0.81,4.301 -2.1,8.59 -4.11,12.59 -4.12,8.188 -12.91,16.418 -23.34,16.418 z M 1313.05,837.18 c -9.5,0 -19.29,1.871 -29.21,5.66 -2.09,0.789 -3.14,3.14 -2.34,5.23 0.8,2.078 3.14,3.141 5.22,2.328 22.08,-8.41 43.41,-6.378 61.71,5.903 25.17,16.879 42.66,52.211 43.54,87.898 0.07,2.93 0.08,6.121 -0.09,9.442 -11.72,-9.25 -27.27,-13.809 -45.76,-12.993 -15.22,0.641 -27.88,6.5 -34.72,16.071 -6.08,8.5 -7.37,16.332 -3.84,23.261 8.49,16.661 42.95,20.56 55.51,20.66 h 0.23 c 12.21,0 24.19,-8.179 30.57,-20.878 1.38,-2.75 2.47,-5.571 3.32,-8.422 1.77,2.672 3.34,5.551 4.68,8.652 9.65,22.408 5.99,52.868 -7.59,74.398 -10.18,-22.75 -49.02,-33.62 -72.93,-29.53 -17.92,3.13 -27.05,14.19 -24.42,29.59 1.91,11.22 10.77,21.25 24.29,27.51 24.74,11.45 48.25,8.78 66.6,-7.44 -2.47,9.55 -9.65,19.67 -21.46,30.22 -25.53,22.82 -50.44,33.8 -73.94,32.9 -2.22,-0.07 -4.12,1.64 -4.22,3.87 -0.09,2.23 1.64,4.13 3.88,4.21 25.76,1.24 52.52,-10.68 79.67,-34.95 17.62,-15.72 26.03,-31.13 25.07,-45.87 18.64,-23.95 24.28,-60.73 12.48,-88.111 -2.61,-6.059 -5.94,-11.398 -9.93,-15.988 0.77,-5.961 0.82,-11.75 0.69,-16.789 -0.93,-38.203 -19.87,-76.153 -47.12,-94.442 -12.29,-8.242 -25.77,-12.39 -39.89,-12.39"
         style="fill:#17282f;fill-opacity:1;fill-rule:nonzero;stroke:none"
         id="path120" /><path
         d="m 1397.94,1780.05 c 8.95,-5.85 18.28,-13.05 27.79,-20.4 38.13,-29.42 64.43,-47.06 81.98,-24.98 17.36,21.86 2.75,46.36 -16.72,62 -25.42,20.4 -63.51,29.29 -80.75,8.08 -5.67,-6.99 -9.29,-15.35 -12.3,-24.7 z m 134.28,-26.06 c -1.8,0 -3.45,-0.47 -4.91,-1.44 -6.82,-4.47 -5.24,-15.25 -3.72,-25.67 l 0.64,-4.61 c 1.79,-13.91 0.67,-26.26 -3.18,-36.61 1.67,0.76 3.24,1.54 4.67,2.35 18.47,10.42 32.04,35.64 21.96,55.17 -2.54,4.94 -7.53,9.12 -12.42,10.4 -1.06,0.28 -2.07,0.41 -3.04,0.41 z m -136.72,17.93 c -0.39,-1.37 -0.77,-2.77 -1.16,-4.19 -10.06,-36.82 -0.49,-69.82 26.27,-90.54 22.85,-17.7 54.21,-22.08 74.56,-10.44 2.32,1.33 4.46,2.84 6.42,4.53 -19.64,-3.91 -42.83,-3.71 -59.34,5.58 -12.71,7.13 -19.71,18.85 -20.21,33.89 -0.08,2.24 1.67,4.11 3.91,4.18 2.48,-0.07 4.1,-1.67 4.18,-3.9 0.41,-12.23 5.82,-21.35 16.08,-27.11 17.22,-9.69 44.2,-8.11 63.99,-2.22 5.93,10.23 8.04,23.7 6.01,39.53 l -0.63,4.48 c -0.24,1.63 -0.49,3.3 -0.7,5 l -0.84,-1.08 c -23.81,-29.98 -60.71,-1.5 -93.25,23.61 -8.48,6.55 -17.06,13.17 -25.29,18.68 z m 72.96,-119.85 c -17.83,0 -36.95,6.44 -52.81,18.71 -29.48,22.83 -40.09,58.95 -29.12,99.08 0.61,2.24 1.22,4.45 1.85,6.61 -11.43,6.83 -21.85,10.68 -29.86,8.05 -7.33,-2.41 -12.79,-10.19 -16.68,-23.8 -0.62,-2.14 -2.85,-3.34 -5.01,-2.78 -2.15,0.62 -3.39,2.86 -2.78,5.01 4.7,16.39 11.87,25.96 21.95,29.27 10.32,3.38 22.14,-0.45 34.85,-7.79 3.16,9.42 7.04,17.95 13.1,25.42 20.65,25.41 63.05,16.47 92.1,-6.87 16.52,-13.26 25.8,-28.59 27.21,-43.41 4.11,2.53 8.94,3.19 14.06,1.84 7.08,-1.87 13.97,-7.56 17.56,-14.51 12.37,-23.97 -3.04,-53.45 -25.19,-65.94 -3.88,-2.19 -8.69,-4.25 -14.1,-6.03 -4.15,-6.22 -9.64,-11.34 -16.4,-15.2 -9,-5.16 -19.61,-7.66 -30.73,-7.66"
         style="fill:#17282f;fill-opacity:1;fill-rule:nonzero;stroke:none"
         id="path122" /><path
         d="m 3705.99,926.059 c 33.32,0 66.83,-12.758 89.85,-36.86 l 1.71,-1.82 c -2.02,12.312 -6.69,24.359 -14.51,35.391 -15.79,22.269 -47.77,37.472 -74.33,35.3 -12.93,-1.05 -30.47,-6.609 -40.58,-27.211 -1.66,-3.39 -2.93,-7.418 -3.82,-11.859 13.3,4.742 27.48,7.059 41.68,7.059 z m -51.33,-20.008 c -2.21,-1.129 -4.38,-2.34 -6.51,-3.629 -22.83,-13.82 -38.47,-34.762 -42.92,-57.453 -7.64,-39.02 19.98,-66.16 50.75,-75.739 37.24,-11.609 79.72,-1.89 108.24,24.719 20.75,19.352 34.75,49.27 34.52,79.281 -2.72,3.649 -5.64,7.122 -8.75,10.391 -31.68,33.149 -84.63,43.309 -126.92,26.258 -1.6,-20.18 3.45,-44.738 15.32,-56.899 8.39,-8.601 19.12,-9.968 31.88,-4.07 5.24,2.418 9.63,7.59 11.18,13.149 0.76,2.742 1.15,6.75 -1.31,10.363 -1.26,1.859 -0.77,4.367 1.08,5.629 1.85,1.25 4.37,0.758 5.62,-1.082 3.28,-4.821 4.13,-10.879 2.41,-17.078 -2.19,-7.879 -8.16,-14.911 -15.59,-18.332 -20.19,-9.329 -33.47,-2.008 -41.06,5.761 -12.97,13.282 -18.75,37.418 -17.94,58.731 z m 83.17,-189.012 c -17.98,0 -36.41,2.93 -53.84,5.723 l -3.54,0.558 c -2.2,0.34 -3.71,2.418 -3.36,4.629 0.35,2.211 2.41,3.762 4.63,3.36 l 3.54,-0.559 c 38.96,-6.211 83.11,-13.238 113.39,15.461 15.01,14.23 23.22,33.488 23.77,55.699 0.5,20.121 -5.46,41.531 -16.21,60.012 -2.5,-26.942 -14.98,-53.84 -36.46,-73.891 -30.61,-28.562 -76.21,-38.98 -116.18,-26.531 -41.12,12.809 -63.74,46.98 -56.29,85.031 4.89,24.918 21.9,47.821 46.68,62.828 3.72,2.243 7.56,4.27 11.5,6.051 0.99,7.16 2.8,13.711 5.41,19.02 9.18,18.742 25.95,30 47.19,31.711 29.71,2.379 63.99,-13.871 81.58,-38.68 10.67,-15.051 16.22,-32.879 16.95,-51.27 15.61,-21.781 24.55,-49.07 23.93,-74.492 -0.6,-24.39 -9.7,-45.609 -26.3,-61.367 -19,-18.012 -42.29,-23.293 -66.39,-23.293"
         style="fill:#17282f;fill-opacity:1;fill-rule:nonzero;stroke:none"
         id="path124" /><path
         d="m 3741.13,1112.27 -245.92,151.76 c -38.33,23.65 -50.22,73.89 -26.57,112.22 l 33.39,54.1 c 23.65,38.33 73.89,50.22 112.22,26.57 l 245.91,-151.75 c 38.33,-23.65 50.22,-73.89 26.57,-112.22 l -33.38,-54.11 c -23.66,-38.32 -73.9,-50.22 -112.22,-26.57"
         style="fill:#406fbf;fill-opacity:1;fill-rule:nonzero;stroke:none"
         id="path126" /><path
         d="m 3783.87,1100.11 c -14.61,0 -29.4,3.93 -42.74,12.16 l -197.51,121.88 6.14,1.01 -33.63,36.25 -13.49,-11.97 -7.43,4.59 c -5.3,3.26 -10.09,7.04 -14.35,11.22 -15.86,15.56 -24.4,36.75 -24.38,58.32 0.01,14.59 3.94,29.35 12.16,42.68 l 33.39,54.1 c 15.41,24.98 42.13,38.73 69.47,38.73 14.61,0 29.4,-3.92 42.75,-12.16 l 245.91,-151.75 c 25,-15.43 38.76,-42.17 38.73,-69.54 -0.01,-14.59 -3.93,-29.35 -12.16,-42.68 l -33.38,-54.11 c -15.42,-24.97 -42.13,-38.73 -69.48,-38.73"
         style="fill:#b8d2ef;fill-opacity:1;fill-rule:nonzero;stroke:none"
         id="path128" /><path
         d="m 3609.18,1358.84 c 4.54,7.35 1.67,16.16 -8.74,22.59 -8.68,5.35 -16.76,6.4 -24.59,3.76 l -2.9,7.43 c 9.68,3.33 20.54,1.98 31.97,-5.07 14.29,-8.82 19.25,-21.34 12.52,-32.26 -10.77,-17.45 -29.95,-6.74 -38.96,-21.34 l -7.56,4.67 c 10.39,16.84 30.01,6.85 38.26,20.22 z m -50.05,-35.92 c 1.82,2.97 5.56,3.76 8.52,1.94 3.06,-1.89 4.02,-5.58 2.19,-8.55 -1.76,-2.85 -5.62,-3.85 -8.68,-1.96 -2.96,1.82 -3.8,5.72 -2.03,8.57"
         style="fill:#17282f;fill-opacity:1;fill-rule:nonzero;stroke:none"
         id="path130" /><path
         d="m 3643.86,1362.66 8.58,-5.29 -32.39,-49.07 -5.62,3.47 z m -42.24,-65.96 c 1.82,2.97 5.55,3.77 8.62,1.87 3.06,-1.89 3.91,-5.51 2.09,-8.48 -1.76,-2.85 -5.52,-3.92 -8.59,-2.02 -3.05,1.88 -3.89,5.78 -2.12,8.63"
         style="fill:#17282f;fill-opacity:1;fill-rule:nonzero;stroke:none"
         id="path132" /><path
         d="m 3692.82,1307.23 c 4.54,7.34 1.67,16.17 -8.74,22.58 -8.68,5.37 -16.77,6.41 -24.6,3.77 l -2.89,7.43 c 9.67,3.33 20.53,1.98 31.96,-5.07 14.3,-8.82 19.26,-21.33 12.52,-32.26 -10.77,-17.45 -29.95,-6.74 -38.96,-21.34 l -7.55,4.67 c 10.39,16.84 30,6.84 38.26,20.22 z m -50.06,-35.92 c 1.82,2.97 5.56,3.77 8.52,1.94 3.06,-1.89 4.02,-5.58 2.2,-8.55 -1.77,-2.85 -5.63,-3.85 -8.69,-1.97 -2.96,1.83 -3.79,5.73 -2.03,8.58"
         style="fill:#17282f;fill-opacity:1;fill-rule:nonzero;stroke:none"
         id="path134" /><path
         d="m 3727.5,1311.05 8.57,-5.29 -32.39,-49.06 -5.61,3.46 z m -42.25,-65.95 c 1.82,2.96 5.56,3.76 8.62,1.86 3.06,-1.88 3.92,-5.52 2.09,-8.48 -1.76,-2.86 -5.52,-3.92 -8.58,-2.03 -3.06,1.89 -3.89,5.8 -2.13,8.65"
         style="fill:#17282f;fill-opacity:1;fill-rule:nonzero;stroke:none"
         id="path136" /><path
         d="m 3776.46,1255.61 c 4.54,7.36 1.66,16.17 -8.75,22.59 -8.67,5.35 -16.76,6.41 -24.6,3.77 l -2.89,7.42 c 9.68,3.33 20.54,1.99 31.97,-5.07 14.29,-8.81 19.26,-21.33 12.52,-32.25 -10.78,-17.45 -29.96,-6.74 -38.96,-21.34 l -7.55,4.67 c 10.39,16.84 30.01,6.85 38.26,20.21 z m -50.06,-35.91 c 1.83,2.97 5.56,3.76 8.52,1.94 3.06,-1.89 4.02,-5.59 2.19,-8.55 -1.76,-2.86 -5.62,-3.85 -8.68,-1.97 -2.96,1.83 -3.8,5.73 -2.03,8.58"
         style="fill:#17282f;fill-opacity:1;fill-rule:nonzero;stroke:none"
         id="path138" /><path
         d="m 3811.14,1259.43 8.57,-5.29 -32.39,-49.06 -5.62,3.46 z m -42.25,-65.95 c 1.82,2.96 5.56,3.77 8.62,1.87 3.06,-1.89 3.92,-5.52 2.09,-8.49 -1.76,-2.85 -5.52,-3.91 -8.58,-2.02 -3.07,1.89 -3.9,5.78 -2.13,8.64"
         style="fill:#17282f;fill-opacity:1;fill-rule:nonzero;stroke:none"
         id="path140" /><path
         d="m 3549.76,1235.16 -91.34,-14.92 57.71,51.17 33.63,-36.25"
         style="fill:#406fbf;fill-opacity:1;fill-rule:nonzero;stroke:none"
         id="path142" /><path
         d="m 3458.42,1220.24 57.71,51.17 33.63,-36.25 -6.14,-1.01 -32.1,-5.24 -53.1,-8.67"
         style="fill:#b8d2ef;fill-opacity:1;fill-rule:nonzero;stroke:none"
         id="path144" /><path
         d="M 3232.41,2299.44 2856.7,2198.49 c -43.49,-11.69 -88.22,14.09 -99.91,57.59 l -16.5,61.4 c -11.69,43.49 14.1,88.23 57.59,99.91 l 375.71,100.95 c 43.49,11.69 88.23,-14.1 99.91,-57.59 l 16.5,-61.4 c 11.69,-43.49 -14.1,-88.23 -57.59,-99.91"
         style="fill:#406fbf;fill-opacity:1;fill-rule:nonzero;stroke:none"
         id="path146" /><path
         d="m 2835.49,2195.67 c -21.37,0 -41.66,8.46 -56.67,22.96 -7.37,7.13 -13.47,15.71 -17.8,25.46 -1.67,3.79 -3.08,7.74 -4.2,11.86 -0.01,0.04 -0.02,0.09 -0.03,0.13 l -16.5,61.4 c -1.89,7.05 -2.8,14.13 -2.81,21.1 -0.05,36.03 23.96,69.02 60.4,78.81 l 375.71,100.95 c 7.09,1.91 14.21,2.82 21.21,2.82 35.99,0 68.92,-24 78.7,-60.41 l 16.5,-61.4 c 1.9,-7.05 2.8,-14.13 2.81,-21.1 0.02,-10.02 -1.83,-19.8 -5.29,-28.92 -7.2,-18.98 -21.39,-35.07 -40.31,-44.34 -4.66,-2.29 -9.6,-4.16 -14.8,-5.55 l -305.32,-82.04 6.02,12.28 -49.03,-6.44 1.84,-16.9 -11.73,-3.15 -17.49,-4.7 c -7.08,-1.91 -14.21,-2.82 -21.21,-2.82"
         style="fill:#b8d2ef;fill-opacity:1;fill-rule:nonzero;stroke:none"
         id="path148" /><path
         d="m 2842.61,2342.53 15.22,-3.9 -1.24,-5.13 -15.42,4.19 4.07,-15.12 -4.9,-1.32 -3.95,15.16 -11.24,-11.36 -3.76,3.79 11.32,11.03 -15.32,3.88 1.32,5.27 15.44,-4.31 -4.18,15.1 4.91,1.32 4.07,-15.13 11.19,11.46 3.68,-3.92 -11.21,-11.01"
         style="fill:#17282f;fill-opacity:1;fill-rule:nonzero;stroke:none"
         id="path150" /><path
         d="m 2941.78,2334.11 c -3.46,12.89 -14.43,18.85 -25.94,15.76 -11.82,-3.18 -18.08,-13.88 -14.64,-26.67 3.42,-12.78 14.27,-19.12 26.1,-15.94 11.5,3.09 17.98,13.85 14.48,26.85 z m 29.52,9.19 c 4.87,-18.12 1.02,-30.57 -9.96,-33.52 -6.92,-1.86 -12.75,1.14 -15.17,8.37 -2.27,-8.49 -8.8,-14.81 -18.18,-17.33 -15.13,-4.06 -29.51,4.4 -33.84,20.49 -4.28,15.98 3.94,30.42 19.08,34.48 9.16,2.46 17.81,0.45 24.1,-5.52 l -2.89,10.76 6.92,1.87 10.85,-40.38 c 1.6,-5.97 5.16,-7.3 8.78,-6.33 6.6,1.78 8.66,11.13 4.8,25.51 -6.73,25.04 -29.2,36.83 -54.99,29.9 -26.1,-7.02 -39.19,-29.27 -32.41,-54.52 6.79,-25.25 29.11,-38.21 55,-31.26 6.4,1.72 13.88,5.33 19.2,10.19 l 3.21,-4.74 c -5.5,-5.02 -13.8,-8.97 -20.94,-10.89 -29.3,-7.87 -54.74,6.89 -62.33,35.12 -7.61,28.34 7.4,53.63 36.81,61.53 28.88,7.75 54.45,-5.82 61.96,-33.73"
         style="fill:#17282f;fill-opacity:1;fill-rule:nonzero;stroke:none"
         id="path152" /><path
         d="m 3020.79,2378.3 -21.83,-5.86 3.13,-23.15 21.95,5.89 z m 5.77,1.55 3.23,-23.12 15.13,4.06 1.57,-5.85 -15.87,-4.27 2.99,-20.9 -5.75,-1.55 -2.99,20.91 -21.85,-5.87 2.89,-20.94 -5.75,-1.54 -2.99,20.9 -15.13,-4.06 -1.58,5.85 15.88,4.27 -3.24,23.12 -15.24,-4.09 -1.58,5.86 15.99,4.29 -2.99,20.9 5.86,1.58 2.88,-20.93 21.95,5.89 -2.99,20.9 5.75,1.55 3,-20.9 15.02,4.04 1.57,-5.86 -15.76,-4.24"
         style="fill:#17282f;fill-opacity:1;fill-rule:nonzero;stroke:none"
         id="path154" /><path
         d="m 3105.53,2364.16 -28.7,17.09 c -10.1,-10.03 -12.46,-15.69 -10.68,-22.3 2.17,-8.09 10.85,-11.47 21.61,-8.58 8.09,2.18 14.17,6.78 17.77,13.79 z m -41.26,37.48 c 1.18,-4.37 3.61,-7.03 12.29,-12.12 9.1,9.06 11.61,13.74 10.18,19.06 -1.49,5.54 -6.43,8.22 -13.36,6.35 -7.46,-2 -10.71,-7.33 -9.11,-13.29 z m 60.16,-48.73 -13.2,7.88 c -4.48,-8.4 -12.09,-14.1 -22.21,-16.82 -14.6,-3.93 -27.1,0.95 -30.13,12.24 -2.38,8.84 0.99,16.72 12.51,28.27 -9.25,5.5 -12.59,9.41 -14.13,15.16 -2.55,9.48 3.09,17.85 14.59,20.94 10.55,2.84 18.86,-0.87 21.35,-10.14 2,-7.46 -1.07,-13.88 -11.32,-24.18 l 26.12,-15.6 c 1.17,4.54 1.59,9.8 1.14,15.74 l 6.69,-0.27 c 0.42,-7.08 -0.27,-13.44 -1.99,-18.92 l 13.6,-8.12 -3.02,-6.18"
         style="fill:#17282f;fill-opacity:1;fill-rule:nonzero;stroke:none"
         id="path156" /><path
         d="m 3198.87,2395.3 c -2.57,9.59 -8.62,14.25 -15.66,12.36 -6.93,-1.86 -9.95,-8.84 -7.36,-18.54 2.61,-9.69 8.74,-14.21 15.67,-12.35 7.03,1.89 9.93,8.94 7.35,18.53 z m -28.34,-7.61 c -3.26,12.15 1.49,22.1 11.4,24.77 10.01,2.69 19,-3.57 22.26,-15.72 3.27,-12.15 -1.37,-22.08 -11.39,-24.77 -9.91,-2.66 -19.01,3.58 -22.27,15.72 z m 1.56,59.25 6.28,1.69 -30.89,-88.26 -6.27,-1.69 z m -28.37,-28.76 c -2.6,9.7 -8.74,14.22 -15.66,12.36 -7.03,-1.89 -9.93,-8.95 -7.35,-18.54 2.57,-9.59 8.62,-14.25 15.65,-12.36 6.92,1.86 9.96,8.85 7.36,18.54 z m -28.34,-7.61 c -3.27,12.14 1.38,22.08 11.39,24.77 9.91,2.66 18.99,-3.48 22.28,-15.72 3.29,-12.26 -1.49,-22.11 -11.4,-24.77 -10.01,-2.69 -19.01,3.57 -22.27,15.72"
         style="fill:#17282f;fill-opacity:1;fill-rule:nonzero;stroke:none"
         id="path158" /><path
         d="m 2933.11,2229.68 -40.71,-83.11 -8.32,76.67 49.03,6.44"
         style="fill:#406fbf;fill-opacity:1;fill-rule:nonzero;stroke:none"
         id="path160" /><path
         d="m 2892.4,2146.57 -6.48,59.77 -1.84,16.9 49.03,6.44 -40.71,-83.11"
         style="fill:#b8d2ef;fill-opacity:1;fill-rule:nonzero;stroke:none"
         id="path162" /><path
         d="m 1996.92,3102.73 183.91,189.34 685.68,-66.52 110.76,-470.8 -320.44,-171.2 -185.48,59.21 -74.26,-80.17 46.82,-46.69 -107.38,-86.86 60.56,86.86 -78.49,46.69 47.56,97.34 -315.59,110.62 -53.65,332.18"
         style="fill:#406fbf;fill-opacity:1;fill-rule:nonzero;stroke:none"
         id="path164" /><path
         d="m 2336.53,2429.04 60.56,86.86 -78.49,46.69 47.56,97.34 -20.5,7.18 -202.35,70.93 -61.82,21.67 -30.56,10.71 -0.36,0.13 -5.29,32.77 -40.48,250.61 -7.88,48.8 183.91,189.34 685.68,-66.52 110.76,-470.8 -145.08,-77.51 -46.6,-24.9 -74.93,-40.03 -53.83,-28.76 -185.48,59.21 -74.26,-80.17 46.82,-46.69 -107.38,-86.86"
         style="fill:#b8d2ef;fill-opacity:1;fill-rule:nonzero;stroke:none"
         id="path166" /><path
         d="m 2271.71,3156.35 c 10.02,0 19.72,-2.42 27.65,-9.21 10.2,-8.76 12.96,-20.01 12.18,-31.01 33.91,13.34 66.86,26.23 100.82,36.57 -1.63,0.71 -3.26,1.39 -4.92,2.05 -42.82,17.07 -93.46,17.37 -139.61,1.48 1.3,0.08 2.59,0.12 3.88,0.12 z m -45.42,-19.62 c -26.97,-16.29 -51.04,-38.41 -70.75,-64.89 44.58,3.29 87.03,17.5 121.19,30.67 8.84,3.41 17.6,6.84 26.3,10.26 1.54,10.12 -0.03,20.57 -8.95,28.22 -14.99,12.85 -39.69,6 -56.97,-0.26 -3.61,-1.32 -7.22,-2.64 -10.82,-4 z m -31.95,-12.62 c -27.24,-11.3 -54.04,-23.79 -80.07,-37.33 -4.67,-2.43 -10.93,-7.39 -9.04,-11.1 1.23,-2.41 5.55,-3.11 8.69,-3.42 10.44,-1.05 20.87,-1.35 31.21,-0.98 14.2,20.06 30.79,37.86 49.21,52.83 z m 97.71,-67.73 c 20.11,0 40.32,-6.44 58.03,-15.7 5.68,4.88 12.24,9.46 19.66,13.71 29.15,16.71 65.48,25.85 107.99,27.17 4.46,0.14 8.9,0.21 13.38,0.15 l 1.28,0.69 c -16.26,27.01 -40.46,50.05 -69.14,65.08 -37.72,-10.93 -74.06,-25.23 -111.67,-40.04 l -1.48,-0.58 c -2.94,-12.6 -9.28,-23.75 -12.54,-28.92 -4.82,-7.64 -10.05,-15.02 -15.67,-22.12 3.37,0.38 6.77,0.56 10.16,0.56 z m -106.63,-9.02 c 7.33,0 14.42,-1.2 20.84,-3.9 9.12,-3.83 16.04,-10.18 21.36,-17.75 7.03,8.54 15.69,16.12 26.37,21.67 5.04,2.62 10.22,4.62 15.47,6.05 7.77,9.11 14.89,18.75 21.25,28.83 2.48,3.93 7.02,11.79 9.98,20.9 -6.97,-2.74 -13.99,-5.48 -21.05,-8.21 -36.41,-14.03 -82.13,-29.23 -130.16,-31.59 -7.48,-10.9 -14.24,-22.47 -20.19,-34.59 l -1.23,-2.56 1.19,0.95 c 14.78,11.44 36.35,20.2 56.17,20.2 z m 46.69,-28.98 0.28,-0.51 c 8.63,6.77 16.83,14.09 24.54,21.91 -10.13,-5.43 -18.28,-12.96 -24.82,-21.4 z m 339.18,83.94 c 64.01,0 126.5,-35.07 166.46,-77.3 6.8,-7.18 12.98,-14.43 18.52,-21.74 20.84,20.52 35.83,43.7 32.21,74.04 -4.55,38.02 -36.84,63.94 -98.72,79.25 -56.41,13.95 -118.34,16.33 -189.36,7.27 -22.84,-2.93 -44.7,-7.52 -66.06,-13.26 26.94,-15.77 49.65,-38.39 65.28,-64.53 6.44,3.07 12.91,5.7 19.39,7.87 17.25,5.78 34.82,8.4 52.28,8.4 z m -213.63,-65.86 c 7.43,-4.4 14.3,-9.24 20.39,-14.22 6.87,-5.61 14.35,-12.44 21.45,-20.35 18.55,20.74 37.95,41.52 60.12,58.98 5.8,4.56 11.65,8.75 17.55,12.57 -40.81,-1.37 -75.6,-10.14 -103.41,-26.07 -5.99,-3.43 -11.36,-7.08 -16.1,-10.91 z m -172.47,2.87 c -17.78,0 -37.43,-8.08 -50.99,-18.58 -10.29,-7.96 -21.07,-24.34 -12.83,-35.83 4.33,-6.02 12.31,-7.81 16.67,-8.34 14.06,-1.69 28.54,3.61 39.59,8.44 12.64,5.54 24.85,12.16 36.44,19.72 2.42,4.78 5.2,9.55 8.38,14.13 -4.74,7.43 -10.99,13.62 -19.32,17.13 -5.5,2.3 -11.61,3.33 -17.94,3.33 z m 166.09,-8.51 c -6.48,-6.31 -11.4,-13.07 -14.71,-20.27 -7.66,-16.65 -5.53,-36.25 5.19,-47.67 3.71,-3.96 8.57,-7.08 14.06,-9.17 4.09,4.33 8.08,8.67 12,12.93 l 2.43,2.65 c 6.9,7.48 13.68,15.1 20.46,22.74 1.12,1.26 2.24,2.52 3.37,3.78 -6.97,7.85 -14.37,14.62 -21.16,20.16 -6.4,5.24 -13.72,10.32 -21.64,14.85 z m 13.42,-79.48 c 2.64,-0.41 5.3,-0.57 8.09,-0.6 14.97,0.17 29.25,6.81 41.79,14.32 -4.05,8.9 -9.37,17.1 -15.24,24.49 -0.86,-0.97 -1.72,-1.93 -2.57,-2.9 -6.82,-7.67 -13.63,-15.34 -20.56,-22.85 l -2.44,-2.64 c -2.97,-3.24 -5.99,-6.52 -9.07,-9.82 z m 59.99,10.46 c 1.92,-5.12 3.43,-10.44 4.44,-15.96 16.04,6.45 31.7,11.45 45.53,15.25 l 1.9,0.53 c 10.66,2.93 22.51,6.21 34.75,8.6 4.39,20.71 4.64,42.32 0.46,63.03 -2.81,13.91 -7.72,27.46 -14.39,40.27 -1.41,0.03 -2.82,0.06 -4.24,0.08 -9.6,-5.33 -19.13,-11.71 -28.51,-19.1 -21.94,-17.27 -41.29,-38.09 -59.83,-58.82 6.38,-7.89 12.21,-16.68 16.7,-26.3 16.31,10.52 37.56,28.52 46.34,54.62 0.71,2.12 3.03,3.23 5.12,2.54 2.12,-0.71 3.27,-3.01 2.55,-5.12 -9.54,-28.37 -32.3,-47.69 -49.7,-58.9 z m 118.58,11.9 c 17.83,0 35.01,-4.01 49.09,-15.69 13.45,-11.14 20.93,-28.91 21.55,-47.82 12.01,10.76 22.27,22.33 30.86,34.79 17.79,25.79 22.52,52.37 12.67,71.1 -8.12,15.46 -25.2,24.58 -39.16,30.8 -34.24,15.25 -72.38,24.17 -111.67,26.27 5.98,-12.26 10.44,-25.13 13.1,-38.29 4.18,-20.74 4.14,-42.31 0.15,-63.13 7.79,1.21 15.66,1.97 23.41,1.97 z m -322.93,25.48 c -6.45,-13.31 -10.09,-26.74 -12.1,-36.59 -5.16,-25.41 -2.29,-44.31 8.54,-56.2 6.37,-7 15.71,-11.43 26.66,-12.96 0.58,28.97 -1.87,57.95 -7.35,86.46 -1.5,7.82 -3.58,16.83 -6.91,25.42 -2.91,-2.11 -5.85,-4.15 -8.84,-6.13 z m 31.19,-106.35 c 4.71,-0.03 9.64,0.38 14.69,1.33 33.36,6.26 60.08,29.02 83.58,53.25 -5.33,2.45 -10.07,5.8 -13.95,9.93 -12.91,13.76 -15.64,37.04 -6.63,56.6 3.41,7.41 8.29,14.38 14.61,20.87 -21.53,10.8 -46.59,16.99 -69.89,11.42 -11.45,-13.16 -24.23,-25.21 -38.05,-35.89 4.03,-9.77 6.45,-20.05 8.15,-28.92 5.61,-29.22 8.11,-58.9 7.49,-88.59 z m 347.99,-4.59 c 1.1,-0.26 2.22,-0.54 3.34,-0.85 0.4,1.35 0.75,2.73 1.07,4.12 -1.45,-1.1 -2.92,-2.19 -4.41,-3.27 z m 11.08,-3.42 c 11.92,-4.65 23.49,-12.44 29.26,-23.5 0.31,1.93 0.66,3.83 1.08,5.7 6.45,28.88 24.87,56.98 56.33,85.89 7.62,7.01 16.08,13.84 25.03,21.08 9.56,7.72 19.2,15.51 28.07,23.67 -5.51,7.32 -11.68,14.59 -18.49,21.79 -49.1,51.88 -133.14,92.64 -210.3,66.8 -4.4,-1.48 -8.8,-3.17 -13.19,-5.09 39.81,-2.28 78.44,-11.41 113.18,-26.89 15.16,-6.75 33.75,-16.76 43.04,-34.42 11.28,-21.45 6.35,-51.15 -13.18,-79.47 -10.32,-14.96 -22.92,-28.68 -37.94,-41.26 -0.52,-4.79 -1.48,-9.59 -2.89,-14.3 z m 150.62,72.29 c -14.82,0 -29.36,-3.73 -41.54,-11.06 -19.4,-11.66 -31.96,-32.3 -31.99,-52.6 -0.05,-21.86 15.43,-42.22 35.23,-46.32 19.37,-4.01 42,7.94 52.66,27.85 9.28,17.36 10.85,40.2 4.4,64.33 -1.5,5.61 -3.38,11.23 -5.65,16.82 -4.36,0.66 -8.75,0.98 -13.11,0.98 z m -190.57,-73.7 c -22.43,0 -44.78,-6.16 -63.98,-17.98 -7.82,-4.81 -16.95,-13.24 -20.92,-22.63 8.6,2.63 17.4,5.65 26.47,9.09 24.64,9.34 46.31,19.75 65.18,31.34 -2.25,0.13 -4.5,0.18 -6.75,0.18 z m -148.31,50.81 c -26.2,-11.47 -52.56,-26.96 -72.52,-47.63 -3.52,-3.64 -7.81,-8.57 -9.81,-14.31 -4.04,-11.53 4.64,-24.16 15.31,-30.67 1.94,-1.18 4,-2.28 6.18,-3.29 11.61,6.72 23.22,14.93 33.16,25.15 18.85,19.38 28.98,45.72 27.68,70.75 z m 95.66,28.98 c -3.79,-15.34 -9.74,-30.14 -17.77,-43.71 -7.92,-13.4 -17.77,-25.65 -27.3,-37.5 -9.68,-12.03 -19.68,-24.47 -27.44,-37.9 -2.1,-3.66 -4.09,-7.61 -5.87,-11.79 11.92,1.72 24.17,4.31 36.88,7.82 2.92,12.52 13.43,24.52 25.92,32.2 25.53,15.72 56.28,22.06 85.93,17.98 6.09,4.14 11.86,8.42 17.3,12.84 1.22,17.86 -3.95,36.62 -18.45,48.65 -18.61,15.41 -44.3,15.65 -69.2,11.41 z m -146.85,-128.54 c 14.27,-4.36 32.16,-5.8 52.75,-4.14 2.17,0.18 4.35,0.39 6.54,0.62 2.31,6.1 5.06,11.83 8.04,16.99 8.06,13.98 18.27,26.67 28.14,38.94 9.35,11.62 19.02,23.63 26.64,36.54 6.99,11.82 12.34,24.62 15.94,37.91 -10.7,-2.25 -21.09,-5.11 -30.49,-7.71 l -1.9,-0.52 c -14.12,-3.89 -30.19,-9.04 -46.58,-15.74 2.37,-28.11 -8.64,-58 -29.77,-79.73 -8.92,-9.17 -19.04,-16.77 -29.31,-23.16 z m -121.9,21.98 c 32.71,-3.01 65.08,-8.11 88.73,-30.28 4.81,2.18 9.84,4.58 14.96,7.25 l -1.84,1.09 c -13.03,7.95 -24.45,23.94 -18.74,40.26 2.52,7.22 7.55,13.01 11.63,17.25 21.39,22.15 49.67,38.51 77.47,50.44 l -0.28,1.63 c -0.82,4.53 -2.01,8.93 -3.52,13.19 -13.26,-7.83 -28.42,-14.64 -44.78,-14.82 -5.04,0.08 -10.03,0.55 -14.71,1.78 -24.97,-26.1 -53.55,-51.3 -90.46,-58.23 -5.62,-1.05 -11.17,-1.54 -16.43,-1.46 -0.27,-6.82 -0.71,-13.65 -1.32,-20.47 l -0.47,-5.09 z m 234.48,-22.89 c -0.02,-2.85 0.57,-5.71 1.94,-8.52 4.23,-8.63 14.92,-12.45 23.31,-12.38 10.17,0.07 19.93,4.27 28.96,8.78 30.16,15.08 50.69,33.76 61.04,55.51 l 1.17,2.6 -2.64,0.65 c -2.41,0.56 -4.83,1.03 -7.27,1.43 -21.25,-14.09 -46.22,-26.53 -75.15,-37.5 -10.77,-4.09 -21.21,-7.61 -31.36,-10.57 z m -235.16,14.82 c -0.86,-12.01 -0.8,-23.98 3.4,-34.75 1.35,-3.44 4.31,-7.55 8.43,-11.91 21.19,3.07 43.62,9.83 69.33,20.82 -21.79,18.47 -51.28,23.07 -81.16,25.84 z m -136.15,135.74 c -6.33,-23.49 -8.39,-46.56 -5.99,-68.23 4.5,-40.65 25.42,-76.7 55.97,-96.43 22.63,-14.61 52.41,-21.43 83.93,-19.25 1.43,0.1 2.86,0.22 4.28,0.35 -2.82,3.54 -4.94,6.96 -6.18,10.14 -4.82,12.33 -4.87,25.41 -3.93,38.38 -1.74,0.15 -3.49,0.3 -5.23,0.44 l -9.48,0.8 c -27.3,2.4 -61.48,8.2 -83.79,31.99 -1.53,1.63 -1.44,4.2 0.19,5.72 1.63,1.53 4.19,1.45 5.72,-0.18 20.42,-21.79 52.73,-27.2 78.58,-29.46 l 9.45,-0.8 c 1.75,-0.15 3.49,-0.29 5.25,-0.44 l 0.24,2.6 0.46,5.05 c 0.6,6.76 1.05,13.54 1.31,20.31 -13.19,1.68 -24.58,7.05 -32.41,15.64 -12.66,13.9 -16.19,35.19 -10.48,63.26 1.55,7.62 4.03,17.26 7.95,27.41 -8.86,-5.21 -18,-9.9 -27.39,-14 -11.99,-5.25 -27.8,-11.04 -43.81,-9.07 -9.81,1.2 -17.71,5.34 -22.26,11.66 -0.96,1.33 -1.75,2.71 -2.38,4.11 z m 482.89,-172.45 c -14.91,0 -29.49,-4.91 -40.46,-9.9 -4.86,-2.2 -9.73,-4.8 -12.39,-8.8 -2.13,-3.18 -2.54,-8.37 0.27,-10.71 2.58,-2.16 7.15,-1.73 10.84,-1.13 21.93,3.58 42.66,13.38 59.39,27.93 -5.8,1.84 -11.75,2.61 -17.65,2.61 z m 159.82,179.23 c -8.96,-8.23 -18.51,-15.94 -27.74,-23.4 -8.85,-7.15 -17.21,-13.9 -24.65,-20.74 -30.19,-27.75 -47.82,-54.48 -53.9,-81.7 -6.44,-28.89 2.73,-68.11 32.42,-83.87 10.94,-5.8 24.59,-8.59 42.94,-8.78 24.75,-0.45 49.03,3.63 72.39,11.56 24.35,8.25 40.97,19.36 50.81,33.97 16.99,25.2 11.77,57.76 1.21,79.83 -11.63,24.34 -31.55,43.61 -54.67,52.88 -3.34,1.34 -6.74,2.45 -10.19,3.36 1.56,-4.26 2.91,-8.53 4.05,-12.8 6.98,-26.13 5.17,-51.07 -5.09,-70.24 -12.48,-23.32 -38.28,-36.77 -61.45,-31.96 -23.41,4.86 -41.72,28.7 -41.67,54.27 0.04,23.07 14.15,46.43 35.92,59.53 15.99,9.61 35.63,13.6 55.04,11.74 -4.2,8.83 -9.34,17.62 -15.42,26.35 z M 2267.78,2794.9 c 16.71,-14.44 42.75,-29.04 62.57,-29.67 10.91,-0.27 17.87,3.47 21.65,11.62 3.45,7.43 -0.17,16.74 -3.82,23.25 -3.56,6.36 -7.6,11.83 -12.07,16.58 l -1.22,-0.54 c -24.69,-10.69 -46.5,-17.62 -67.11,-21.24 z m 168.59,28.79 c -6.84,-20.72 -7.75,-44.82 6.73,-62.7 6.6,-8.15 16.38,-14.81 30.77,-20.97 40.18,-17.19 87.17,-19.6 128.91,-6.59 14.8,4.61 33.53,13.58 38.72,30.1 5.19,16.52 -5.84,33.88 -20.38,42.16 -18.33,-16.93 -41.57,-28.33 -66.24,-32.36 -5.4,-0.88 -12.24,-1.35 -17.34,2.9 -6.48,5.41 -6.01,15.15 -1.82,21.43 3.79,5.68 9.83,8.97 15.78,11.68 24.42,11.09 47.1,13.53 65.59,7.07 l 2.48,-0.96 1.44,1.48 c 10.29,10.82 15.18,21.13 14.51,30.66 -1,14.42 -13.94,24.27 -27.64,29.61 -0.5,-1.18 -1.03,-2.37 -1.58,-3.54 -11.15,-23.42 -32.93,-43.36 -64.73,-59.27 -9.44,-4.71 -20.68,-9.55 -32.53,-9.63 h -0.3 c -13.41,0 -25.3,6.62 -30.34,16.91 -1.57,3.22 -2.42,6.53 -2.64,9.86 -13.57,-3.62 -26.65,-6.22 -39.39,-7.84 z m 111.21,-106.64 c -26.39,0 -52.81,5.22 -76.9,15.53 -9.84,4.21 -24.06,11.21 -33.87,23.31 -15.68,19.36 -15.69,44.68 -9.2,66.83 -1.02,-0.09 -2.04,-0.18 -3.06,-0.26 -25.27,-2.06 -46.25,0.25 -62.58,6.82 -6.14,-3.4 -12.22,-6.41 -18.03,-9.09 4.12,-4.71 7.9,-10.05 11.3,-16.13 6.56,-11.69 7.97,-22.28 4.11,-30.62 -5.16,-11.1 -15.26,-16.65 -29.25,-16.3 -23.04,0.73 -54.66,18.53 -72.72,36.2 -3.52,-0.43 -7.01,-0.77 -10.48,-1.02 -33.25,-2.33 -64.8,4.97 -88.9,20.54 -32.56,21.03 -54.86,59.28 -59.62,102.33 -4.07,36.78 4.1,77.29 23.65,117.14 5.24,10.69 11.09,20.95 17.5,30.72 -8.81,-0.09 -17.58,0.26 -26.42,1.15 -3.21,0.32 -11.72,1.18 -15.1,7.81 -3.78,7.41 1.14,16.03 12.52,21.95 36.23,18.85 73.92,35.67 112.22,50.09 6.05,3.63 12.24,6.97 18.55,10.02 53.77,25.93 116.99,29 169.14,8.2 4.64,-1.85 9.19,-3.89 13.64,-6.13 24.24,6.9 49.1,12.38 75.3,15.72 72.03,9.19 134.94,6.77 192.32,-7.43 65.54,-16.21 99.82,-44.39 104.81,-86.15 4.06,-33.89 -13.03,-59.63 -35.44,-81.57 7.76,-11.01 14.11,-22.15 19.01,-33.37 5.74,-1.13 11.39,-2.79 16.87,-4.98 24.98,-10.02 46.47,-30.75 58.97,-56.9 11.52,-24.1 17.09,-59.83 -1.81,-87.85 -10.87,-16.14 -28.83,-28.28 -54.92,-37.12 -24.23,-8.21 -49.54,-12.26 -75.07,-11.99 -12.4,0.14 -30.72,1.28 -46.65,9.73 -21.66,11.5 -33.6,33.18 -37.4,55.87 -2.77,-6.12 -7.11,-12.32 -13.02,-18.56 16.43,-10.44 28.33,-30.83 22.17,-50.43 -4.94,-15.73 -20.16,-27.97 -44.02,-35.42 -18.54,-5.77 -38.07,-8.64 -57.62,-8.64"
         style="fill:#17282f;fill-opacity:1;fill-rule:nonzero;stroke:none"
         id="path168" /><path
         d="m 1310.77,1313.46 79.52,-47.34 -34.95,68.75 -44.57,-21.41"
         style="fill:#406fbf;fill-opacity:1;fill-rule:nonzero;stroke:none"
         id="path170" /><path
         d="m 1390.29,1266.12 -62.16,37.01 39.72,7.13 22.44,-44.14"
         style="fill:#b8d2ef;fill-opacity:1;fill-rule:nonzero;stroke:none"
         id="path172" /><path
         d="m 1397.07,1315.52 -333.66,-59.97 c -44.32,-7.97 -86.715,21.51 -94.68,65.83 l -11.25,62.58 c -7.964,44.32 21.512,86.72 65.84,94.68 l 333.65,59.97 c 44.33,7.97 86.72,-21.51 94.69,-65.83 l 11.24,-62.58 c 7.97,-44.32 -21.51,-86.72 -65.83,-94.68"
         style="fill:#406fbf;fill-opacity:1;fill-rule:nonzero;stroke:none"
         id="path174" /><path
         d="m 1048.89,1254.25 c -38.72,0 -73.07,27.68 -80.16,67.13 l -11.25,62.58 c -0.871,4.85 -1.292,9.67 -1.296,14.43 -0.043,38.76 27.656,73.16 67.136,80.25 l 333.65,59.97 c 4.88,0.88 9.74,1.3 14.52,1.3 38.72,0 73.08,-27.68 80.17,-67.13 l 11.24,-62.58 c 0.87,-4.85 1.3,-9.67 1.3,-14.43 0.04,-38.76 -27.65,-73.16 -67.13,-80.25 l -29.22,-5.26 -39.72,-7.13 -34.9,-6.28 -26.3,-4.72 -203.52,-36.58 c -4.87,-0.88 -9.73,-1.3 -14.52,-1.3"
         style="fill:#b8d2ef;fill-opacity:1;fill-rule:nonzero;stroke:none"
         id="path176" /><path
         d="m 1052.8,1374.52 c -1.45,8.05 3.71,15.14 11.25,16.49 7.53,1.36 15.1,-3.44 16.55,-11.5 1.44,-8.05 -3.93,-15.46 -11.46,-16.81 -7.54,-1.36 -14.9,3.76 -16.34,11.82"
         style="fill:#17282f;fill-opacity:1;fill-rule:nonzero;stroke:none"
         id="path178" /><path
         d="m 1120.86,1386.75 c -1.44,8.05 3.72,15.14 11.26,16.5 7.53,1.35 15.1,-3.45 16.55,-11.5 1.44,-8.06 -3.93,-15.46 -11.46,-16.82 -7.54,-1.35 -14.9,3.77 -16.35,11.82"
         style="fill:#17282f;fill-opacity:1;fill-rule:nonzero;stroke:none"
         id="path180" /><path
         d="m 1188.93,1398.98 c -1.45,8.06 3.72,15.15 11.25,16.5 7.53,1.36 15.1,-3.44 16.55,-11.5 1.45,-8.05 -3.93,-15.46 -11.46,-16.81 -7.53,-1.36 -14.89,3.76 -16.34,11.81"
         style="fill:#17282f;fill-opacity:1;fill-rule:nonzero;stroke:none"
         id="path182" /><path
         d="m 1257,1411.22 c -1.45,8.05 3.72,15.14 11.25,16.5 7.53,1.35 15.1,-3.45 16.55,-11.51 1.45,-8.05 -3.93,-15.46 -11.46,-16.81 -7.53,-1.35 -14.89,3.76 -16.34,11.82"
         style="fill:#17282f;fill-opacity:1;fill-rule:nonzero;stroke:none"
         id="path184" /><path
         d="m 1325.07,1423.45 c -1.45,8.06 3.72,15.15 11.25,16.5 7.53,1.35 15.1,-3.45 16.55,-11.5 1.45,-8.06 -3.93,-15.46 -11.46,-16.81 -7.54,-1.36 -14.89,3.76 -16.34,11.81"
         style="fill:#17282f;fill-opacity:1;fill-rule:nonzero;stroke:none"
         id="path186" /><path
         d="m 2239.91,2350.43 c 0,0 -94.76,19.86 -178.03,-26.19 -83.28,-46.06 -76.88,-273.31 -138.8,-294.21 -61.93,-20.9 -79.01,-46.57 -66.2,-83.92 12.82,-37.34 -49.32,-43.75 -55.62,-62.97 -6.3,-19.22 -10.57,-44.84 -10.57,-44.84 0,0 56.12,20.76 87.55,-29.9 31.42,-50.65 93.8,-123.85 160.07,-121.71 66.27,2.13 130.64,-34.17 184.94,-56.59 54.3,-22.42 129.03,59.65 178.15,91.22 28.74,18.47 40.49,11.83 55.63,5.18 10.73,-4.71 23.17,-9.42 44.57,-5.18 51.59,10.21 62.08,48.65 62.08,48.65 0,0 -51.24,35.17 -17.08,100.86 34.17,65.69 -74.95,130.7 -45,215.81 29.95,85.1 -70.85,244.21 -261.69,263.79"
         style="fill:#17282f;fill-opacity:1;fill-rule:nonzero;stroke:none"
         id="path188" /><path
         d="m 2603.92,1799.01 -0.78,0.08 c -1.1,0.22 -27.23,5.49 -39.01,23.74 -5.48,8.49 -6.96,18.32 -4.39,29.21 1.06,4.49 2.21,8.86 3.34,13.14 8.42,32 15.07,57.28 -25.69,96.49 -37.7,36.28 -37.92,61.45 -38.29,103.15 -0.11,12.82 -0.24,27.34 -1.54,44.27 -0.17,2.22 1.5,4.17 3.73,4.34 2.22,0.11 4.18,-1.5 4.35,-3.73 1.31,-17.19 1.44,-31.87 1.56,-44.81 0.36,-40.93 0.55,-63.47 35.8,-97.38 44.19,-42.51 36.64,-71.19 27.9,-104.39 -1.11,-4.21 -2.23,-8.51 -3.28,-12.93 -2.04,-8.67 -0.94,-16.38 3.29,-22.94 9.89,-15.34 33.55,-20.16 33.78,-20.21 2.19,-0.43 3.63,-2.56 3.2,-4.75 -0.38,-1.93 -2.07,-3.28 -3.97,-3.28"
         style="fill:#17282f;fill-opacity:1;fill-rule:nonzero;stroke:none"
         id="path190" /><path
         d="m 1774.67,1887.09 c -1.77,0 -3.4,1.17 -3.89,2.97 -0.6,2.15 0.65,4.38 2.8,4.98 0.36,0.1 35.82,10.21 46.91,30.32 3.45,6.25 4.11,12.66 2.05,19.59 -12.61,42.22 16.65,75.54 86.98,99.04 50.49,16.87 55.75,61.66 61.85,113.52 2.28,19.43 4.64,39.53 9.45,59.78 20.21,85.09 70.63,124.18 149.8,116.02 2.23,-0.23 3.84,-2.22 3.62,-4.44 -0.23,-2.22 -2.29,-3.88 -4.44,-3.62 -75.54,7.76 -121.71,-28.18 -141.1,-109.84 -4.71,-19.78 -7.03,-39.64 -9.29,-58.85 -6.15,-52.33 -11.95,-101.75 -67.33,-120.25 -65.39,-21.86 -92.91,-51.81 -81.79,-89.03 2.69,-9.01 1.78,-17.7 -2.72,-25.84 -12.75,-23.09 -50.22,-33.75 -51.81,-34.19 l -1.09,-0.16"
         style="fill:#17282f;fill-opacity:1;fill-rule:nonzero;stroke:none"
         id="path192" /><path
         d="m 3372.63,1096.11 c -33.37,53.1 -67.38,102.61 -101.46,146.24 -74.96,95.94 -206.34,127.89 -316.2,75.4 -19.83,-9.47 -39.53,-19.18 -59.06,-29.1 -446.45,-225.89 -816.62,-556.56 -816.62,-556.56 l 14.25,-27.36 0.1,-0.199 C 1790.31,593.66 1511.57,267.102 1688.19,156.711 c 204.99,-128.1212 432.4,-60.5313 658.25,60.668 l 0.04,-0.059 1.13,0.641 c 0.65,0.328 1.62,0.809 2.75,1.461 36.6,19.43 325.81,182.008 712.66,625.859 161.93,-199.172 394.6,-363.609 560.9,-588.691 24.94,-7.281 165.85,-11.758 161.32,11.719 0,0 -191.74,475.601 -412.61,827.801"
         style="fill:#17282f;fill-opacity:1;fill-rule:nonzero;stroke:none"
         id="path194" /><path
         d="m 3316.06,585.059 c -1.23,1.171 -2.48,2.351 -3.71,3.523 v 0 c 1.24,-1.184 2.47,-2.34 3.71,-3.523"
         style="fill:#ffffff;fill-opacity:1;fill-rule:nonzero;stroke:none"
         id="path196" /><path
         d="m 3290.39,609.359 c -45.15,42.789 -89.56,85.34 -131.59,128.801 0.01,0.02 0.01,0.012 0.02,0.02 42.02,-43.45 86.43,-86.008 131.58,-128.821 h -0.01"
         style="fill:#f6f6f4;fill-opacity:1;fill-rule:nonzero;stroke:none"
         id="path198" /><path
         d="m 3312.35,588.582 c -7.33,6.93 -14.66,13.859 -21.96,20.777 h 0.01 c 7.3,-6.91 14.62,-13.839 21.95,-20.777 v 0 M 3158.8,738.16 c -1.43,1.488 -2.86,2.969 -4.29,4.461 v 0 c -0.01,0.02 -0.02,0.039 -0.03,0.059 1.44,-1.489 2.9,-3 4.34,-4.5 -0.01,-0.008 -0.01,0 -0.02,-0.02 m 233.32,326.44 c -0.24,0.39 -0.5,0.81 -0.74,1.21 0.24,-0.4 0.5,-0.82 0.74,-1.21"
         style="fill:#ececea;fill-opacity:1;fill-rule:nonzero;stroke:none"
         id="path200" /><path
         d="m 3381.3,1082.19 c -0.45,0.74 -0.91,1.48 -1.36,2.21 0.45,-0.73 0.91,-1.47 1.36,-2.21 m -8.67,13.92 c -4.66,7.41 -9.32,14.75 -14,22.01 v 0.01 c 4.68,-7.27 9.35,-14.61 14,-22.02"
         style="fill:#ffffff;fill-opacity:1;fill-rule:nonzero;stroke:none"
         id="path202" /><path
         d="m 3358.63,1118.12 c -19.19,29.77 -38.55,58.27 -57.99,85.05 19.46,-26.77 38.82,-55.27 57.99,-85.04 v -0.01"
         style="fill:#f6f6f4;fill-opacity:1;fill-rule:nonzero;stroke:none"
         id="path204" /><path
         d="m 3232.73,1282.11 c -2.3,1.92 -4.63,3.81 -6.99,5.64 l 0.01,0.01 c 2.35,-1.84 4.69,-3.72 6.98,-5.65 v 0 m -31.85,22.81 c -10.71,6.51 -21.83,12.21 -33.27,17.09 0.01,0.01 0.01,0.02 0.02,0.03 11.45,-4.88 22.56,-10.58 33.27,-17.1 l -0.02,-0.02"
         style="fill:#ffffff;fill-opacity:1;fill-rule:nonzero;stroke:none"
         id="path206" /><path
         d="m 3235.42,1279.83 c -0.89,0.77 -1.79,1.53 -2.69,2.28 v 0 c 0.9,-0.75 1.8,-1.51 2.69,-2.28 m -292.19,32.28 c 3.91,1.9 7.84,3.8 11.78,5.69 35.52,16.97 73.3,25.11 110.71,25.11 35.03,0 69.73,-7.15 101.91,-20.87 -0.01,-0.01 -0.01,-0.02 -0.02,-0.03 -32.18,13.72 -66.88,20.86 -101.91,20.86 -37.41,0 -75.19,-8.14 -110.73,-25.12 -3.92,-1.87 -7.83,-3.75 -11.74,-5.64"
         style="fill:#f6f6f4;fill-opacity:1;fill-rule:nonzero;stroke:none"
         id="path208" /><path
         d="m 3225.74,1287.75 c -7.99,6.23 -16.29,11.96 -24.86,17.17 l 0.02,0.02 c 8.56,-5.22 16.86,-10.95 24.85,-17.18 l -0.01,-0.01"
         style="fill:#ececea;fill-opacity:1;fill-rule:nonzero;stroke:none"
         id="path210" /><path
         d="m 2894.38,1287.87 c 0.51,0.26 1.01,0.52 1.53,0.78 -0.52,-0.27 -1.01,-0.51 -1.53,-0.78"
         style="fill:#f6f6f4;fill-opacity:1;fill-rule:nonzero;stroke:none"
         id="path212" /><path
         d="m 3701.72,250.801 c -33.53,0 -66.82,2.668 -77.77,5.859 -90.37,122.309 -200.32,226.641 -307.89,328.399 -1.24,1.183 -2.47,2.339 -3.71,3.523 -7.33,6.938 -14.65,13.867 -21.95,20.777 -45.15,42.813 -89.56,85.371 -131.58,128.821 -1.44,1.5 -2.9,3.011 -4.34,4.5 -120.62,296.95 -207.24,456.75 -265.21,542.57 -0.21,-0.11 -0.41,-0.21 -0.62,-0.32 v 0 c 0.21,0.11 0.41,0.21 0.62,0.32 1.75,0.87 3.4,1.75 5.11,2.62 0.52,0.27 1.01,0.51 1.53,0.78 v 0 c 15.72,7.92 31.43,15.74 47.32,23.46 3.91,1.89 7.82,3.77 11.74,5.64 35.54,16.98 73.32,25.12 110.73,25.12 35.03,0 69.73,-7.14 101.91,-20.86 11.44,-4.88 22.56,-10.58 33.27,-17.09 8.57,-5.21 16.87,-10.94 24.86,-17.17 2.36,-1.83 4.69,-3.72 6.99,-5.64 0.9,-0.75 1.8,-1.51 2.69,-2.28 12.92,-11.12 24.89,-23.64 35.68,-37.49 9.86,-12.58 19.71,-25.65 29.54,-39.17 19.44,-26.78 38.8,-55.28 57.99,-85.05 4.68,-7.26 9.34,-14.6 14,-22.01 v 0 c 2.44,-3.89 4.87,-7.79 7.31,-11.71 0.45,-0.73 0.91,-1.47 1.36,-2.21 1.08,-1.73 2.18,-3.51 3.25,-5.25 0.87,-1.41 1.74,-2.83 2.61,-4.25 0.29,-0.45 0.57,-0.91 0.85,-1.37 1.14,-1.86 2.24,-3.65 3.37,-5.51 0.24,-0.4 0.5,-0.82 0.74,-1.21 212.54,-348.37 393.11,-796.28 393.11,-796.28 2.54,-13.172 -40.67,-17.519 -83.51,-17.519"
         style="fill:#405158;fill-opacity:1;fill-rule:nonzero;stroke:none"
         id="path214" /><path
         d="m 2090.94,110.59 c 84.53,22.82 170.12,60.969 255.5,106.789 l 0.04,-0.059 1.13,0.641 c 0.65,0.328 1.62,0.809 2.75,1.461 2.72,1.449 6.84,3.68 12.3,6.769 v 0 c -5.46,-3.089 -9.58,-5.32 -12.3,-6.769 -1.13,-0.652 -2.1,-1.133 -2.75,-1.461 l -1.13,-0.641 c -85.39,-45.789 -171,-83.929 -255.54,-106.73"
         style="fill:#bcbebc;fill-opacity:1;fill-rule:nonzero;stroke:none"
         id="path216" /><path
         d="m 3137.94,760.039 c -9.41,10.012 -18.68,20.07 -27.78,30.191 0,0.012 0.01,0.02 0.01,0.032 9.1,-10.133 18.38,-20.203 27.78,-30.203 -0.01,-0.008 0,0 -0.01,-0.02"
         style="fill:#c4c5c2;fill-opacity:1;fill-rule:nonzero;stroke:none"
         id="path218" /><path
         d="m 3110.16,790.23 c -16.27,18.102 -32.03,36.418 -47.14,55.051 -15.42,-17.691 -30.71,-34.961 -45.81,-51.769 v 0 c 15.1,16.808 30.39,34.078 45.81,51.769 15.14,-18.621 30.89,-36.929 47.15,-55.019 0,-0.012 -0.01,-0.02 -0.01,-0.032"
         style="fill:#bcbebc;fill-opacity:1;fill-rule:nonzero;stroke:none"
         id="path220" /><path
         d="m 3154.51,742.621 c -5.57,5.789 -11.1,11.598 -16.57,17.418 0.01,0.02 0,0.012 0.01,0.02 5.47,-5.821 10.97,-11.59 16.53,-17.379 0.01,-0.02 0.02,-0.039 0.03,-0.059"
         style="fill:#b4b6b4;fill-opacity:1;fill-rule:nonzero;stroke:none"
         id="path222" /><path
         d="m 1930.24,87.6914 c -23.4,0 -46.64,1.6172 -69.7,5.0508 168.85,25.4378 321.87,137.4768 321.87,137.4768 v 0 0 l -0.02,0.121 0.05,-0.07 c 0,0 209.86,159.339 479.8,568.859 39.94,-78.41 83.17,-159.84 125.27,-241.93 -35.61,-33.66 -69.6,-64.418 -101.74,-92.41 -5.11,-4.457 -10.18,-8.84 -15.2,-13.16 -0.97,-0.828 -1.94,-1.668 -2.91,-2.5 -155.65,-133.469 -265.43,-200.547 -305,-222.938 -5.46,-3.089 -9.58,-5.32 -12.3,-6.769 -1.13,-0.652 -2.1,-1.133 -2.75,-1.461 l -1.13,-0.641 -0.04,0.059 C 2261.06,171.559 2175.47,133.41 2090.94,110.59 2036.82,96 1983.13,87.6914 1930.24,87.6914 M 3154.48,742.68 c -5.56,5.789 -11.06,11.558 -16.53,17.379 -9.4,10 -18.68,20.07 -27.78,30.203 -16.26,18.09 -32.01,36.398 -47.15,55.019 -15.42,-17.691 -30.71,-34.961 -45.81,-51.769 -27.3,147.488 -62.27,301.208 -105.92,432.468 -3.3,9.91 -6.65,19.69 -10.04,29.33 -3.63,10.29 -7.85,20.18 -12.6,29.62 0.21,0.11 0.41,0.21 0.62,0.32 57.97,-85.82 144.59,-245.62 265.21,-542.57"
         style="fill:#313d43;fill-opacity:1;fill-rule:nonzero;stroke:none"
         id="path224" /><path
         d="m 2588.5,2185.64 -62.98,138.6 -110.82,-73.71 c 0,0 30.41,-103.07 118.74,-110.54 l 55.06,45.65"
         style="fill:#f8a361;fill-opacity:1;fill-rule:nonzero;stroke:none"
         id="path226" /><path
         d="m 2439.63,2390.3 -69.45,-74.71 44.52,-65.06 110.82,73.71 -85.89,66.06"
         style="fill:#f8a361;fill-opacity:1;fill-rule:nonzero;stroke:none"
         id="path228" /><path
         d="m 2398.27,1622.38 c 129.68,67.82 260.05,144.29 364.12,247.8 l -9.98,-14.04 c -1.78,-3.2 -2.57,-6.85 -2.88,-9.3 -2.93,29.83 -53.27,98.91 -85.13,137.38 -51,62.8 -109.11,123.87 -165.21,182.65 -35.71,38.22 11.78,96.22 56.2,69.07 37.56,-23.35 72.23,-48.08 106.95,-74.4 98.88,-77.89 323.73,-257.78 221.84,-399.07 -107.25,-128.02 -246.21,-223.06 -394.57,-296.25 l -15.59,-7.23 c -45.1,-20.93 -98.62,-1.34 -119.54,43.76 -21.09,45.2 -0.97,98.81 43.79,119.63"
         style="fill:#f8a460;fill-opacity:1;fill-rule:nonzero;stroke:none"
         id="path230" /><path
         d="m 2585,1463.53 c 0,0 -71.41,-40.8 -144.77,-71.25 -48.09,-20.08 -96.99,-35.62 -127.11,-32.22 l -6.64,22.99 -83.23,287.75 c 0,0 145.74,-19.75 351.06,69.63 0,0 58.78,-131.65 10.69,-276.9"
         style="fill:#406fbf;fill-opacity:1;fill-rule:nonzero;stroke:none"
         id="path232" /><path
         d="m 2369.97,1367.38 c 7.45,12.55 15.1,25.34 22.94,38.36 11.11,18.44 23.7,40.7 35.34,64.36 7.19,-22.31 12.48,-48.8 11.98,-77.82 v 0 c -24.03,-10.03 -48.27,-18.93 -70.26,-24.9"
         style="fill:#3563b7;fill-opacity:1;fill-rule:nonzero;stroke:none"
         id="path234" /><path
         d="m 1664.45,1537.3 c -17.12,-55.91 -35.87,-96.89 -64.76,-233.61 -26.63,-115.12 -49.37,-229.35 -83.84,-420.588 l 573.43,-156.383 c 32.53,164.691 101.55,343.641 303.63,679.021 46.86,77.76 119.97,223.51 37.31,255.32 -11.1,4.28 -48.95,-4.17 -86.94,-12.61 -37.57,-8.35 -75.28,-16.7 -87.41,-12.76 -94.88,30.88 -172.87,55.45 -260.39,71 -29.01,5.16 -59.31,9.59 -88.41,13.35 -105.04,13.54 -211.95,-82.55 -242.62,-182.74"
         style="fill:#406fbf;fill-opacity:1;fill-rule:nonzero;stroke:none"
         id="path236" /><path
         d="m 1938.13,1750.48 c 0,0 37.26,10.93 119.48,7.74 119.64,-4.63 207.13,-137.73 207.13,-137.73 0,0 12.81,-116.37 -32.04,-192.71 l -77.94,76.34 -106.76,-69.4 c 0,0 -129.09,218.6 -109.87,315.76"
         style="fill:#406fbf;fill-opacity:1;fill-rule:nonzero;stroke:none"
         id="path238" /><path
         d="m 2232.7,1427.78 -77.94,76.34 -106.76,-69.4 c 0,0 -20.44,34.61 -43.85,82.42 27.44,29.71 42.78,53.71 42.78,53.71 -26.26,8.69 -50.97,13.81 -74.23,16.03 -20.18,49.43 -36.52,101.78 -36.52,141.75 0,7.79 0.61,15.11 1.95,21.85 0,0 28.4,8.32 90.29,8.32 3.89,0 7.92,-0.03 12.07,-0.1 -13.67,-18.52 -29.69,-32.32 -48.39,-38.37 v 0 0 c 0,0 40.61,-104.11 162.66,-197 50.59,38.35 54.46,99.75 54.46,117.67 0,3.25 -0.13,5.07 -0.13,5.07 0,0 -17.15,20.49 -17.93,54.53 45.74,-37.76 73.58,-80.11 73.58,-80.11 0,0 1.69,-15.35 1.69,-38.57 0,-40.69 -5.17,-105.53 -33.73,-154.14"
         style="fill:#b8d2ef;fill-opacity:1;fill-rule:nonzero;stroke:none"
         id="path240" /><path
         d="m 2107.73,1964.59 c -10.59,-80.01 -42.92,-220.73 -115.63,-244.26 0,0 40.61,-104.11 162.66,-197 59.75,45.3 54.33,122.74 54.33,122.74 0,0 -44.72,53.43 6.95,131.06 l -108.31,187.46"
         style="fill:#f8a361;fill-opacity:1;fill-rule:nonzero;stroke:none"
         id="path242" /><path
         d="m 2154.76,1523.33 c -122.05,92.89 -162.66,197 -162.66,197 53.28,17.24 84.88,97.43 102.13,170.54 1.39,-3.72 2.88,-7.49 4.48,-11.3 2.23,-5.32 4.66,-10.74 7.3,-16.29 23.54,-49.37 59.78,-83.96 100.14,-102.87 -11.19,-21.63 -15.02,-41.01 -15.02,-57.4 0,-35.48 17.96,-56.94 17.96,-56.94 0,0 0.13,-1.82 0.13,-5.07 0,-17.92 -3.87,-79.32 -54.46,-117.67"
         style="fill:#e09357;fill-opacity:1;fill-rule:nonzero;stroke:none"
         id="path244" /><path
         d="m 2112.41,2153.95 c -34.08,-138.54 -51.38,-196.31 -6.4,-290.67 67.65,-141.92 240.33,-161.69 313.92,-38.11 66.23,111.23 110.85,319.11 -1.5,421.09 -110.69,100.47 -271.93,46.24 -306.02,-92.31"
         style="fill:#f8a361;fill-opacity:1;fill-rule:nonzero;stroke:none"
         id="path246" /><path
         d="m 2426.75,2005.6 28.59,-1.72 c 0,0 -19.79,-16.61 -28.59,1.72"
         style="fill:#17282f;fill-opacity:1;fill-rule:nonzero;stroke:none"
         id="path248" /><path
         d="m 2356.6,2001.86 c 0,0 4.08,-56.37 17.51,-87.8 -18.58,-8.85 -41.23,6.68 -41.23,6.68 l 23.72,81.12"
         style="fill:#ef7937;fill-opacity:1;fill-rule:nonzero;stroke:none"
         id="path250" /><path
         d="m 2261.73,1936.27 c -5.14,3.49 -10.87,6.72 -17.26,9.56 -1.73,0.77 -3.67,-0.09 -4.34,-1.92 -0.66,-1.82 0.16,-3.89 1.93,-4.7 46.72,-20.71 55.99,-64.98 56.08,-65.42 0.38,-1.96 2.17,-3.25 3.98,-2.9 1.81,0.36 2.97,2.23 2.58,4.17 -0.34,1.72 -7.79,37.37 -42.97,61.21"
         style="fill:#17282f;fill-opacity:1;fill-rule:nonzero;stroke:none"
         id="path252" /><path
         d="m 2339.25,2109.38 c -1.81,0.13 -3.63,-0.48 -4.98,-1.83 -21.04,-21.15 -45.95,-15.05 -46.24,-14.98 -3.69,0.92 -7.3,-1.3 -7.99,-5.06 -0.67,-3.75 1.81,-7.56 5.55,-8.53 1.3,-0.33 32.57,-8.02 58.68,18.24 2.6,2.62 2.47,7.05 -0.28,9.91 -1.33,1.37 -3.04,2.13 -4.74,2.25"
         style="fill:#17282f;fill-opacity:1;fill-rule:nonzero;stroke:none"
         id="path254" /><path
         d="m 2435.31,2085.91 c -1.54,0.77 -3.33,0.97 -5.02,0.39 -3.49,-1.2 -5.26,-5.21 -3.95,-8.96 13.14,-37.56 43.48,-46.69 44.78,-47.05 3.65,-1.05 7.25,1.17 8.06,4.97 0.81,3.78 -1.49,7.7 -5.11,8.76 -1.2,0.34 -24.65,7.78 -35.08,37.65 -0.68,1.93 -2.04,3.41 -3.68,4.24"
         style="fill:#17282f;fill-opacity:1;fill-rule:nonzero;stroke:none"
         id="path256" /><path
         d="m 2426.75,2005.6 c 0,0 -10.58,-19.62 -33.31,-0.76 0,0 14.27,-34.55 42.7,-7.51 l -9.39,8.27"
         style="fill:#17282f;fill-opacity:1;fill-rule:nonzero;stroke:none"
         id="path258" /><path
         d="m 2286.37,2040.15 28.59,-1.73 c 0,0 -19.79,-16.61 -28.59,1.73"
         style="fill:#17282f;fill-opacity:1;fill-rule:nonzero;stroke:none"
         id="path260" /><path
         d="m 2286.37,2040.15 c 0,0 -10.58,-19.63 -33.31,-0.77 0,0 14.26,-34.55 42.7,-7.51 l -9.39,8.28"
         style="fill:#17282f;fill-opacity:1;fill-rule:nonzero;stroke:none"
         id="path262" /><path
         d="m 2111.88,2274.33 c 0,0 94.41,160.28 295.12,66.03 200.71,-94.25 100.02,-301.78 100.02,-301.78 l -40.7,26.9 1.14,79.43 c 0,0 -20.86,-40.91 -65.9,-53.86 0,0 42.61,30.86 57.19,65.37 0,0 -38.66,-44.5 -86.94,-45.71 l -102.52,24.18 c 0,0 50.87,17.15 76.13,44.61 0,0 -89.35,-46.45 -161.4,-54.54 l -73.85,-88.51 -71.85,63.81 c 0,0 -2.34,160.88 73.56,174.07"
         style="fill:#17282f;fill-opacity:1;fill-rule:nonzero;stroke:none"
         id="path264" /><path
         d="m 2033.98,2058.53 c 6.35,-33.02 26.15,-59.22 47.73,-73.31 32.47,-21.19 59.68,8.71 59.85,48.52 0.15,35.83 -16.56,90.03 -53.57,94.99 -36.47,4.88 -61.27,-32.44 -54.01,-70.2"
         style="fill:#f8a361;fill-opacity:1;fill-rule:nonzero;stroke:none"
         id="path266" /><path
         d="m 2094.23,1890.87 c -5.51,14.75 -9.38,28.82 -11.86,42.74 2.49,-13.92 6.37,-27.97 11.87,-42.73 l -0.01,-0.01"
         style="fill:#142228;fill-opacity:1;fill-rule:nonzero;stroke:none"
         id="path268" /><path
         d="m 2098.71,1879.57 c -1.6,3.81 -3.09,7.58 -4.48,11.3 l 0.01,0.01 c 1.38,-3.72 2.88,-7.49 4.47,-11.31"
         style="fill:#c5844f;fill-opacity:1;fill-rule:nonzero;stroke:none"
         id="path270" /><path
         d="m 2242.68,1747.88 c -54.41,12.31 -106.07,51.5 -136.67,115.46 -2.65,5.53 -5.07,10.93 -7.3,16.23 -1.59,3.82 -3.09,7.59 -4.47,11.31 v 0 c -5.5,14.76 -9.38,28.81 -11.87,42.73 -3.13,17.62 -4,35 -3.09,53.26 0.81,-0.57 1.62,-1.11 2.43,-1.65 7.42,-4.84 14.56,-7.01 21.17,-7.01 22.32,-0.01 38.55,24.81 38.68,55.53 0.04,10.64 -1.4,22.91 -4.42,35.03 l 46.88,56.19 c 7.04,0.79 14.25,1.95 21.53,3.39 12.77,-46.48 27.87,-111.3 36.4,-182.48 -0.8,-0.34 -1.48,-1.02 -1.82,-1.96 -0.66,-1.82 0.16,-3.89 1.93,-4.7 0.24,-0.1 0.47,-0.21 0.7,-0.31 6.99,-61.79 8.87,-128.02 -0.08,-191.02"
         style="fill:#e09357;fill-opacity:1;fill-rule:nonzero;stroke:none"
         id="path272" /><path
         d="m 2242.76,1938.9 c -0.23,0.1 -0.46,0.21 -0.7,0.31 -1.77,0.81 -2.59,2.88 -1.93,4.7 0.34,0.94 1.02,1.62 1.82,1.96 0.28,-2.31 0.55,-4.65 0.81,-6.97"
         style="fill:#142228;fill-opacity:1;fill-rule:nonzero;stroke:none"
         id="path274" /><path
         d="m 2137.14,2068.77 c -5.48,21.96 -16.15,43.43 -32.54,53.83 2.57,9.99 5.15,20.46 7.89,31.4 5.66,23.32 15.05,44.21 27.2,62.35 22.35,-4.54 43.4,-15.39 43.4,-15.39 0,0 10.15,-27.78 22.46,-72.61 -7.28,-1.44 -14.49,-2.6 -21.53,-3.39 l -46.88,-56.19 m -39.43,57.39 c -2.96,1.19 -6.08,2.05 -9.35,2.52 0,0.02 0,0.04 0,0.06 3.3,-0.44 6.41,-1.33 9.35,-2.58"
         style="fill:#142228;fill-opacity:1;fill-rule:nonzero;stroke:none"
         id="path276" /><path
         d="m 2102.88,1978.21 c -6.61,0 -13.75,2.17 -21.17,7.01 -0.81,0.54 -1.62,1.08 -2.43,1.65 0,0.06 0.01,0.12 0.01,0.18 l -0.81,0.65 c 5.02,48.72 9.23,100.67 9.88,140.98 3.27,-0.47 6.39,-1.33 9.35,-2.52 2.39,-1.02 4.66,-2.28 6.84,-3.73 0.02,0.06 0.03,0.11 0.05,0.17 16.39,-10.4 27.06,-31.87 32.54,-53.83 3.02,-12.12 4.46,-24.39 4.42,-35.03 -0.13,-30.72 -16.36,-55.54 -38.68,-55.53"
         style="fill:#e09357;fill-opacity:1;fill-rule:nonzero;stroke:none"
         id="path278" /><path
         d="m 1788.18,1405.38 c -30.54,0 -62.95,6.59 -96.79,22.4 0,0 81.76,160.41 254.01,160.41 8.86,0 17.97,-0.42 27.3,-1.31 10.04,-24.6 21.04,-48.48 31.45,-69.74 -44.61,-48.32 -121.23,-111.76 -215.97,-111.76"
         style="fill:#3563b7;fill-opacity:1;fill-rule:nonzero;stroke:none"
         id="path280" /><path
         d="m 2004.15,1517.14 c -10.41,21.26 -21.41,45.14 -31.45,69.74 23.26,-2.22 47.97,-7.34 74.23,-16.03 0,0 -15.34,-24 -42.78,-53.71"
         style="fill:#8fa5cb;fill-opacity:1;fill-rule:nonzero;stroke:none"
         id="path282" /><path
         d="m 1826.76,1720.15 c 83.94,5.02 180.11,4.16 257.87,31.6 -4.83,-3.64 -10.07,-9.55 -12.94,-14.55 -1.37,-2.62 -1.42,-2.71 -1.78,-3.9 6.23,13.22 8.74,36.3 11.4,55.35 12.57,115.68 12.24,289.62 15.86,408.01 1.77,53.1 76.88,60.32 88.78,8.65 21.93,-104.72 37.05,-209.45 45.12,-316.19 3.21,-71.52 17.66,-200.89 -36.77,-256.79 -84.31,-78.89 -258.51,-93.18 -368.23,-92.28 -117.72,6.64 -116.85,174.35 0.69,180.1"
         style="fill:#f8a460;fill-opacity:1;fill-rule:nonzero;stroke:none"
         id="path284" /><path
         d="m 1627.67,1420.41 c 0,0 13.54,230.9 113.91,300.91 100.36,70 234.88,22.64 234.88,22.64 0,0 24.7,-133.57 -11.14,-235.29 0,0 -199.59,-106.84 -337.65,-88.26"
         style="fill:#406fbf;fill-opacity:1;fill-rule:nonzero;stroke:none"
         id="path286" /><path
         d="m 2094.9,2203.89 41.26,146.54 120.7,-56.08 c 0,0 -14.44,-106.49 -100.62,-127.24 l -61.34,36.78"
         style="fill:#f8a361;fill-opacity:1;fill-rule:nonzero;stroke:none"
         id="path288" /><path
         d="m 2211.06,2428.73 79.96,-63.33 -34.16,-71.05 -120.7,56.08 74.9,78.3"
         style="fill:#f8a361;fill-opacity:1;fill-rule:nonzero;stroke:none"
         id="path290" /><path
         d="m 2911.29,1225.98 c -3.3,9.91 -6.65,19.69 -10.04,29.33 -56.53,160.4 -255.15,218.72 -389.74,114.75 -13.07,-10.1 -26.04,-20.3 -38.89,-30.57 -249.05,-198.85 -455.35,-424.74 -563.68,-551.529 l -0.04,-0.051 -393.05,95.192 c 0,0 -282.49,-514.993 53.97,-743.27 84.62,-57.4101 146.2,-52.1914 225.34,-52.1914 192.51,0 387.25,142.5784 387.25,142.5784 l -0.02,0.121 0.05,-0.07 c 0,0 209.86,159.339 479.8,568.859 96.83,-190.098 212.94,-397.859 285.65,-590.07 22.18,-13.77 147.19,-20.571 149.3,3.07 0,0 -52.31,612.101 -185.9,1013.851"
         style="fill:#17282f;fill-opacity:1;fill-rule:nonzero;stroke:none"
         id="path292" /><path
         d="m 1759.71,87.5195 c -63.2,0 -118.3,3.7422 -189.89,52.3125 -75.3,51.09 -119.61,116.566 -143.01,187.387 -15.6,47.23 -21.91,96.832 -21.93,146.172 -0.07,207.281 110.97,409.711 110.97,409.711 l 393.05,-95.192 0.04,0.051 c 108.33,126.789 314.63,352.679 563.68,551.529 12.85,10.27 25.82,20.47 38.89,30.57 46.04,35.56 99.55,52.14 152.32,52.14 101.51,0 200.23,-61.36 237.42,-166.89 3.39,-9.64 6.74,-19.42 10.04,-29.33 133.59,-401.75 185.9,-1013.851 185.9,-1013.851 -1.01,-11.238 -29.79,-15.598 -62.1,-15.598 -35.64,0 -75.57,5.309 -87.2,12.528 -42.72,112.929 -100.41,231.211 -160.38,348.14 -42.1,82.09 -85.33,163.52 -125.27,241.93 C 2392.3,389.609 2182.44,230.27 2182.44,230.27 l -0.05,0.07 0.02,-0.121 c 0,0 -153.02,-112.039 -321.87,-137.4768 v 0 c -0.08,-0.0117 -0.18,-0.0313 -0.26,-0.043 -21.55,-3.2383 -43.34,-5.0586 -65.12,-5.0586 -12.18,0 -23.95,-0.1211 -35.45,-0.1211 M 1908.9,787.91 C 1762.33,766.762 1765.06,599.801 1765.06,599.801 1805.64,665.988 1908.9,787.91 1908.9,787.91"
         style="fill:#405158;fill-opacity:1;fill-rule:nonzero;stroke:none"
         id="path294" /><path
         d="m 3223.7,89.5703 c -110.11,0 -124.66,1.6992 -186.53,3.7813 -52.98,1.8906 -65.66,-4.7305 -108.23,-3.7813 -35.57,0.7617 -34.24,34.8087 -23.27,73.9807 5.49,19.668 13.95,61.258 21.51,93.039 l 161.32,11.719 c 22.7,-43.329 73.92,-105.129 135.98,-113.469 59.22,-7.942 43.12,-65.2697 -0.78,-65.2697"
         style="fill:#17282f;fill-opacity:1;fill-rule:nonzero;stroke:none"
         id="path296" /><path
         d="m 3920.44,89.5703 c -110.11,0 -124.66,1.6992 -186.53,3.7813 -52.98,1.8906 -65.66,-4.7305 -108.23,-3.7813 -35.57,0.7617 -34.24,34.8087 -23.27,73.9807 5.49,19.668 13.95,61.258 21.51,93.039 l 161.32,11.719 c 22.7,-43.329 73.92,-105.129 135.98,-113.469 59.22,-7.942 43.12,-65.2697 -0.78,-65.2697"
         style="fill:#17282f;fill-opacity:1;fill-rule:nonzero;stroke:none"
         id="path298" /><path
         d="m 1765.06,599.801 c 0,0 -2.73,166.961 143.84,188.109 0,0 -103.26,-121.922 -143.84,-188.109"
         style="fill:#313d43;fill-opacity:1;fill-rule:nonzero;stroke:none"
         id="path300" /></g></g></svg>
