<svg width="82" height="82" viewBox="0 0 82 82" fill="none" xmlns="http://www.w3.org/2000/svg">
<circle cx="41" cy="41" r="41" fill="#0056CC" fill-opacity="0.5"/>
<mask id="mask0_1111_6597" style="mask-type:alpha" maskUnits="userSpaceOnUse" x="0" y="0" width="82" height="82">
<circle cx="41" cy="41" r="41" fill="white"/>
</mask>
<g mask="url(#mask0_1111_6597)">
<path d="M57.2919 59.6055L66.6593 57.4921C66.6593 57.4921 74.5226 80.2182 77.644 81.8025C81.8897 83.9584 90.4916 89.4378 95.8893 91.0727C96.4818 92.0557 97.2309 94.9777 96.9404 95.9524C89.0888 97.2145 73.3661 91.343 70.33 88.2138C63.4102 81.0803 57.2919 59.6055 57.2919 59.6055" fill="#F89E63"/>
<path d="M50.6099 45.578C48.563 51.532 60.4251 70.0715 60.4251 70.0715L71.9755 64.1813C71.9755 64.1813 70.0744 54.3319 65.302 47.0916C61.3403 41.0845 52.8548 39.041 50.6099 45.578Z" fill="#2D5BB2"/>
<path d="M60.6469 69.1676C62.6746 65.7142 64.248 60.1434 60.4975 55.8356C60.7282 59.5491 60.8273 64.0022 60.6469 69.1676Z" fill="#244D9B"/>
<path d="M59.3443 45.6241C60.5994 52.7857 62.6269 71.4771 56.8719 99.9831L24.1551 96.9248C23.912 91.373 27.3692 64.7276 22.0981 38.1852C22.0981 38.1852 28.2162 37.5186 34.0482 37.7799C38.6114 37.9851 45.2163 38.4555 49.2257 39.1986C51.6538 39.6503 53.8409 40.3482 55.4925 40.9723C57.4985 41.7275 58.9752 43.5181 59.3443 45.6241Z" fill="#406FBF"/>
<path d="M40.5846 89.9531C47.0335 90.5559 53.2232 89.8824 58.9213 88.141C59.3848 84.8996 59.7454 81.8192 60.018 78.903C61.5809 62.1473 60.2593 50.8347 59.3456 45.6246C58.9764 43.5185 57.4997 41.728 55.4937 40.9727C54.0069 40.4113 52.0865 39.7891 49.9469 39.3424C50.875 39.5356 51.7627 39.7639 52.5918 40.0053C53.331 43.2138 52.9415 48.1214 47.9431 51.8851L46.4581 53.0034L44.7332 52.0429C36.9881 47.7369 31.7718 39.6423 31.5536 39.3009L30.5487 37.7235C31.5633 37.7152 32.6066 37.7249 33.6473 37.763C28.9681 37.5875 24.1998 37.985 22.6332 38.1325C22.8693 38.1377 23.1064 38.1497 23.3376 38.1713C27.9188 38.5996 31.2646 42.3745 30.7075 48.3342C30.6552 48.8937 30.5689 49.4736 30.4454 50.072C30.1581 51.4645 29.8249 52.8595 29.4719 54.2137C29.5843 59.229 28.7622 66.5783 25.046 71.2847C25.05 76.7545 24.8609 81.6876 24.654 85.7809C29.6269 87.9844 34.9849 89.4296 40.5846 89.9531M49.9353 39.3397C49.9238 39.3369 49.9105 39.334 49.8973 39.331C49.9105 39.334 49.9238 39.3369 49.9353 39.3397ZM34.0125 37.7786C34.0259 37.7798 34.0377 37.7792 34.0495 37.7803C34.0377 37.7792 34.0259 37.7798 34.0125 37.7786Z" fill="#2D5BB2"/>
<path d="M25.0423 71.2889C25.0424 71.2872 25.0443 71.2857 25.0444 71.284C25.0443 69.5504 25.0239 67.7625 24.9772 65.9299L24.9738 65.9296C25.0187 67.7637 25.0406 69.5535 25.0423 71.2889Z" fill="#C3C5C2"/>
<path d="M25.0443 71.2833C28.7605 66.5769 29.5827 59.2277 29.4703 54.2123C27.7991 60.6121 25.6639 66.1016 25.6639 66.1016L24.9771 65.9292C25.0238 67.7618 25.0442 69.5497 25.0443 71.2833" fill="#244D9B"/>
<path d="M49.9448 39.3408C49.9415 39.3405 49.9383 39.3385 49.9333 39.3381C49.9383 39.3385 49.9415 39.3405 49.9448 39.3408ZM49.8952 39.3294C49.6748 39.2835 49.4507 39.2405 49.2249 39.1975C49.4507 39.2405 49.6748 39.2835 49.8952 39.3294ZM33.6452 37.7614C33.7681 37.7661 33.8892 37.7724 34.0104 37.777C33.8892 37.7724 33.7681 37.7661 33.6452 37.7614Z" fill="white"/>
<path d="M46.457 53.0034L47.9419 51.8851C52.9404 48.1214 53.3298 43.2138 52.5906 40.0053C51.7616 39.7639 50.8739 39.5356 49.9457 39.3424C49.9423 39.3421 49.9392 39.3401 49.9342 39.3396C49.9226 39.3369 49.9094 39.3339 49.8961 39.331C49.6757 39.2851 49.4516 39.2421 49.2258 39.1991C49.2258 39.1991 52.0139 44.9089 46.0431 49.4046C38.9423 45.4544 34.0483 37.7803 34.0483 37.7803C34.0366 37.7792 34.0247 37.7798 34.0113 37.7786C33.8901 37.774 33.769 37.7677 33.6461 37.763C32.6054 37.7249 31.5621 37.7152 30.5475 37.7235L31.5525 39.3009C31.7706 39.6423 36.987 47.7368 44.732 52.0429L46.457 53.0034" fill="#F1F4FB"/>
<path d="M36.0411 23.646C36.9967 28.6607 37.4693 34.8113 34.0492 37.7781C34.0492 37.7781 38.9433 45.4521 46.0441 49.4023C52.0149 44.9066 49.2267 39.1968 49.2267 39.1968C43.7821 37.3767 44.0682 30.6109 45.0193 26.871L36.0411 23.646" fill="#F89E63"/>
<path d="M45.0557 34.9678C44.9104 34.552 44.7968 34.1224 44.7092 33.685C44.7968 34.1224 44.9087 34.5519 45.0523 34.9675C45.054 34.9676 45.054 34.9676 45.0557 34.9678M44.6596 28.684C44.7559 28.0341 44.8822 27.4241 45.0228 26.8779L45.0179 26.8758C44.879 27.4221 44.7542 28.0339 44.6596 28.684Z" fill="#C3C5C2"/>
<path d="M45.0527 34.9678C44.9091 34.5522 44.7972 34.1227 44.7096 33.6853C44.3756 32.0168 44.4305 30.236 44.6601 28.6844C44.7546 28.0342 44.8794 27.4224 45.0184 26.8761L36.042 23.6495C36.2049 24.491 36.3501 25.3595 36.4685 26.2442C38.0437 29.8012 39.5545 32.2387 42.6234 33.9871C43.4335 34.4498 44.2531 34.7731 45.0527 34.9678" fill="#DC834C"/>
<path d="M53.3661 23.0972C52.6981 24.7126 51.3297 25.7945 49.9747 26.2271C47.9353 26.8779 46.6743 24.9673 47.0387 22.9129C47.3652 21.0646 48.8201 18.4971 50.9631 18.7447C53.0759 18.9895 54.1319 21.2493 53.3661 23.0972" fill="#F89E63"/>
<path d="M48.991 26.3436C49.2925 26.3717 49.6219 26.3366 49.9737 26.2242C51.3287 25.7916 52.6971 24.7097 53.3651 23.0943C53.4938 22.7836 53.5711 22.463 53.6014 22.1397C53.7471 20.5448 52.7206 18.9451 50.9621 18.7418C50.9436 18.7401 50.9254 18.7367 50.9069 18.735C48.7947 18.5375 47.3628 21.0767 47.0377 22.91C47.017 23.023 47.0014 23.1348 46.9909 23.247C46.8461 24.815 47.6426 26.2175 48.991 26.3436" fill="#DC834C"/>
<path d="M46.6809 10.9122C47.7293 6.60188 52.1284 12.0686 52.3723 15.317C52.6145 18.5635 49.6399 21.555 48.1224 18.2129C46.6065 14.8709 46.1117 13.2415 46.6809 10.9122" fill="#17282F"/>
<path d="M32.7394 17.2635C34.2326 23.9388 34.7789 27.8913 38.6197 31.0704C44.3959 35.8514 51.9073 32.1367 52.3656 25.3178C52.7754 19.1804 50.2658 9.29776 43.4757 7.13896C36.7858 5.01149 31.246 10.59 32.7394 17.2635" fill="#F89E63"/>
<path d="M35.2804 24.3446C37.9501 22.8623 38.4531 22.3078 37.254 20.675C35.3131 18.03 38.5767 17.9853 37.1503 14.7886C35.1677 10.3487 42.4718 14.0222 42.896 10.9663C43.2409 8.48772 49.4551 13.5885 50.3714 10.7814C51.7538 6.54959 45.3585 6.74761 44.4362 4.53917C43.5156 2.33089 37.0647 1.40684 35.7359 4.37811C34.4054 7.3509 31.3759 4.60249 28.9022 8.16289C26.4271 11.7215 30.8022 12.4025 28.3348 15.8604C26.3614 18.6244 29.4313 20.9592 31.4903 23.5696C32.785 25.2097 33.6247 25.2645 35.2804 24.3446" fill="#17282F"/>
<path d="M30.6769 23.9713C31.726 25.5276 33.336 26.506 34.78 26.8387C36.955 27.3411 37.7474 25.3538 36.8982 23.3397C36.1333 21.5262 34.0825 19.0804 32.0177 19.4788C29.9856 19.8701 29.4797 22.1917 30.6769 23.9713" fill="#F89E63"/>
<path d="M42.8911 18.3491C42.9803 18.8948 43.333 19.3147 43.6787 19.2862C44.0242 19.2594 44.2316 18.7938 44.1424 18.2481C44.0533 17.7008 43.7006 17.2809 43.3549 17.3094C43.0092 17.3379 42.802 17.8018 42.8911 18.3491Z" fill="#17282F"/>
<path d="M48.8653 17.8682C48.9545 18.4138 49.309 18.8339 49.6528 18.8069C49.9985 18.7784 50.2076 18.313 50.1183 17.7673C50.0291 17.2217 49.6764 16.8018 49.3309 16.8286C48.9852 16.8571 48.7761 17.3225 48.8653 17.8682Z" fill="#17282F"/>
<path d="M47.0102 18.2911C47.0102 18.2911 48.7269 21.346 50.2964 22.7583C49.5089 23.7356 47.8524 23.4524 47.8524 23.4524L47.0102 18.2911Z" fill="#F57739"/>
<path d="M46.557 25.0835L46.6863 24.9114L46.5059 24.7628C44.1837 24.9495 42.8284 23.3613 42.8146 23.3465L42.5925 23.3172L42.5835 23.5411C42.6427 23.6125 44.0697 25.2835 46.557 25.0835" fill="#17282F"/>
<path d="M40.7647 16.503L40.9914 16.3552C41.6416 15.1471 42.7944 15.1247 42.8061 15.1258C42.9697 15.1293 43.1053 14.9797 43.0883 14.8007C43.0727 14.6235 42.9188 14.4807 42.7464 14.4815C42.6839 14.4808 41.2399 14.5097 40.4342 16.0074C40.3526 16.157 40.4134 16.3569 40.5683 16.4525L40.7647 16.503Z" fill="#17282F"/>
<path d="M51.1918 15.4658L51.32 15.4136L51.3651 14.9666C50.2662 13.4919 48.8192 13.4986 48.7582 13.4996C48.5896 13.4957 48.4606 13.6475 48.4778 13.8249C48.4967 14.0024 48.6506 14.1452 48.8232 14.1427C48.8705 14.1421 49.9985 14.1495 50.8769 15.3265L51.1918 15.4658" fill="#17282F"/>
<path d="M17.6211 47.5733L26.6137 52.001C26.6137 52.001 18.8493 73.6955 20.4131 76.8493C22.5448 81.141 26.1637 90.6525 29.5653 95.2957C29.4354 96.3957 28.222 99.0182 27.3734 99.5466C20.1534 95.4621 10.9473 81.118 10.4153 76.8863C9.20703 67.2352 17.6211 47.5733 17.6211 47.5733Z" fill="#F89E63"/>
<path d="M20.1737 38.382C14.0551 39.7228 10.3102 62.234 10.3102 62.234L25.6644 66.1007C25.6644 66.1007 28.7983 58.0433 30.4442 50.0698C32.1694 41.7185 26.7338 36.9457 20.1737 38.382" fill="#406FBF"/>
<path d="M25.6639 66.1008C25.6639 66.1008 28.7978 58.0433 30.4437 50.0699C30.5672 49.4715 30.6536 48.8915 30.7059 48.3321C31.263 42.3723 27.9171 38.5974 23.3359 38.1691C22.3309 38.0752 21.2685 38.1432 20.1732 38.3821C14.0546 39.7229 10.3097 62.2341 10.3097 62.2341L12.3335 62.7443L22.3342 65.2623L25.6639 66.1008" fill="#2D5BB2"/>
</g>
</svg>
